<?xml version="1.0" encoding="UTF-8"?>
<svg width="25px" height="19px" viewBox="0 0 25 19" version="1.1" xmlns="http://www.w3.org/2000/svg" xmlns:xlink="http://www.w3.org/1999/xlink">
    <title>discord-brands</title>
    <g id="Page-1" stroke="none" stroke-width="1" fill="none" fill-rule="evenodd">
        <g id="Desktop-HD" transform="translate(-1119.000000, -52.000000)" fill="#FFFFFF" fill-rule="nonzero">
            <g id="Group-40" transform="translate(1073.000000, 48.000000)">
                <g id="discord-brands" transform="translate(46.000000, 4.000000)">
                    <path d="M21.1961147,1.60468522 C21.1891662,1.59125459 21.1776509,1.58073037 21.1636316,1.57499765 C19.5427405,0.833174627 17.8322356,0.304196733 16.0749232,0.00130190127 C16.0421773,-0.00477067232 16.0092184,0.0107870857 15.9931627,0.039895744 C15.7602454,0.461581809 15.548808,0.894722865 15.3596571,1.33766672 C13.4653704,1.05083464 11.5385325,1.05083464 9.64424579,1.33766672 C9.45384262,0.893598116 9.23901694,0.460349077 9.00074862,0.039895744 C8.98402424,0.0114834483 8.95157359,-0.00382644631 8.91894561,0.00130190127 C7.16144752,0.303560838 5.45083155,0.832578502 3.83015216,1.57504006 C3.8162785,1.58090696 3.8045722,1.59092429 3.79664864,1.60370977 C0.555608303,6.43167226 -0.332234963,11.1409269 0.10331079,15.7918666 C0.10578636,15.8148971 0.117523382,15.8359403 0.135836415,15.8501815 C2.02306417,17.2440355 4.13395125,18.307975 6.37841795,18.9965975 C6.41078926,19.0062838 6.44578394,18.9948455 6.46613084,18.9679278 C6.94819361,18.3136477 7.37533742,17.6208229 7.74321868,16.8964987 C7.7534433,16.8763941 7.75455613,16.8528865 7.74627623,16.8319102 C7.73799632,16.810934 7.72111493,16.7944936 7.69989369,16.7867395 C7.02631911,16.5296594 6.37422024,16.2197555 5.74971675,15.859936 C5.72667865,15.8464266 5.71190671,15.8223516 5.71032792,15.7957409 C5.70874912,15.7691303 5.7205712,15.7434854 5.74185108,15.7273598 C5.87288895,15.6294332 6.00401186,15.5275624 6.12913986,15.4246738 C6.15181498,15.4060448 6.18311307,15.4018383 6.20992245,15.4138166 C10.3013059,17.2763724 14.7307858,17.2763724 18.7737423,15.4138166 C18.8006333,15.4010658 18.8324829,15.4049132 18.8555453,15.4236983 C18.9807158,15.526587 19.1117962,15.6294332 19.2438119,15.7273598 C19.2652056,15.74332 19.2772145,15.7688686 19.2758319,15.7954811 C19.2744493,15.8220937 19.2598572,15.8462672 19.2369242,15.859936 C18.6138408,16.2227823 17.9611508,16.5324922 17.2858118,16.7857641 C17.2646009,16.7938156 17.2478357,16.8105031 17.2397187,16.8316437 C17.2316016,16.8527843 17.2329023,16.8763736 17.2432947,16.8964987 C17.6173351,17.6167948 18.0438499,18.3087468 18.5194046,18.9667827 C18.539199,18.9944651 18.5745219,19.0064206 18.6071175,18.9964703 C20.8556062,18.3101824 22.9701827,17.246144 24.8597756,15.8501815 C24.8783885,15.8366314 24.8902419,15.8157352 24.8923012,15.7928421 C25.4137317,10.4158716 24.019339,5.74521079 21.1961147,1.60468522 Z M8.33321106,12.92 C7.08724346,12.92 6.06060606,11.726188 6.06060606,10.2600449 C6.06060606,8.79390176 7.06733172,7.6 8.33321106,7.6 C9.60898177,7.6 10.6256848,8.80427414 10.6057731,10.2599551 C10.6057731,11.726188 9.5990044,12.92 8.33321106,12.92 Z M16.6665014,12.92 C15.4205768,12.92 14.3939394,11.726188 14.3939394,10.2600449 C14.3939394,8.79390176 15.400665,7.6 16.6665014,7.6 C17.9423581,7.6 18.9590181,8.80427414 18.9391064,10.2599551 C18.9391064,11.726188 17.9423581,12.92 16.6665014,12.92 Z" id="Shape"></path>
                </g>
            </g>
        </g>
    </g>
</svg>