<?xml version="1.0" encoding="UTF-8"?>
<svg width="17px" height="17px" viewBox="0 0 17 17" version="1.1" xmlns="http://www.w3.org/2000/svg" xmlns:xlink="http://www.w3.org/1999/xlink">
    <title>Shape</title>
    <g id="Page-1" stroke="none" stroke-width="1" fill="none" fill-rule="evenodd">
        <g id="Desktop-HD" transform="translate(-836.000000, -51.000000)" fill="#FFFFFF" fill-rule="nonzero">
            <g id="Group-37" transform="translate(563.000000, 49.000000)">
                <path d="M286.015888,6.02618235 C285.463698,5.47399289 284.620131,5.44076849 283.997173,5.86859904 C283.2164,5.45329409 282.365856,5.22039108 281.506341,5.22039108 C279.101891,5.22039108 276.994468,6.83609344 276.373171,9.1608044 C275.750214,11.4821929 276.763558,13.9351501 278.848389,15.1112937 C280.93322,16.3113588 283.566253,15.9668218 285.26402,14.2644038 C286.928562,12.5998616 287.244858,10.0249709 286.173371,8.01489499 C286.600637,7.42160696 286.567413,6.57770731 286.015888,6.02618235 Z M284.135387,13.166105 C282.777506,14.5489043 280.583699,14.661535 279.088601,13.4282787 C277.596826,12.1660507 277.294484,10.0197547 278.397534,8.42498371 C279.497926,6.86011468 281.63658,6.34513654 283.321389,7.30432485 C283.354614,7.6614871 283.487877,8.00967876 283.757958,8.27946086 C284.027906,8.54937585 284.376928,8.68247278 284.730104,8.71569717 C285.527489,10.1360401 285.341433,11.9600594 284.135387,13.166105 Z M281.474113,8.40837151 C280.298966,8.40837151 279.377654,9.35958596 279.377654,10.5048309 C279.377654,11.6500758 280.327871,12.6311922 281.504015,12.6311922 C282.680158,12.6311922 283.630376,11.7108764 283.630376,10.5347328 C283.630376,9.35858923 282.680158,8.40837151 281.474113,8.40837151 Z M284.191868,16.900527 C281.630268,17.9926129 278.606848,17.4062023 276.616706,15.4210447 C274.307611,13.1079623 273.983673,9.55693887 275.636587,6.89234234 C276.483809,7.09268545 277.354288,6.6773805 277.736368,5.8966072 C278.114462,5.11184698 277.872588,4.1732578 277.225709,3.62937445 C276.550257,3.0848266 275.586085,3.08050743 274.904985,3.62040386 C274.223885,4.16030029 274.003608,5.10354088 274.381369,5.88331744 C272.251685,9.18482564 272.590242,13.6478587 275.48907,16.5184465 C278.018111,19.0557936 281.864832,19.7285876 285.10421,18.2002654 C285.033608,18.1421227 284.953737,18.0922861 284.887288,18.0216843 C284.567304,17.7278145 284.331411,17.3390891 284.191868,16.900527 Z M287.520953,4.52111722 C284.991912,1.98377013 281.171771,1.31130836 277.90249,2.83929832 C277.973092,2.89744101 278.052897,2.94724438 278.119346,3.01784622 C278.439131,3.34175085 278.67519,3.73183848 278.816394,4.16774255 C281.377995,3.07565667 284.401415,3.66206725 286.391556,5.64722489 C288.700651,7.96030731 289.024589,11.5113307 287.371676,14.1759272 C286.524454,14.0064828 285.652645,14.3919523 285.270565,15.1726591 C284.892471,15.9574193 285.104443,16.8960085 285.781224,17.4398919 C286.458005,17.9837752 287.421512,17.9880944 288.102612,17.448198 C288.783712,16.9083015 289.00399,15.9653932 288.625897,15.1846199 C290.786911,11.8836433 290.41812,7.41828452 287.520953,4.52111722 Z" id="Shape"></path>
            </g>
        </g>
    </g>
</svg>