<?xml version="1.0" encoding="UTF-8"?>
<svg width="13px" height="18px" viewBox="0 0 13 18" version="1.1" xmlns="http://www.w3.org/2000/svg" xmlns:xlink="http://www.w3.org/1999/xlink">
    <title>Shape</title>
    <g id="Page-1" stroke="none" stroke-width="1" fill="none" fill-rule="evenodd">
        <g id="Desktop-HD" transform="translate(-563.000000, -51.000000)" fill="#FFFFFF" fill-rule="nonzero">
            <g id="Group-37" transform="translate(563.000000, 49.000000)">
                <g id="droplet-solid-(1)" transform="translate(0.000000, 2.011786)">
                    <path d="M0,11.4357802 C0,8.76207894 3.73660714,3.04685978 5.51176948,0.485293222 C5.96103896,-0.161764407 6.8961039,-0.161764407 7.34537338,0.485293222 C9.12053571,3.04685978 12.8571429,8.76207894 12.8571429,11.4357802 C12.8571429,15.0189783 9.9788961,17.897225 6.42857143,17.897225 C2.87824675,17.897225 0,15.0189783 0,11.4357802 Z M3.50649351,11.4357802 C3.50649351,11.147225 3.24350649,10.8513647 2.92207792,10.8513647 C2.59918831,10.8513647 2.33766234,11.147225 2.33766234,11.4357802 C2.33766234,13.7296114 4.16761364,15.5595627 6.42857143,15.5595627 C6.75,15.5595627 7.01298701,15.2965757 7.01298701,14.9751471 C7.01298701,14.6537185 6.75,14.3907315 6.42857143,14.3907315 C4.81412338,14.3907315 3.50649351,13.0831017 3.50649351,11.4357802 Z" id="Shape"></path>
                </g>
            </g>
        </g>
    </g>
</svg>