<?xml version="1.0" encoding="UTF-8"?>
<svg width="15px" height="18px" viewBox="0 0 15 18" version="1.1" xmlns="http://www.w3.org/2000/svg" xmlns:xlink="http://www.w3.org/1999/xlink">
    <title>user-astronaut-solid (1)</title>
    <g id="Page-1" stroke="none" stroke-width="1" fill="none" fill-rule="evenodd">
        <g id="Desktop-HD" transform="translate(-665.000000, -51.000000)" fill="#FFFFFF" fill-rule="nonzero">
            <g id="Group-37" transform="translate(563.000000, 49.000000)">
                <g id="user-astronaut-solid-(1)" transform="translate(102.000000, 2.000000)">
                    <path d="M5.89285714,15 C5.6015625,15 5.35714286,15.2444196 5.35714286,15.5357143 L5.35714286,17.1428571 L6.42857143,17.1428571 L6.42857143,15.5357143 C6.42857143,15.2444196 6.1875,15 5.89285714,15 Z M9.10714286,15 C8.81417411,15 8.57142857,15.2427455 8.57142857,15.5357143 C8.57142857,15.828683 8.81417411,16.0714286 9.10714286,16.0714286 C9.40011161,16.0714286 9.64285714,15.828683 9.64285714,15.5357143 C9.64285714,15.2427455 9.40178571,15 9.10714286,15 Z M5.49107143,5.75892857 L5.76579241,6.58325893 C5.80647321,6.70530134 5.97924107,6.70530134 6.01992188,6.58325893 L6.29464286,5.75892857 L7.11897321,5.48427455 C7.24104911,5.44345982 7.24104911,5.27082589 7.11897321,5.23001116 L6.29464286,4.95535714 L6.02008929,4.13169643 C5.97940848,4.00955357 5.80664063,4.00955357 5.76595982,4.13169643 L5.49107143,4.95535714 L4.66741071,5.22991071 C4.54533482,5.27072545 4.54533482,5.44335937 4.66741071,5.48417411 L5.49107143,5.75892857 Z M11.2533482,10.5602679 C10.1785714,11.3370536 8.87611607,11.7857143 7.5,11.7857143 C6.12388393,11.7857143 4.82042411,11.3360491 3.74665179,10.5606027 C1.55859375,11.390625 0,13.5033482 0,15.9810268 C0,16.6238839 0.519642857,17.1428571 1.16049107,17.1428571 L4.28571429,17.1428571 L4.28571429,15 C4.28571429,14.405692 4.76283482,13.9285714 5.35714286,13.9285714 L9.64285714,13.9285714 C10.2371652,13.9285714 10.7142857,14.405692 10.7142857,15 L10.7142857,17.1428571 L13.8395089,17.1428571 C14.4810268,17.1428571 15,16.6238839 15,15.9810268 C15,13.5033482 13.4430804,11.390625 11.2533482,10.5602679 Z M2.14285714,7.5 L2.59486607,7.5 C3.42522321,9.39174107 5.30357143,10.7142857 7.5,10.7142857 C9.69642857,10.7142857 11.578125,9.39174107 12.4051339,7.5 L12.8571429,7.5 C13.1501116,7.5 13.3928571,7.25725446 13.3928571,6.96428571 L13.3928571,3.75 C13.3928571,3.45870536 13.1517857,3.21428571 12.8571429,3.21428571 L12.4051339,3.21428571 C11.578125,1.32254464 9.69642857,0 7.5,0 C5.30357143,0 3.42522321,1.32254464 2.59486607,3.21428571 L2.14285714,3.21428571 C1.84988839,3.21428571 1.60714286,3.45870536 1.60714286,3.75 L1.60714286,6.96428571 C1.60714286,7.25892857 1.84988839,7.5 2.14285714,7.5 Z M3.48214286,4.55357143 C3.48214286,3.81361607 4.20200893,3.21428571 5.08928571,3.21428571 L9.91071429,3.21428571 C10.7979911,3.21428571 11.5178571,3.81294643 11.5178571,4.55357143 L11.5178571,5.35714286 C11.5178571,7.13169643 10.078125,8.57142857 8.30357143,8.57142857 L6.69642857,8.57142857 C4.921875,8.57142857 3.48214286,7.13169643 3.48214286,5.35714286 L3.48214286,4.55357143 Z" id="Shape"></path>
                </g>
            </g>
        </g>
    </g>
</svg>