<?xml version="1.0" encoding="UTF-8"?>
<svg width="1440px" height="741px" viewBox="0 0 1440 741" version="1.1" xmlns="http://www.w3.org/2000/svg" xmlns:xlink="http://www.w3.org/1999/xlink">
    <title>Group 458</title>
    <defs>
        <rect id="path-1" x="0" y="0" width="1440" height="741"></rect>
        <polygon id="path-3" points="0.186674009 0.390969163 1999.92786 0.390969163 1999.92786 904.702643 0.186674009 904.702643"></polygon>
        <polygon id="path-5" points="0.247246696 0.281387665 1357.85793 0.281387665 1357.85793 787.962555 0.247246696 787.962555"></polygon>
        <polygon id="path-7" points="0.539647577 0.37169582 955.264317 0.37169582 955.264317 558.887665 0.539647577 558.887665"></polygon>
        <polygon id="path-9" points="0.0330396476 0.390969163 1012.35132 0.390969163 1012.35132 686.701542 0.0330396476 686.701542"></polygon>
        <polygon id="path-11" points="0.528634361 0.390969163 1276.20595 0.390969163 1276.20595 382.287996 0.528634361 382.287996"></polygon>
        <polygon id="path-13" points="0.308370044 0.390969163 641.712555 0.390969163 641.712555 517.319383 0.308370044 517.319383"></polygon>
        <polygon id="path-15" points="0.545154185 0.310022026 680.94163 0.310022026 680.94163 641.718062 0.545154185 641.718062"></polygon>
    </defs>
    <g id="Page-1" stroke="none" stroke-width="1" fill="none" fill-rule="evenodd">
        <g id="Desktop-HD" transform="translate(0.000000, -3303.000000)">
            <g id="Group-458" transform="translate(0.000000, 3303.000000)">
                <mask id="mask-2" fill="white">
                    <use xlink:href="#path-1"></use>
                </mask>
                <use id="Mask" fill="#251666" xlink:href="#path-1"></use>
                <g id="Group-29" style="mix-blend-mode: overlay;" mask="url(#mask-2)">
                    <g transform="translate(-12.000000, -104.000000)">
                        <mask id="mask-4" fill="white">
                            <use xlink:href="#path-3"></use>
                        </mask>
                        <g id="Clip-2" stroke="none" fill="none"></g>
                        <path d="M717.323238,610.781938 C710.924559,610.781938 705.720815,615.985683 705.720815,622.384361 C705.720815,628.78304 710.924559,633.986784 717.323238,633.986784 C723.721916,633.986784 728.925661,628.78304 728.925661,622.384361 C728.920154,615.985683 723.71641,610.787445 717.323238,610.781938 Z M717.323238,637.114537 C709.200991,637.114537 702.593062,630.506608 702.593062,622.384361 C702.593062,614.262115 709.200991,607.654185 717.323238,607.654185 C725.445485,607.654185 732.053414,614.262115 732.053414,622.384361 C732.053414,630.506608 725.445485,637.114537 717.323238,637.114537 L717.323238,637.114537 Z" id="Fill-3" stroke="none" fill="#FFFFFF" fill-rule="evenodd" mask="url(#mask-4)"></path>
                        <g id="Group-11" stroke="none" stroke-width="1" fill="none" fill-rule="evenodd" mask="url(#mask-4)">
                            <g transform="translate(388.920154, 116.740088)">
                                <mask id="mask-6" fill="white">
                                    <use xlink:href="#path-5"></use>
                                </mask>
                                <g id="Clip-9" stroke="none" fill="none"></g>
                                <path d="M14.9763216,553.375551 C8.58094714,553.375551 3.375,558.579295 3.37555066,564.977974 C3.37555066,571.376652 8.58094714,576.580396 14.9779736,576.580396 C21.373348,576.580396 26.5792952,571.376652 26.5792952,564.977974 C26.5787445,558.579295 21.373348,553.375551 14.9763216,553.375551 Z M14.9779736,579.70815 C6.85517621,579.70815 0.247797357,573.094714 0.247246696,564.977974 C0.247246696,556.855727 6.85407489,550.247797 14.9768722,550.247797 C23.0996696,550.247797 29.7087004,556.855727 29.7075991,564.977974 C29.7075991,573.10022 23.1002203,579.70815 14.9779736,579.70815 L14.9779736,579.70815 Z" id="Fill-8" stroke="none" fill="#FFFFFF" fill-rule="evenodd" mask="url(#mask-6)"></path>
                                <path d="M842.235683,3.219163 C559.542952,3.219163 329.553965,233.207048 329.553965,515.903084 C329.553965,798.595815 559.542952,1028.5848 842.235683,1028.5848 C1124.92841,1028.5848 1354.9174,798.595815 1354.9174,515.903084 C1354.9174,233.207048 1124.92841,3.219163 842.235683,3.219163 Z M842.235683,1031.51982 C557.924009,1031.51982 326.618943,800.220264 326.618943,515.903084 C326.618943,231.586454 557.924009,0.281387665 842.235683,0.281387665 C1126.55286,0.281387665 1357.85793,231.587004 1357.85793,515.903084 C1357.85793,800.214758 1126.55286,1031.51982 842.235683,1031.51982 L842.235683,1031.51982 Z" id="Fill-10" stroke="none" fill="#FFFFFF" fill-rule="evenodd" mask="url(#mask-6)"></path>
                            </g>
                        </g>
                        <path d="M880.379405,245.232379 C874.371696,245.232379 869.481828,250.120595 869.481828,256.127203 C869.481828,262.134361 874.371696,267.020925 880.379405,267.020925 C886.387115,267.020374 891.271476,262.134361 891.271476,256.127753 C891.271476,250.120595 886.387115,245.231828 880.379405,245.232379 Z M880.379405,269.95815 C872.752753,269.9587 866.546806,263.752203 866.546806,256.127203 C866.546806,248.499449 872.747247,242.295154 880.379405,242.294604 C888.006057,242.294604 894.212004,248.498899 894.212004,256.126101 C894.212004,263.753855 888.006057,269.959802 880.379405,269.95815 L880.379405,269.95815 Z" id="Fill-12" stroke="none" fill="#FFFFFF" fill-rule="evenodd" mask="url(#mask-4)"></path>
                        <path d="M1285.75936,110.53359 C1279.75716,110.53359 1274.87279,115.419604 1274.87279,121.428414 C1274.86729,127.435573 1279.75716,132.322687 1285.75936,132.322137 C1291.77258,132.321586 1296.65694,127.435573 1296.65694,121.428965 C1296.65694,115.420154 1291.77258,110.53304 1285.75936,110.53359 Z M1285.76487,135.259362 C1278.13271,135.259912 1271.93227,129.053414 1271.93227,121.428414 C1271.93227,113.802863 1278.13822,107.596366 1285.75936,107.596366 C1293.38601,107.595815 1299.59196,113.801762 1299.59196,121.427313 C1299.59196,129.054515 1293.38601,135.261013 1285.76487,135.259362 L1285.76487,135.259362 Z" id="Fill-13" stroke="none" fill="#FFFFFF" fill-rule="evenodd" mask="url(#mask-4)"></path>
                        <path d="M757.031392,463.93337 C757.031392,470.759912 751.497247,476.296256 744.669053,476.295705 C737.846366,476.295154 732.306718,470.761013 732.306718,463.932819 C732.306718,457.106278 737.840859,451.569383 744.669053,451.569934 C751.497247,451.570485 757.036894,457.105176 757.031392,463.93337" id="Fill-20" stroke="none" fill="#FFFFFF" fill-rule="evenodd" mask="url(#mask-4)"></path>
                        <path d="M744.669053,453.038546 C738.661344,453.039097 733.776982,457.92511 733.776982,463.933921 C733.776982,469.940529 738.661344,474.827643 744.669053,474.827093 C750.676762,474.827093 755.56663,469.941079 755.56663,463.933921 C755.56663,457.92511 750.676762,453.038546 744.669053,453.038546 Z M744.669053,477.764868 C737.042401,477.764868 730.836454,471.558921 730.836454,463.93337 C730.836454,456.307819 737.042401,450.101872 744.669053,450.101322 C752.295705,450.100771 758.501652,456.306718 758.501652,463.932819 C758.501652,471.560022 752.295705,477.765969 744.669053,477.764868 L744.669053,477.764868 Z" id="Fill-21" stroke="none" fill="#FFFFFF" fill-rule="evenodd" mask="url(#mask-4)"></path>
                        <path d="M806.128304,355.607379 C806.128304,360.258811 802.356278,364.029185 797.7087,364.029185 C793.055617,364.029736 789.289097,360.259361 789.289097,355.60793 C789.289097,350.9587 793.055617,347.188326 797.7087,347.188326 C802.356278,347.187775 806.128304,350.95815 806.128304,355.607379" id="Fill-22" stroke="none" fill="#FFFFFF" fill-rule="evenodd" mask="url(#mask-4)"></path>
                        <g id="Group-26" stroke="none" stroke-width="1" fill="none" fill-rule="evenodd" mask="url(#mask-4)">
                            <g transform="translate(125.153634, 345.814978)">
                                <mask id="mask-8" fill="white">
                                    <use xlink:href="#path-7"></use>
                                </mask>
                                <g id="Clip-24" stroke="none" fill="none"></g>
                                <path d="M672.555066,2.37279736 C668.463656,2.3722467 665.132159,5.70044053 665.132159,9.79240088 C665.137665,13.8843612 668.463656,17.2125551 672.555066,17.2131057 C676.646476,17.2131057 679.972467,13.8854626 679.977974,9.7935022 C679.972467,5.70099119 676.646476,2.37334802 672.555066,2.37279736 Z M672.555066,19.214207 C667.356828,19.2136564 663.13326,14.9878855 663.13326,9.79185022 C663.13326,4.59801762 667.356828,0.370594714 672.555066,0.37169582 C677.747797,0.372246696 681.976872,4.59801762 681.976872,9.79185022 C681.976872,14.9878855 677.747797,19.2147577 672.555066,19.214207 L672.555066,19.214207 Z" id="Fill-23" stroke="none" fill="#FFFFFF" fill-rule="evenodd" mask="url(#mask-8)"></path>
                                <path d="M477.901982,12.1530837 C216.185022,12.1530837 3.26211454,225.082599 3.26211454,486.795154 C3.26211454,748.513216 216.183921,961.442731 477.907489,961.442731 C739.625551,961.442731 952.544053,748.513216 952.544053,486.795154 C952.544053,225.077093 739.620044,12.1530837 477.901982,12.1530837 Z M477.901982,964.162996 C214.687225,964.162996 0.539647577,750.01652 0.539647577,486.800661 C0.539647577,223.579295 214.686123,9.4339207 477.901982,9.4339207 C741.117841,9.4339207 955.264317,223.579295 955.264317,486.795154 C955.264317,750.011013 741.123348,964.162996 477.901982,964.162996 L477.901982,964.162996 Z" id="Fill-25" stroke="none" fill="#FFFFFF" fill-rule="evenodd" mask="url(#mask-8)"></path>
                            </g>
                        </g>
                        <path d="M1007.03689,565.89207 C997.515969,565.89207 989.773675,573.639868 989.773675,583.160793 C989.768172,592.687225 997.515969,600.429515 1007.03689,600.429515 C1016.55782,600.429515 1024.30562,592.687225 1024.30562,583.160793 C1024.30562,573.639868 1016.55782,565.897577 1007.03689,565.89207 Z M1007.03689,605.088106 C994.944383,605.088106 985.115088,595.247797 985.115088,583.160793 C985.115088,571.073789 994.94989,561.238984 1007.03689,561.238984 C1019.1239,561.23348 1028.9587,571.073789 1028.96421,583.160793 C1028.96421,595.253304 1019.1239,605.088106 1007.03689,605.088106 L1007.03689,605.088106 Z" id="Fill-27" stroke="none" fill="#FFFFFF" fill-rule="evenodd" mask="url(#mask-4)"></path>
                        <path d="M603.055617,339.340858 C593.540198,339.338106 585.786894,347.0837 585.786894,356.60848 C585.786894,366.130507 593.534692,373.876652 603.055617,373.876652 C612.576542,373.876101 620.329846,366.131057 620.329846,356.609031 C620.324339,347.084251 612.576542,339.340308 603.055617,339.340858 Z M603.061123,378.535242 C590.963106,378.53304 581.128304,368.698238 581.133808,356.60793 C581.133808,344.519824 590.968612,334.682269 603.055617,334.681718 C615.148128,334.681167 624.98293,344.519273 624.98293,356.609581 C624.98293,368.697137 615.148128,378.534692 603.061123,378.535242 L603.061123,378.535242 Z" id="Fill-28" stroke="none" fill="#FFFFFF" fill-rule="evenodd" mask="url(#mask-4)"></path>
                        <path d="M1098.66134,832.610132 C1098.66134,843.436123 1089.88381,852.20815 1079.06333,852.20815 C1068.23733,852.20815 1059.46531,843.436123 1059.46531,832.610132 C1059.46531,821.789648 1068.23733,813.012115 1079.05782,813.012115 C1089.88381,813.012115 1098.65584,821.789648 1098.66134,832.610132" id="Fill-31" stroke="none" fill="#FFFFFF" fill-rule="evenodd" mask="url(#mask-4)"></path>
                        <path d="M1079.05782,815.34141 C1069.53689,815.34141 1061.7891,823.089207 1061.7891,832.610132 C1061.7891,842.136564 1069.53689,849.878855 1079.05782,849.878855 C1088.58425,849.878855 1096.32654,842.136564 1096.32654,832.610132 C1096.32654,823.089207 1088.58425,815.34141 1079.05782,815.34141 Z M1079.05782,854.537445 C1066.97081,854.537445 1057.13601,844.697137 1057.13601,832.610132 C1057.13601,820.523128 1066.97081,810.688324 1079.05782,810.688324 C1091.15033,810.682819 1100.98513,820.523128 1100.98513,832.610132 C1100.98513,844.702643 1091.15033,854.537445 1079.05782,854.537445 L1079.05782,854.537445 Z" id="Fill-32" stroke="none" fill="#FFFFFF" fill-rule="evenodd" mask="url(#mask-4)"></path>
                        <path d="M701.486233,365.147577 C701.486233,375.969163 692.714207,384.742291 681.888216,384.743943 C671.067731,384.743392 662.290198,375.968062 662.295702,365.146476 C662.295702,354.322137 671.067731,345.549009 681.893722,345.549559 C692.714207,345.55011 701.486233,354.323238 701.486233,365.147577" id="Fill-33" stroke="none" fill="#FFFFFF" fill-rule="evenodd" mask="url(#mask-4)"></path>
                        <path d="M681.888216,347.877753 C672.367291,347.878304 664.619493,355.623348 664.619493,365.145374 C664.619493,374.670154 672.367291,382.4163 681.888216,382.4163 C691.414648,382.415749 699.162445,374.670154 699.162445,365.145925 C699.156938,355.623899 691.414648,347.877203 681.888216,347.877753 Z M681.893722,387.072137 C669.801211,387.072687 659.960903,377.235132 659.966407,365.147026 C659.966407,353.057269 669.801211,343.219163 681.888216,343.218612 C693.97522,343.220815 703.815529,353.05837 703.815529,365.146476 C703.815529,377.234031 693.980727,387.071586 681.893722,387.072137 L681.893722,387.072137 Z" id="Fill-34" stroke="none" fill="#FFFFFF" fill-rule="evenodd" mask="url(#mask-4)"></path>
                        <path d="M977.339758,519.67511 C977.334251,527.047357 971.359581,533.024229 963.99174,533.022027 C956.618392,533.022577 950.638216,527.045705 950.643719,519.675661 C950.643719,512.302863 956.612885,506.326542 963.986233,506.325441 C971.359581,506.327643 977.339758,512.302313 977.339758,519.67511" id="Fill-35" stroke="none" fill="#FFFFFF" fill-rule="evenodd" mask="url(#mask-4)"></path>
                        <g id="Group-39" stroke="none" stroke-width="1" fill="none" fill-rule="evenodd" mask="url(#mask-4)">
                            <g transform="translate(0.153634, 0.000000)">
                                <mask id="mask-10" fill="white">
                                    <use xlink:href="#path-9"></use>
                                </mask>
                                <g id="Clip-37" stroke="none" fill="none"></g>
                                <path d="M963.838106,507.910242 C957.351322,507.912445 952.075991,513.187775 952.070485,519.67511 C952.070485,526.161894 957.351322,531.436674 963.832599,531.437775 C970.319383,531.435022 975.594718,526.160242 975.594718,519.673458 C975.60022,513.186123 970.319383,507.911344 963.838106,507.910242 Z M963.838106,534.606828 C955.60022,534.60848 948.898678,527.907489 948.898678,519.674559 C948.904185,511.439978 955.60022,504.740088 963.838106,504.738436 C972.070485,504.739537 978.772026,511.439978 978.766523,519.674009 C978.772026,527.907489 972.070485,534.60793 963.838106,534.606828 L963.838106,534.606828 Z" id="Fill-36" stroke="none" fill="#FFFFFF" fill-rule="evenodd" mask="url(#mask-10)"></path>
                                <path d="M463.242841,-408.38326 C162.189427,-408.38326 -82.7351322,-163.4587 -82.7351322,137.594163 C-82.7351322,438.647577 162.189427,683.573789 463.242841,683.573789 C764.295154,683.573789 1009.21806,438.647577 1009.21806,137.594163 C1009.21806,-163.4587 764.295154,-408.38326 463.242841,-408.38326 Z M463.243943,686.701542 C160.465308,686.701542 -85.8634361,440.374449 -85.8634361,137.594163 C-85.8634361,-165.185022 160.464207,-411.513216 463.243392,-411.513216 C766.024229,-411.513216 1012.35132,-165.185573 1012.35132,137.594714 C1012.35132,440.373348 766.018722,686.701542 463.243943,686.701542 L463.243943,686.701542 Z" id="Fill-38" stroke="none" fill="#FFFFFF" fill-rule="evenodd" mask="url(#mask-10)"></path>
                            </g>
                        </g>
                        <path d="M1010.41244,156.455396 C1004.01377,156.455396 998.810022,161.65859 998.810022,168.057819 C998.810022,174.454846 1004.01377,179.659141 1010.41244,179.65859 C1016.81112,179.65859 1022.01487,174.455396 1022.01487,168.057819 C1022.01487,161.659141 1016.81112,156.454846 1010.41244,156.455396 Z M1010.41244,182.788546 C1002.2902,182.787445 995.682269,176.178414 995.682269,168.057269 C995.682269,159.936674 1002.2902,153.327093 1010.41244,153.327093 C1018.53469,153.326542 1025.14262,159.935573 1025.14262,168.056718 C1025.14262,176.178965 1018.53469,182.788546 1010.41244,182.788546 L1010.41244,182.788546 Z" id="Fill-41" stroke="none" fill="#FFFFFF" fill-rule="evenodd" mask="url(#mask-4)"></path>
                        <path d="M966.282489,372.254956 C966.282489,377.20815 962.268172,381.223018 957.317731,381.223568 C952.367291,381.224119 948.347467,377.2087 948.347467,372.255507 C948.347467,367.303965 952.361784,363.289097 957.317731,363.288546 C962.268172,363.287996 966.282489,367.303414 966.282489,372.254956" id="Fill-42" stroke="none" fill="#FFFFFF" fill-rule="evenodd" mask="url(#mask-4)"></path>
                        <g id="Group-48" stroke="none" stroke-width="1" fill="none" fill-rule="evenodd" mask="url(#mask-4)">
                            <g transform="translate(723.721916, 0.000000)">
                                <mask id="mask-12" fill="white">
                                    <use xlink:href="#path-11"></use>
                                </mask>
                                <g id="Clip-44" stroke="none" fill="none"></g>
                                <path d="M233.595815,364.353524 C229.240088,364.352974 225.693833,367.897026 225.693833,372.254956 C225.693833,376.612885 229.240088,380.156938 233.595815,380.156938 C237.951542,380.157489 241.497797,376.613436 241.497797,372.255507 C241.497797,367.897577 237.951542,364.353524 233.595815,364.353524 Z M233.595815,382.287996 C228.061674,382.287445 223.562775,377.787996 223.562775,372.254405 C223.562775,366.723018 228.061674,362.221366 233.595815,362.221916 C239.129956,362.222467 243.628855,366.722467 243.628855,372.254405 C243.628855,377.787445 239.129956,382.289097 233.595815,382.287996 L233.595815,382.287996 Z" id="Fill-43" stroke="none" fill="#FFFFFF" fill-rule="evenodd" mask="url(#mask-12)"></path>
                                <path d="M355.517621,-389.11674 C160.89207,-389.11674 2.55506608,-230.774229 2.55506608,-36.1464758 C2.55506608,158.481828 160.89207,316.822687 355.517621,316.822687 C550.143172,316.822687 708.480176,158.480176 708.480176,-36.1481278 C708.480176,-230.775881 550.143172,-389.11674 355.517621,-389.11674 Z M355.517621,318.84141 C159.779736,318.84141 0.528634361,159.598568 0.528634361,-36.1481278 C0.528634361,-231.89152 159.774229,-391.135463 355.517621,-391.135463 C551.261013,-391.135463 710.506608,-231.892621 710.506608,-36.1464758 C710.506608,159.597467 551.261013,318.84141 355.517621,318.84141 L355.517621,318.84141 Z" id="Fill-45" stroke="none" fill="#FFFFFF" fill-rule="evenodd" mask="url(#mask-12)"></path>
                                <path d="M355.523128,300.162996 C345.776432,300.163546 337.846916,308.088106 337.85242,317.83315 C337.85242,327.575441 345.776432,335.501652 355.517621,335.500551 C365.258811,335.500551 373.188326,327.575441 373.188326,317.830947 C373.188326,308.088106 365.258811,300.162445 355.523128,300.162996 Z M355.517621,340.264318 C343.14978,340.264868 333.0837,330.19989 333.0837,317.832599 C333.0837,305.462555 343.14978,295.39978 355.517621,295.399229 C367.890969,295.398678 377.951542,305.464207 377.951542,317.831498 C377.951542,330.201542 367.890969,340.26652 355.517621,340.264318 L355.517621,340.264318 Z" id="Fill-46" stroke="none" fill="#FFFFFF" fill-rule="evenodd" mask="url(#mask-12)"></path>
                            </g>
                        </g>
                        <g id="Group-56" stroke="none" stroke-width="1" fill="none" fill-rule="evenodd" mask="url(#mask-4)">
                            <g transform="translate(1275.484031, 0.000000)">
                                <mask id="mask-14" fill="white">
                                    <use xlink:href="#path-13"></use>
                                </mask>
                                <g id="Clip-54" stroke="none" fill="none"></g>
                                <path d="M321.007709,-122.261013 C145.181718,-122.261013 2.13656388,20.7868943 2.13656388,196.615639 C2.13656388,372.442181 145.181718,515.490639 321.013216,515.490639 C496.839207,515.490639 639.889868,372.442731 639.889868,196.614537 C639.889868,20.7874449 496.839207,-122.261013 321.007709,-122.261013 Z M321.007709,517.319383 C144.174009,517.319383 0.308370044,373.451542 0.308370044,196.614537 C0.308370044,19.779185 144.174009,-124.087555 321.013216,-124.087555 C497.846916,-124.087555 641.712555,19.7780837 641.712555,196.615088 C641.712555,373.450441 497.846916,517.319383 321.007709,517.319383 L321.007709,517.319383 Z" id="Fill-55" stroke="none" fill="#FFFFFF" fill-rule="evenodd" mask="url(#mask-14)"></path>
                            </g>
                        </g>
                        <path d="M1289.8728,196.615639 C1289.8728,203.885463 1283.97522,209.781388 1276.7065,209.780837 C1269.43227,209.780286 1263.5402,203.886564 1263.5402,196.614537 C1263.5402,189.344714 1269.43227,183.448789 1276.7065,183.449339 C1283.97522,183.44989 1289.8728,189.343062 1289.8728,196.615639" id="Fill-57" stroke="none" fill="#FFFFFF" fill-rule="evenodd" mask="url(#mask-4)"></path>
                        <path d="M1276.7065,185.013216 C1270.30782,185.013216 1265.10407,190.21696 1265.10407,196.615639 C1265.10407,203.012665 1270.30782,208.21696 1276.7065,208.21696 C1283.10518,208.21641 1288.30341,203.013216 1288.30341,196.616189 C1288.30341,190.21696 1283.09967,185.012665 1276.7065,185.013216 Z M1276.7065,211.344714 C1268.58425,211.345264 1261.97632,204.736233 1261.97632,196.615088 C1261.97081,188.494493 1268.58425,181.885463 1276.7065,181.884912 C1284.82324,181.884361 1291.43667,188.493943 1291.43667,196.614537 C1291.43667,204.737335 1284.82874,211.346366 1276.7065,211.344714 L1276.7065,211.344714 Z" id="Fill-58" stroke="none" fill="#FFFFFF" fill-rule="evenodd" mask="url(#mask-4)"></path>
                        <path d="M85.0192731,336.508811 C-90.8089207,336.508811 -233.855727,479.556167 -233.855727,655.385463 C-233.855727,831.211454 -90.80837,974.262115 85.0203744,974.262115 C260.849119,974.262115 403.897577,831.211454 403.897577,655.385463 C403.897577,479.557269 260.84967,336.508811 85.0192731,336.508811 Z M85.0214758,976.090308 C-91.8155286,976.090308 -235.682819,832.219163 -235.682819,655.385463 C-235.682819,478.549009 -91.81663,334.681718 85.0203744,334.681718 C261.857379,334.681718 405.72467,478.547907 405.72467,655.385463 C405.72467,832.219163 261.856278,976.090308 85.0214758,976.090308 L85.0214758,976.090308 Z" id="Fill-4" stroke="none" fill="#FFFFFF" fill-rule="evenodd" mask="url(#mask-4)"></path>
                        <path d="M98.1855727,335.594714 C98.185022,342.86674 92.2912996,348.761013 85.0192731,348.760463 C77.7494493,348.761564 71.8535242,342.866189 71.8540749,335.594163 C71.8540749,328.323789 77.748348,322.429515 85.0203744,322.428414 C92.2924009,322.428965 98.1861233,328.322687 98.1855727,335.594714" id="Fill-6" stroke="none" fill="#FFFFFF" fill-rule="evenodd" mask="url(#mask-4)"></path>
                        <path d="M85.0209251,323.992291 C78.6238987,323.992841 73.4174009,329.196035 73.4179515,335.594714 C73.4179515,341.992291 78.623348,347.196586 85.0203744,347.196035 C91.4174009,347.196035 96.6222467,341.992291 96.621696,335.595264 C96.621696,329.196586 91.4157489,323.993943 85.0209251,323.992291 Z M85.0203744,350.324339 C76.8975771,350.324339 70.2901982,343.715308 70.2896476,335.594714 C70.2896476,327.473568 76.8970264,320.864537 85.0192731,320.863987 C93.1437225,320.863987 99.751652,327.473018 99.7500003,335.594163 C99.7500003,343.71641 93.1426211,350.325441 85.0203744,350.324339 L85.0203744,350.324339 Z" id="Fill-7" stroke="none" fill="#FFFFFF" fill-rule="evenodd" mask="url(#mask-4)"></path>
                        <path d="M1439.05782,155.951542 C1439.05782,162.780286 1433.52368,168.314978 1426.69548,168.314427 C1419.86729,168.315529 1414.33315,162.779185 1414.33315,155.952643 C1414.33315,149.124449 1419.86729,143.589758 1426.69548,143.588106 C1433.52368,143.588656 1439.05782,149.125 1439.05782,155.951542" id="Fill-16" stroke="none" fill="#FFFFFF" fill-rule="evenodd" mask="url(#mask-4)"></path>
                        <path d="M1426.68998,145.056718 C1420.68778,145.057269 1415.79791,149.943282 1415.79791,155.952093 C1415.79791,161.960903 1420.68778,166.845815 1426.69548,166.845815 C1432.70319,166.845264 1437.58756,161.959251 1437.58756,155.952643 C1437.58756,149.943833 1432.70319,145.05837 1426.68998,145.056718 Z M1426.69548,169.784692 C1419.06883,169.78359 1412.86289,163.579295 1412.86289,155.951542 C1412.86289,148.325991 1419.06883,142.120044 1426.69548,142.119493 C1434.32214,142.118943 1440.52258,148.325441 1440.52258,155.952643 C1440.52808,163.578194 1434.32214,169.784692 1426.69548,169.784692 L1426.69548,169.784692 Z" id="Fill-17" stroke="none" fill="#FFFFFF" fill-rule="evenodd" mask="url(#mask-4)"></path>
                        <path d="M182.687775,595.6663 C176.075441,595.6663 170.69163,601.046256 170.692181,607.659692 C170.692731,614.278634 176.07489,619.653084 182.687225,619.653084 C189.30011,619.653084 194.680617,614.273128 194.68337,607.659692 C194.682819,601.046256 189.300661,595.6663 182.687775,595.6663 Z M182.687225,622.890969 C174.288546,622.890969 167.4587,616.057269 167.4587,607.659692 C167.4587,599.267621 174.289648,592.433921 182.688326,592.433921 C191.086454,592.433921 197.91685,599.262115 197.91685,607.659692 C197.91685,616.057269 191.085352,622.890969 182.687225,622.890969 L182.687225,622.890969 Z" id="Fill-29" stroke="none" fill="#FFFFFF" fill-rule="evenodd" mask="url(#mask-4)"></path>
                        <path d="M127.053414,815.34141 C117.534141,815.34141 109.785242,823.089207 109.785242,832.610132 C109.785793,842.136564 117.534141,849.878855 127.056167,849.878855 C136.577643,849.878855 144.324339,842.136564 144.323789,832.610132 C144.323789,823.089207 136.575441,815.346916 127.053414,815.34141 Z M127.055066,854.537445 C114.964758,854.537445 105.129956,844.702643 105.129405,832.610132 C105.128855,820.523128 114.963656,810.688324 127.053965,810.688324 C139.144273,810.682819 148.979626,820.523128 148.980176,832.610132 C148.980727,844.702643 139.145925,854.537445 127.055066,854.537445 L127.055066,854.537445 Z" id="Fill-30" stroke="none" fill="#FFFFFF" fill-rule="evenodd" mask="url(#mask-4)"></path>
                        <path d="M463.398128,673.535242 C457.001101,673.535242 451.795154,678.738987 451.795154,685.137665 C451.795705,691.536344 457.000551,696.740088 463.397577,696.740088 C469.795154,696.740088 474.999449,691.536344 474.998899,685.137665 C474.998348,678.738987 469.793502,673.535242 463.398128,673.535242 Z M463.397577,699.867841 C455.27478,699.867841 448.667401,693.259912 448.66685,685.137665 C448.66685,677.015419 455.274229,670.407489 463.397026,670.407489 C471.520925,670.407489 478.128304,677.015419 478.127203,685.137665 C478.127203,693.259912 471.519824,699.867841 463.397577,699.867841 L463.397577,699.867841 Z" id="Fill-40" stroke="none" fill="#FFFFFF" fill-rule="evenodd" mask="url(#mask-4)"></path>
                        <path d="M1455.45099,480.306167 C1455.45099,485.259361 1451.43667,489.27478 1446.48073,489.27533 C1441.53029,489.275881 1437.51597,485.259912 1437.51597,480.307269 C1437.51597,475.355727 1441.53029,471.340859 1446.48073,471.340308 C1451.43667,471.339758 1455.45099,475.355176 1455.45099,480.306167" id="Fill-64" stroke="none" fill="#FFFFFF" fill-rule="evenodd" mask="url(#mask-4)"></path>
                        <path d="M1446.48073,472.405286 C1442.125,472.404736 1438.57874,475.948238 1438.57874,480.306167 C1438.57874,484.664097 1442.125,488.2087 1446.48073,488.2087 C1450.84196,488.209251 1454.38271,484.665198 1454.38271,480.307269 C1454.38271,475.949339 1450.84196,472.405837 1446.48073,472.405286 Z M1446.48623,490.339758 C1440.95209,490.34141 1436.45319,485.839207 1436.44769,480.305617 C1436.44769,474.774229 1440.95209,470.273128 1446.48623,470.274229 C1452.01487,470.27478 1456.51377,474.774229 1456.51377,480.305617 C1456.51927,485.839207 1452.01487,490.340859 1446.48623,490.339758 L1446.48623,490.339758 Z" id="Fill-65" stroke="none" fill="#FFFFFF" fill-rule="evenodd" mask="url(#mask-4)"></path>
                        <g id="Group-70" stroke="none" stroke-width="1" fill="none" fill-rule="evenodd" mask="url(#mask-4)">
                            <g transform="translate(1318.986233, 134.911894)">
                                <mask id="mask-16" fill="white">
                                    <use xlink:href="#path-15"></use>
                                </mask>
                                <g id="Clip-68" stroke="none" fill="none"></g>
                                <path d="M8.00660793,227.278634 C4.76321586,227.279185 2.13105727,229.91685 2.13105727,233.15804 C2.13105727,236.40033 4.76321586,239.036894 8.00660793,239.036344 C11.25,239.037996 13.8876652,236.40033 13.8876652,233.15804 C13.8876652,229.91685 11.25,227.278084 8.00660793,227.278634 Z M8.00660793,240.623348 C3.89317181,240.622797 0.545154185,237.274229 0.545154185,233.15859 C0.545154185,229.042952 3.89317181,225.693833 8.00660793,225.693833 C12.1200441,225.694383 15.4735683,229.042952 15.4735683,233.15859 C15.4735683,237.274229 12.1200441,240.623348 8.00660793,240.623348 L8.00660793,240.623348 Z" id="Fill-67" stroke="none" fill="#FFFFFF" fill-rule="evenodd" mask="url(#mask-16)"></path>
                            </g>
                        </g>
                    </g>
                </g>
            </g>
        </g>
    </g>
</svg>