<?xml version="1.0" encoding="UTF-8"?>
<svg width="2107px" height="415px" viewBox="0 0 2107 415" version="1.1" xmlns="http://www.w3.org/2000/svg" xmlns:xlink="http://www.w3.org/1999/xlink">
    <title>Group</title>
    <defs>
        <polygon id="path-1" points="0.424850287 0.35857911 178.762792 0.35857911 178.762792 177.907336 0.424850287 177.907336"></polygon>
        <polygon id="path-3" points="0.143269428 0.0317660518 141.5627 0.0317660518 141.5627 141.412679 0.143269428 141.412679"></polygon>
        <polygon id="path-5" points="0.464306096 0.0604808371 117.839891 0.0604808371 117.839891 117.403023 0.464306096 117.403023"></polygon>
        <polygon id="path-7" points="0.424663978 0.358346417 178.6844 0.358346417 178.6844 177.791887 0.424663978 177.791887"></polygon>
        <polygon id="path-9" points="0.143206601 0.0317454379 141.500621 0.0317454379 141.500621 141.320912 0.143206601 141.320912"></polygon>
        <polygon id="path-11" points="0.464102485 0.0604415893 117.788215 0.0604415893 117.788215 117.326837 0.464102485 117.326837"></polygon>
    </defs>
    <g id="Page-1" stroke="none" stroke-width="1" fill="none" fill-rule="evenodd" opacity="0.0962611607">
        <g id="Desktop-HD" transform="translate(508.000000, -400.000000)">
            <g id="Group" transform="translate(-507.000000, 400.000000)">
                <g id="Group-28">
                    <path d="M177.77258,138.032891 C177.77258,187.110408 137.976589,226.895225 88.8852853,226.895225 C39.7959918,226.895225 0,187.110408 0,138.032891 C0,88.955374 39.7959918,49.1705578 88.8852853,49.1705578 C137.976589,49.1705578 177.77258,88.955374 177.77258,138.032891" id="Fill-1" fill="#FEFEFE"></path>
                    <path d="M284.620349,91.0693782 C284.620349,140.146895 244.824357,179.931712 195.733054,179.931712 C146.64376,179.931712 106.847768,140.146895 106.847768,91.0693782 C106.847768,41.991861 146.64376,2.20704489 195.733054,2.20704489 C244.824357,2.20704489 284.620349,41.991861 284.620349,91.0693782" id="Fill-3" fill="#FEFEFE"></path>
                    <g id="Group-7" transform="translate(97.454143, 91.347136)">
                        <mask id="mask-2" fill="white">
                            <use xlink:href="#path-1"></use>
                        </mask>
                        <g id="Clip-6"></g>
                        <path d="M178.762792,89.133359 C178.762792,138.162522 138.840239,177.908139 89.5928133,177.908139 C40.3474034,177.908139 0.424850287,138.162522 0.424850287,89.133359 C0.424850287,40.1041964 40.3474034,0.35857911 89.5928133,0.35857911 C138.840239,0.35857911 178.762792,40.1041964 178.762792,89.133359" id="Fill-5" fill="#FEFEFE" mask="url(#mask-2)"></path>
                    </g>
                    <path d="M385.020407,157.370808 C385.020407,206.448325 345.224415,246.233142 296.133112,246.233142 C247.043819,246.233142 207.247827,206.448325 207.247827,157.370808 C207.247827,108.293291 247.043819,68.5084749 296.133112,68.5084749 C345.224415,68.5084749 385.020407,108.293291 385.020407,157.370808" id="Fill-8" fill="#FEFEFE"></path>
                    <path d="M374.888291,93.8319378 C374.888291,135.281134 341.278893,168.881473 299.818523,168.881473 C258.358153,168.881473 224.748754,135.281134 224.748754,93.8319378 C224.748754,52.3827421 258.358153,18.7824024 299.818523,18.7824024 C341.278893,18.7824024 374.888291,52.3827421 374.888291,93.8319378" id="Fill-10" fill="#FEFEFE"></path>
                    <path d="M483.578262,99.8174836 C483.578262,138.976527 451.825069,170.72318 412.653451,170.72318 C373.48385,170.72318 341.728639,138.976527 341.728639,99.8174836 C341.728639,60.6584398 373.48385,28.9117875 412.653451,28.9117875 C451.825069,28.9117875 483.578262,60.6584398 483.578262,99.8174836" id="Fill-12" fill="#FEFEFE"></path>
                    <g id="Group-16" transform="translate(423.524057, 0.182669)">
                        <mask id="mask-4" fill="white">
                            <use xlink:href="#path-3"></use>
                        </mask>
                        <g id="Clip-15"></g>
                        <path d="M141.5627,70.7220213 C141.5627,109.762306 109.905805,141.412679 70.8529846,141.412679 C31.802175,141.412679 0.143269428,109.762306 0.143269428,70.7220213 C0.143269428,31.6817368 31.802175,0.0313639892 70.8529846,0.0313639892 C109.905805,0.0313639892 141.5627,31.6817368 141.5627,70.7220213" id="Fill-14" fill="#FEFEFE" mask="url(#mask-4)"></path>
                    </g>
                    <path d="M763.794843,157.182903 C763.794843,196.395285 732.006865,228.182903 692.79404,228.182903 C653.58282,228.182903 621.794843,196.395285 621.794843,157.182903 C621.794843,117.970522 653.58282,86.1829033 692.79404,86.1829033 C732.006865,86.1829033 763.794843,117.970522 763.794843,157.182903" id="Fill-17" fill="#FEFEFE"></path>
                    <path d="M672.40406,118.694974 C672.40406,160.652766 638.382294,194.665363 596.41319,194.665363 C554.4461,194.665363 520.422321,160.652766 520.422321,118.694974 C520.422321,76.7371825 554.4461,42.7245855 596.41319,42.7245855 C638.382294,42.7245855 672.40406,76.7371825 672.40406,118.694974" id="Fill-19" fill="#FEFEFE"></path>
                    <rect id="Rectangle" stroke="#979797" fill="#FFFFFF" x="0" y="134.415584" width="2104.8718" height="279.584416"></rect>
                    <path d="M897.626206,140.817484 C897.626206,193.200454 855.149849,235.665363 802.752756,235.665363 C750.355663,235.665363 707.879307,193.200454 707.879307,140.817484 C707.879307,88.4345129 750.355663,45.9696045 802.752756,45.9696045 C855.149849,45.9696045 897.626206,88.4345129 897.626206,140.817484" id="Fill-21" fill="#FEFEFE"></path>
                    <path d="M1024.00244,177.105162 C1024.00244,229.488133 981.526082,271.953041 929.128989,271.953041 C876.731896,271.953041 834.255539,229.488133 834.255539,177.105162 C834.255539,124.722192 876.731896,82.2572832 929.128989,82.2572832 C981.526082,82.2572832 1024.00244,124.722192 1024.00244,177.105162" id="Fill-23" fill="#FEFEFE"></path>
                    <g id="Group-27" transform="translate(979.686724, 49.726073)">
                        <mask id="mask-6" fill="white">
                            <use xlink:href="#path-5"></use>
                        </mask>
                        <g id="Clip-26"></g>
                        <path d="M117.840494,58.731752 C117.840494,91.1354556 91.5658452,117.403023 59.1534058,117.403023 C26.7409664,117.403023 0.464306096,91.1354556 0.464306096,58.731752 C0.464306096,26.3280484 26.7409664,0.0604808371 59.1534058,0.0604808371 C91.5658452,0.0604808371 117.840494,26.3280484 117.840494,58.731752" id="Fill-25" fill="#FEFEFE" mask="url(#mask-6)"></path>
                    </g>
                </g>
                <g id="Group-28-Copy" transform="translate(946.000000, 0.000000)">
                    <path d="M177.694622,137.943318 C177.694622,186.988987 137.916082,226.747986 88.8463066,226.747986 C39.7785401,226.747986 0,186.988987 0,137.943318 C0,88.8976482 39.7785401,49.1386496 88.8463066,49.1386496 C137.916082,49.1386496 177.694622,88.8976482 177.694622,137.943318" id="Fill-1" fill="#FEFEFE"></path>
                    <path d="M284.495535,91.0102806 C284.495535,140.05595 244.716995,179.814949 195.647219,179.814949 C146.579453,179.814949 106.800913,140.05595 106.800913,91.0102806 C106.800913,41.9646113 146.579453,2.20561267 195.647219,2.20561267 C244.716995,2.20561267 284.495535,41.9646113 284.495535,91.0102806" id="Fill-3" fill="#FEFEFE"></path>
                    <g id="Group-7" transform="translate(97.411407, 91.287858)">
                        <mask id="mask-8" fill="white">
                            <use xlink:href="#path-7"></use>
                        </mask>
                        <g id="Clip-6"></g>
                        <path d="M178.6844,89.0755177 C178.6844,138.072864 138.779354,177.792689 89.5535243,177.792689 C40.3297099,177.792689 0.424663978,138.072864 0.424663978,89.0755177 C0.424663978,40.0781716 40.3297099,0.358346417 89.5535243,0.358346417 C138.779354,0.358346417 178.6844,40.0781716 178.6844,89.0755177" id="Fill-5" fill="#FEFEFE" mask="url(#mask-8)"></path>
                    </g>
                    <path d="M384.851565,157.268686 C384.851565,206.314355 345.073025,246.073354 296.003249,246.073354 C246.935483,246.073354 207.156943,206.314355 207.156943,157.268686 C207.156943,108.223016 246.935483,68.4640178 296.003249,68.4640178 C345.073025,68.4640178 384.851565,108.223016 384.851565,157.268686" id="Fill-8" fill="#FEFEFE"></path>
                    <path d="M385.723892,122.771048 C385.723892,164.193346 352.129233,197.771881 310.687044,197.771881 C269.244855,197.771881 235.650196,164.193346 235.650196,122.771048 C235.650196,81.3487494 269.244855,47.7702139 310.687044,47.7702139 C352.129233,47.7702139 385.723892,81.3487494 385.723892,122.771048" id="Fill-10" fill="#FEFEFE"></path>
                    <path d="M498.3662,98.7527091 C498.3662,137.886341 466.626931,169.612392 427.472491,169.612392 C388.320067,169.612392 356.578781,137.886341 356.578781,98.7527091 C356.578781,59.6190767 388.320067,27.8930258 427.472491,27.8930258 C466.626931,27.8930258 498.3662,59.6190767 498.3662,98.7527091" id="Fill-12" fill="#FEFEFE"></path>
                    <g id="Group-16" transform="translate(423.338330, 0.182551)">
                        <mask id="mask-10" fill="white">
                            <use xlink:href="#path-9"></use>
                        </mask>
                        <g id="Clip-15"></g>
                    </g>
                    <path d="M775.227315,146.225618 C775.227315,195.271288 735.448775,235.030286 686.378999,235.030286 C637.311233,235.030286 597.532693,195.271288 597.532693,146.225618 C597.532693,97.1799488 637.311233,57.4209503 686.378999,57.4209503 C735.448775,57.4209503 775.227315,97.1799488 775.227315,146.225618" id="Fill-17" fill="#FEFEFE"></path>
                    <path d="M684.109192,118.617949 C684.109192,160.548513 650.102345,194.539039 608.151646,194.539039 C566.20296,194.539039 532.194101,160.548513 532.194101,118.617949 C532.194101,76.6873855 566.20296,42.6968602 608.151646,42.6968602 C650.102345,42.6968602 684.109192,76.6873855 684.109192,118.617949" id="Fill-19" fill="#FEFEFE"></path>
                    <path d="M573.151646,108.617949 C573.151646,136.78481 550.318507,159.617949 522.151646,159.617949 C493.986137,159.617949 471.151646,136.78481 471.151646,108.617949 C471.151646,80.4510885 493.986137,57.6179494 522.151646,57.6179494 C550.318507,57.6179494 573.151646,80.4510885 573.151646,108.617949" id="Fill-19" fill="#FEFEFE"></path>
                    <path d="M891.235203,99.7527091 C891.235203,152.101687 848.777473,194.539039 796.403358,194.539039 C744.029243,194.539039 701.571513,152.101687 701.571513,99.7527091 C701.571513,47.4037312 744.029243,4.96637955 796.403358,4.96637955 C848.777473,4.96637955 891.235203,47.4037312 891.235203,99.7527091" id="Fill-21" fill="#FEFEFE"></path>
                    <path d="M1038.54681,147.03501 C1038.54681,199.383988 996.089077,241.821339 943.714962,241.821339 C891.340846,241.821339 848.883117,199.383988 848.883117,147.03501 C848.883117,94.6860319 891.340846,52.2486802 943.714962,52.2486802 C996.089077,52.2486802 1038.54681,94.6860319 1038.54681,147.03501" id="Fill-23" fill="#FEFEFE"></path>
                    <g id="Group-27" transform="translate(979.257103, 49.693804)">
                        <mask id="mask-12" fill="white">
                            <use xlink:href="#path-11"></use>
                        </mask>
                        <g id="Clip-26"></g>
                        <path d="M117.788818,58.6936393 C117.788818,91.0763151 91.525691,117.326837 59.1274654,117.326837 C26.7292397,117.326837 0.464102485,91.0763151 0.464102485,58.6936393 C0.464102485,26.3109634 26.7292397,0.0604415893 59.1274654,0.0604415893 C91.525691,0.0604415893 117.788818,26.3109634 117.788818,58.6936393" id="Fill-25" fill="#FEFEFE" mask="url(#mask-12)"></path>
                    </g>
                </g>
            </g>
        </g>
    </g>
</svg>