<?xml version="1.0" encoding="UTF-8"?>
<svg width="3462px" height="460px" viewBox="0 0 3462 460" version="1.1" xmlns="http://www.w3.org/2000/svg" xmlns:xlink="http://www.w3.org/1999/xlink">
    <title>Group 41</title>
    <defs>
        <polygon id="path-1" points="0.507590871 0.428688492 213.577263 0.428688492 213.577263 212.691775 0.507590871 212.691775"></polygon>
        <polygon id="path-3" points="0.171171484 0.0379769498 169.132366 0.0379769498 169.132366 169.061683 0.171171484 169.061683"></polygon>
        <polygon id="path-5" points="0.554730792 0.0723060495 140.789485 0.0723060495 140.789485 140.35766 0.554730792 140.35766"></polygon>
        <polygon id="path-7" points="0.507590871 0.428688492 213.577263 0.428688492 213.577263 212.691775 0.507590871 212.691775"></polygon>
        <polygon id="path-9" points="0.171171484 0.0379769498 169.132366 0.0379769498 169.132366 169.061683 0.171171484 169.061683"></polygon>
        <polygon id="path-11" points="0.554730792 0.0723060495 140.789485 0.0723060495 140.789485 140.35766 0.554730792 140.35766"></polygon>
    </defs>
    <g id="Page-1" stroke="none" stroke-width="1" fill="none" fill-rule="evenodd">
        <g id="Desktop-HD" transform="translate(1011.000000, -4839.000000)">
            <g id="Group-41" transform="translate(-1011.000000, 4839.000000)">
                <g id="Group-31" transform="translate(2621.053034, 229.752690) rotate(20.000000) translate(-2621.053034, -229.752690) translate(2371.053034, 76.752690)" fill="#FFFFFF">
                    <path d="M175.767918,218.428255 C175.767918,266.494535 136.419681,305.460751 87.8821622,305.460751 C39.3482372,305.460751 0,266.494535 0,218.428255 C0,170.365533 39.3482372,131.399317 87.8821622,131.399317 C136.419681,131.399317 175.767918,170.365533 175.767918,218.428255" id="Fill-46"></path>
                    <path d="M98.9761092,173.209986 C98.9761092,207.607729 126.862458,235.494881 161.262799,235.494881 C195.66314,235.494881 223.549488,207.607729 223.549488,173.209986 C223.549488,138.808654 195.66314,110.921502 161.262799,110.921502 C126.862458,110.921502 98.9761092,138.808654 98.9761092,173.209986" id="Fill-47"></path>
                    <path d="M186.006826,191.12628 C186.006826,154.371042 215.804489,124.573379 252.559727,124.573379 C289.314965,124.573379 319.112628,154.371042 319.112628,191.12628 C319.112628,227.881518 289.314965,257.679181 252.559727,257.679181 C215.804489,257.679181 186.006826,227.881518 186.006826,191.12628" id="Fill-48"></path>
                    <path d="M269.624573,127.134867 C269.624573,160.117546 296.364363,186.860068 329.351536,186.860068 C362.338709,186.860068 389.078498,160.117546 389.078498,127.134867 C389.078498,94.1486658 362.338709,67.4061433 329.351536,67.4061433 C296.364363,67.4061433 269.624573,94.1486658 269.624573,127.134867" id="Fill-55"></path>
                    <path d="M349.829352,75.0853242 C349.829352,33.6172427 383.446594,0 424.914676,0 C466.382757,0 500,33.6172427 500,75.0853242 C500,116.553406 466.382757,150.170648 424.914676,150.170648 C383.446594,150.170648 349.829352,116.553406 349.829352,75.0853242" id="Fill-56"></path>
                </g>
                <g id="Group-31" transform="translate(3228.306455, 224.959054) rotate(20.000000) translate(-3228.306455, -224.959054) translate(3027.306455, 95.959054)" fill="#FFFFFF">
                    <path d="M0.976109215,173.209986 C0.976109215,207.607729 28.8624576,235.494881 63.2627986,235.494881 C97.6631396,235.494881 125.549488,207.607729 125.549488,173.209986 C125.549488,138.808654 97.6631396,110.921502 63.2627986,110.921502 C28.8624576,110.921502 0.976109215,138.808654 0.976109215,173.209986" id="Fill-47"></path>
                    <path d="M88.0068259,191.12628 C88.0068259,154.371042 117.804489,124.573379 154.559727,124.573379 C191.314965,124.573379 221.112628,154.371042 221.112628,191.12628 C221.112628,227.881518 191.314965,257.679181 154.559727,257.679181 C117.804489,257.679181 88.0068259,227.881518 88.0068259,191.12628" id="Fill-48"></path>
                    <path d="M171.624573,127.134867 C171.624573,160.117546 198.364363,186.860068 231.351536,186.860068 C264.338709,186.860068 291.078498,160.117546 291.078498,127.134867 C291.078498,94.1486658 264.338709,67.4061433 231.351536,67.4061433 C198.364363,67.4061433 171.624573,94.1486658 171.624573,127.134867" id="Fill-55"></path>
                    <path d="M251.829352,75.0853242 C251.829352,33.6172427 285.446594,-2.27373675e-13 326.914676,-2.27373675e-13 C368.382757,-2.27373675e-13 402,33.6172427 402,75.0853242 C402,116.553406 368.382757,150.170648 326.914676,150.170648 C285.446594,150.170648 251.829352,116.553406 251.829352,75.0853242" id="Fill-56"></path>
                </g>
                <g id="Group" transform="translate(0.000000, 136.000000)">
                    <g id="Group-28">
                        <path d="M212.394205,165.02108 C212.394205,223.694233 164.847851,271.257775 106.195902,271.257775 C47.546354,271.257775 0,223.694233 0,165.02108 C0,106.347927 47.546354,58.7843846 106.195902,58.7843846 C164.847851,58.7843846 212.394205,106.347927 212.394205,165.02108" id="Fill-1" fill="#FEFEFE"></path>
                        <path d="M340.050826,108.875262 C340.050826,167.548414 292.504471,215.111957 233.852522,215.111957 C175.202975,215.111957 127.656621,167.548414 127.656621,108.875262 C127.656621,50.202109 175.202975,2.63856627 233.852522,2.63856627 C292.504471,2.63856627 340.050826,50.202109 340.050826,108.875262" id="Fill-3" fill="#FEFEFE"></path>
                        <g id="Group-7" transform="translate(116.433565, 109.207326)">
                            <mask id="mask-2" fill="white">
                                <use xlink:href="#path-1"></use>
                            </mask>
                            <g id="Clip-6"></g>
                            <path d="M213.577263,106.560712 C213.577263,165.176056 165.8797,212.692735 107.041223,212.692735 C48.2051543,212.692735 0.507590871,165.176056 0.507590871,106.560712 C0.507590871,47.9453683 48.2051543,0.428688492 107.041223,0.428688492 C165.8797,0.428688492 213.577263,47.9453683 213.577263,106.560712" id="Fill-5" fill="#FEFEFE" mask="url(#mask-2)"></path>
                        </g>
                        <path d="M460.004029,188.139946 C460.004029,246.813099 412.457675,294.376642 353.805726,294.376642 C295.156178,294.376642 247.609824,246.813099 247.609824,188.139946 C247.609824,129.466794 295.156178,81.9032509 353.805726,81.9032509 C412.457675,81.9032509 460.004029,129.466794 460.004029,188.139946" id="Fill-8" fill="#FEFEFE"></path>
                        <path d="M447.89866,112.177957 C447.89866,161.731299 407.743753,201.901176 358.208879,201.901176 C308.674005,201.901176 268.519098,161.731299 268.519098,112.177957 C268.519098,62.624615 308.674005,22.4547374 358.208879,22.4547374 C407.743753,22.4547374 447.89866,62.624615 447.89866,112.177957" id="Fill-10" fill="#FEFEFE"></path>
                        <path d="M577.756257,119.333796 C577.756257,166.149216 539.819054,204.102973 493.018673,204.102973 C446.220701,204.102973 408.281088,166.149216 408.281088,119.333796 C408.281088,72.518377 446.220701,34.5646198 493.018673,34.5646198 C539.819054,34.5646198 577.756257,72.518377 577.756257,119.333796" id="Fill-12" fill="#FEFEFE"></path>
                        <g id="Group-16" transform="translate(506.006355, 0.218385)">
                            <mask id="mask-4" fill="white">
                                <use xlink:href="#path-3"></use>
                            </mask>
                            <g id="Clip-15"></g>
                            <path d="M169.132366,84.5495899 C169.132366,131.22303 131.310217,169.061683 84.6517686,169.061683 C37.9957228,169.061683 0.171171484,131.22303 0.171171484,84.5495899 C0.171171484,37.8761495 37.9957228,0.0374962758 84.6517686,0.0374962758 C131.310217,0.0374962758 169.132366,37.8761495 169.132366,84.5495899" id="Fill-14" fill="#FEFEFE" mask="url(#mask-4)"></path>
                        </g>
                        <path d="M926.610987,174.929166 C926.610987,233.602318 879.064633,281.165861 820.412684,281.165861 C761.763136,281.165861 714.216782,233.602318 714.216782,174.929166 C714.216782,116.256013 761.763136,68.6924701 820.412684,68.6924701 C879.064633,68.6924701 926.610987,116.256013 926.610987,174.929166" id="Fill-17" fill="#FEFEFE"></path>
                        <path d="M803.356319,141.902214 C803.356319,192.063592 762.708734,232.726331 712.56605,232.726331 C662.425771,232.726331 621.775781,192.063592 621.775781,141.902214 C621.775781,91.7408352 662.425771,51.0780958 712.56605,51.0780958 C762.708734,51.0780958 803.356319,91.7408352 803.356319,141.902214" id="Fill-19" fill="#FEFEFE"></path>
                        <path d="M1065.27249,119.333796 C1065.27249,181.958685 1014.52376,232.726331 951.922214,232.726331 C889.320665,232.726331 838.571939,181.958685 838.571939,119.333796 C838.571939,56.7089081 889.320665,5.94126146 951.922214,5.94126146 C1014.52376,5.94126146 1065.27249,56.7089081 1065.27249,119.333796" id="Fill-21" fill="#FEFEFE"></path>
                        <path d="M1241.35059,129.241882 C1241.35059,191.86677 1190.60186,242.634417 1128.00031,242.634417 C1065.39876,242.634417 1014.65004,191.86677 1014.65004,129.241882 C1014.65004,66.6169937 1065.39876,15.849347 1128.00031,15.849347 C1190.60186,15.849347 1241.35059,66.6169937 1241.35059,129.241882" id="Fill-23" fill="#FEFEFE"></path>
                        <g id="Group-27" transform="translate(1170.482998, 59.448513)">
                            <mask id="mask-6" fill="white">
                                <use xlink:href="#path-5"></use>
                            </mask>
                            <g id="Clip-26"></g>
                            <path d="M140.790206,70.2149833 C140.790206,108.954258 109.398507,140.35766 70.6736695,140.35766 C31.9488319,140.35766 0.554730792,108.954258 0.554730792,70.2149833 C0.554730792,31.4757081 31.9488319,0.0723060495 70.6736695,0.0723060495 C109.398507,0.0723060495 140.790206,31.4757081 140.790206,70.2149833" id="Fill-25" fill="#FEFEFE" mask="url(#mask-6)"></path>
                        </g>
                    </g>
                    <g id="Group-28-Copy" transform="translate(1133.000000, 0.000000)">
                        <path d="M212.394205,165.02108 C212.394205,223.694233 164.847851,271.257775 106.195902,271.257775 C47.546354,271.257775 0,223.694233 0,165.02108 C0,106.347927 47.546354,58.7843846 106.195902,58.7843846 C164.847851,58.7843846 212.394205,106.347927 212.394205,165.02108" id="Fill-1" fill="#FEFEFE"></path>
                        <path d="M340.050826,108.875262 C340.050826,167.548414 292.504471,215.111957 233.852522,215.111957 C175.202975,215.111957 127.656621,167.548414 127.656621,108.875262 C127.656621,50.202109 175.202975,2.63856627 233.852522,2.63856627 C292.504471,2.63856627 340.050826,50.202109 340.050826,108.875262" id="Fill-3" fill="#FEFEFE"></path>
                        <g id="Group-7" transform="translate(116.433565, 109.207326)">
                            <mask id="mask-8" fill="white">
                                <use xlink:href="#path-7"></use>
                            </mask>
                            <g id="Clip-6"></g>
                            <path d="M213.577263,106.560712 C213.577263,165.176056 165.8797,212.692735 107.041223,212.692735 C48.2051543,212.692735 0.507590871,165.176056 0.507590871,106.560712 C0.507590871,47.9453683 48.2051543,0.428688492 107.041223,0.428688492 C165.8797,0.428688492 213.577263,47.9453683 213.577263,106.560712" id="Fill-5" fill="#FEFEFE" mask="url(#mask-8)"></path>
                        </g>
                        <path d="M460.004029,188.139946 C460.004029,246.813099 412.457675,294.376642 353.805726,294.376642 C295.156178,294.376642 247.609824,246.813099 247.609824,188.139946 C247.609824,129.466794 295.156178,81.9032509 353.805726,81.9032509 C412.457675,81.9032509 460.004029,129.466794 460.004029,188.139946" id="Fill-8" fill="#FEFEFE"></path>
                        <path d="M447.89866,112.177957 C447.89866,161.731299 407.743753,201.901176 358.208879,201.901176 C308.674005,201.901176 268.519098,161.731299 268.519098,112.177957 C268.519098,62.624615 308.674005,22.4547374 358.208879,22.4547374 C407.743753,22.4547374 447.89866,62.624615 447.89866,112.177957" id="Fill-10" fill="#FEFEFE"></path>
                        <path d="M577.756257,119.333796 C577.756257,166.149216 539.819054,204.102973 493.018673,204.102973 C446.220701,204.102973 408.281088,166.149216 408.281088,119.333796 C408.281088,72.518377 446.220701,34.5646198 493.018673,34.5646198 C539.819054,34.5646198 577.756257,72.518377 577.756257,119.333796" id="Fill-12" fill="#FEFEFE"></path>
                        <g id="Group-16" transform="translate(506.006355, 0.218385)">
                            <mask id="mask-10" fill="white">
                                <use xlink:href="#path-9"></use>
                            </mask>
                            <g id="Clip-15"></g>
                            <path d="M169.132366,84.5495899 C169.132366,131.22303 131.310217,169.061683 84.6517686,169.061683 C37.9957228,169.061683 0.171171484,131.22303 0.171171484,84.5495899 C0.171171484,37.8761495 37.9957228,0.0374962758 84.6517686,0.0374962758 C131.310217,0.0374962758 169.132366,37.8761495 169.132366,84.5495899" id="Fill-14" fill="#FEFEFE" mask="url(#mask-10)"></path>
                        </g>
                        <path d="M926.610987,174.929166 C926.610987,233.602318 879.064633,281.165861 820.412684,281.165861 C761.763136,281.165861 714.216782,233.602318 714.216782,174.929166 C714.216782,116.256013 761.763136,68.6924701 820.412684,68.6924701 C879.064633,68.6924701 926.610987,116.256013 926.610987,174.929166" id="Fill-17" fill="#FEFEFE"></path>
                        <path d="M803.356319,141.902214 C803.356319,192.063592 762.708734,232.726331 712.56605,232.726331 C662.425771,232.726331 621.775781,192.063592 621.775781,141.902214 C621.775781,91.7408352 662.425771,51.0780958 712.56605,51.0780958 C762.708734,51.0780958 803.356319,91.7408352 803.356319,141.902214" id="Fill-19" fill="#FEFEFE"></path>
                        <path d="M1086.27249,119.333796 C1086.27249,181.958685 1035.52376,232.726331 972.922214,232.726331 C910.320665,232.726331 859.571939,181.958685 859.571939,119.333796 C859.571939,56.7089081 910.320665,5.94126146 972.922214,5.94126146 C1035.52376,5.94126146 1086.27249,56.7089081 1086.27249,119.333796" id="Fill-21" fill="#FEFEFE"></path>
                        <path d="M1241.35059,129.241882 C1241.35059,191.86677 1190.60186,242.634417 1128.00031,242.634417 C1065.39876,242.634417 1014.65004,191.86677 1014.65004,129.241882 C1014.65004,66.6169937 1065.39876,15.849347 1128.00031,15.849347 C1190.60186,15.849347 1241.35059,66.6169937 1241.35059,129.241882" id="Fill-23" fill="#FEFEFE"></path>
                        <g id="Group-27" transform="translate(1170.482998, 59.448513)">
                            <mask id="mask-12" fill="white">
                                <use xlink:href="#path-11"></use>
                            </mask>
                            <g id="Clip-26"></g>
                            <path d="M140.790206,70.2149833 C140.790206,108.954258 109.398507,140.35766 70.6736695,140.35766 C31.9488319,140.35766 0.554730792,108.954258 0.554730792,70.2149833 C0.554730792,31.4757081 31.9488319,0.0723060495 70.6736695,0.0723060495 C109.398507,0.0723060495 140.790206,31.4757081 140.790206,70.2149833" id="Fill-25" fill="#FEFEFE" mask="url(#mask-12)"></path>
                        </g>
                    </g>
                </g>
            </g>
        </g>
    </g>
</svg>