<?xml version="1.0" encoding="UTF-8"?>
<svg width="1440px" height="549px" viewBox="0 0 1440 549" version="1.1" xmlns="http://www.w3.org/2000/svg" xmlns:xlink="http://www.w3.org/1999/xlink">
    <title>Group 53</title>
    <g id="Page-1" stroke="none" stroke-width="1" fill="none" fill-rule="evenodd">
        <g id="Desktop-HD" transform="translate(0.000000, -2156.000000)">
            <g id="Group-53" transform="translate(0.000000, 2156.000000)">
                <g id="Group-34" fill="#121212" font-family="Helvetica" font-size="36" font-weight="normal">
                    <text id="How-does-Rocket-Pool">
                        <tspan x="484.892578" y="35">How does Rocket Pool work?</tspan>
                    </text>
                </g>
                <g id="Group-50" transform="translate(204.000000, 111.000000)">
                    <text id="Innovative-liquid-st" font-family="Helvetica" font-size="15" font-weight="normal" line-spacing="23" fill="#575757">
                        <tspan x="74" y="50">Innovative liquid staking token that accrues while using an </tspan>
                        <tspan x="74" y="73">increasing exchange rate, rather than rebasing which is better </tspan>
                        <tspan x="74" y="96">for DeFi and better for tax reporting</tspan>
                    </text>
                    <text id="Liquid-Staking" font-family="Helvetica" font-size="18" font-weight="normal" fill="#121212">
                        <tspan x="74" y="18">Liquid Staking</tspan>
                    </text>
                    <text id="With-our-custom-node" font-family="Helvetica" font-size="15" font-weight="normal" line-spacing="23" fill="#575757">
                        <tspan x="74" y="211">With our custom node software any user/business/group can </tspan>
                        <tspan x="74" y="234">run a node on our network, stake their own ETH for free and </tspan>
                        <tspan x="74" y="257">generate a higher return.</tspan>
                    </text>
                    <text id="Smart-Nodes" font-family="Helvetica" font-size="18" font-weight="normal" fill="#121212">
                        <tspan x="74" y="179">Smart Nodes</tspan>
                    </text>
                    <text id="Network-redundancy-a" font-family="Helvetica" font-size="15" font-weight="normal" line-spacing="23" fill="#575757">
                        <tspan x="74" y="370">Network redundancy and decentralisation are key pillars of the </tspan>
                        <tspan x="74" y="393">Rocket Pool network. Any potential issues and their effects are </tspan>
                        <tspan x="74" y="416">minimised using this technique.</tspan>
                    </text>
                    <text id="Infrastructure" font-family="Helvetica" font-size="18" font-weight="normal" fill="#121212">
                        <tspan x="74" y="338">Infrastructure </tspan>
                    </text>
                    <text id="Open-source,-audited" font-family="Helvetica" font-size="15" font-weight="normal" line-spacing="23" fill="#575757">
                        <tspan x="612" y="50">Open source, audited smart contracts ensure funds are never </tspan>
                        <tspan x="612" y="73">in the custody of node operators.</tspan>
                    </text>
                    <text id="Smart-Contracts" font-family="Helvetica" font-size="18" font-weight="normal" fill="#121212">
                        <tspan x="612" y="18">Smart Contracts</tspan>
                    </text>
                    <text id="Any-losses-that-occu" font-family="Helvetica" font-size="15" font-weight="normal" line-spacing="23" fill="#575757">
                        <tspan x="612" y="211">Any losses that occur from bad nodes for stakers who deposit </tspan>
                        <tspan x="612" y="234">ETH are socialised across the whole network to minimise </tspan>
                        <tspan x="612" y="257">impacts on any single user.</tspan>
                    </text>
                    <text id="Minimised-Penalty-Ri" font-family="Helvetica" font-size="18" font-weight="normal" fill="#121212">
                        <tspan x="612" y="179">Minimised Penalty Risk</tspan>
                    </text>
                    <text id="Rocket-Pool-was-orig" font-family="Helvetica" font-size="15" font-weight="normal" line-spacing="23" fill="#575757">
                        <tspan x="612" y="370">Rocket Pool was originally designed in late 2016 using the </tspan>
                        <tspan x="612" y="393">Mauve Paper which was released by Vitalik. We've been in the </tspan>
                        <tspan x="612" y="416">space now longer than most, and it shows.</tspan>
                    </text>
                    <text id="Experience" font-family="Helvetica" font-size="18" font-weight="normal" fill="#121212">
                        <tspan x="612" y="338">Experience</tspan>
                    </text>
                    <g id="droplet-solid" transform="translate(6.000000, 17.000000)" fill-rule="nonzero">
                        <path d="M0,40.0269886 C0,30.6690341 13.078125,10.665767 19.2911932,1.70028409 C20.8636364,-0.564417614 24.1363636,-0.564417614 25.7088068,1.70028409 C31.921875,10.665767 45,30.6690341 45,40.0269886 C45,52.5681818 34.9261364,62.6420455 22.5,62.6420455 C10.0738636,62.6420455 0,52.5681818 0,40.0269886 Z" id="Shape" fill="#FF990F" opacity="0.4"></path>
                        <g id="ethereum-brands" transform="translate(11.250000, 14.850000)" fill="#4D4D4D">
                            <path d="M22.4925987,19.3026316 L11.25,26.1710526 L0,19.3026316 L11.25,2.23820962e-14 L22.4925987,19.3026316 Z M11.25,28.3766447 L0,21.5082237 L11.25,37.8947368 L22.5,21.5082237 L11.25,28.3766447 L11.25,28.3766447 Z" id="Shape"></path>
                        </g>
                    </g>
                    <g id="chart-network-duotone-(1)" transform="translate(4.000000, 339.000000)" fill-rule="nonzero">
                        <path d="M12.5,5 C12.5,2.23828125 14.7421875,0 17.5,0 C20.2578125,0 22.5,2.23828125 22.5,5 C22.5,7.76171875 20.2578125,10 17.5,10 C14.7421875,10 12.5,7.76171875 12.5,5 Z M40,10 C40,7.23828125 42.2421875,5 45,5 C47.7578125,5 50,7.23828125 50,10 C50,12.7578125 47.7578125,15 45,15 C42.2421875,15 40,12.7578125 40,10 Z M50,35 C50,37.7578125 47.7578125,40 45,40 C42.2421875,40 40,37.7578125 40,35 C40,32.2421875 42.2421875,30 45,30 C47.7578125,30 50,32.2421875 50,35 Z M0,23.75 C0,20.9921875 2.23828125,18.75 5,18.75 C7.76171875,18.75 10,20.9921875 10,23.75 C10,26.5078125 7.76171875,28.75 5,28.75 C2.23828125,28.75 0,26.5078125 0,23.75 Z" id="Shape" fill="#4D4D4D"></path>
                        <path d="M23.875,12.75 C24.640625,12.5859375 25.4375,12.4296875 26.25,12.4296875 C29.0703125,12.4296875 31.640625,13.5390625 33.6171875,15.25 L40.03125,10.4765625 C40.2265625,12.3515625 41.3828125,13.875 42.984375,14.578125 L36.578125,19.28125 C37.171875,20.6484375 37.5,22.1640625 37.5,23.6796875 C37.5,24.96875 37.3046875,26.1484375 36.9453125,27.25 L42.5703125,30.625 C41.0625,31.46875 40.03125,33.0703125 40,34.9140625 L34.3671875,31.5390625 C32.3203125,33.6015625 29.4375,35 26.25,35 C20.8984375,35 16.4140625,31.2578125 15.28125,26.25 L9.328125,26.25 C9.7578125,25.515625 10,24.6640625 10,23.75 C10,22.8359375 9.7578125,21.984375 9.328125,21.1796875 L15.28125,21.1796875 C15.859375,18.671875 17.328125,16.4375 19.34375,14.8671875 L17.0625,9.984375 C17.2109375,9.9921875 17.3515625,10 17.5,10 C19.1953125,10 20.6953125,9.15625 21.59375,7.8671875 L23.875,12.75 Z M26.25,30 C29.703125,30 32.5,27.203125 32.5,23.6796875 C32.5,20.296875 29.703125,17.4296875 26.25,17.4296875 C22.796875,17.4296875 19.9296875,20.296875 19.9296875,23.6796875 C19.9296875,27.203125 22.796875,30 26.25,30 Z" id="Shape" fill="#FF990F" opacity="0.4"></path>
                    </g>
                    <g id="code-commit-duotone" transform="translate(29.676777, 204.926777) rotate(-45.000000) translate(-29.676777, -204.926777) translate(2.176777, 190.926777)" fill-rule="nonzero">
                        <path d="M13.75,13.75 C13.75,6.153125 19.903125,0 27.5,0 C35.096875,0 41.25,6.153125 41.25,13.75 C41.25,21.346875 35.096875,27.5 27.5,27.5 C19.903125,27.5 13.75,21.346875 13.75,13.75 Z M27.5,20.625 C31.2984375,20.625 34.375,17.5484375 34.375,13.75 C34.375,9.9515625 31.2984375,6.875 27.5,6.875 C23.7015625,6.875 20.625,9.9515625 20.625,13.75 C20.625,17.5484375 23.7015625,20.625 27.5,20.625 Z" id="Shape" fill="#4D4D4D"></path>
                        <path d="M40.975,16.5 C41.1554687,15.6148437 41.25,14.6179688 41.25,13.75 C41.25,12.8046875 41.1554687,11.8851563 40.975,11 L52.25,11 C53.7710938,11 55,12.2289063 55,13.75 C55,15.2710937 53.7710938,16.5 52.25,16.5 L40.975,16.5 Z M14.025,16.5 L2.75,16.5 C1.23148438,16.5 0,15.2710937 0,13.75 C0,12.2289063 1.23148438,11 2.75,11 L14.025,11 C13.8445313,11.8851563 13.75,12.8046875 13.75,13.75 C13.75,14.6179688 13.8445313,15.6148437 14.025,16.5 Z" id="Shape" fill="#FF990F" opacity="0.4"></path>
                    </g>
                    <g id="file-contract-duotone" transform="translate(552.000000, 19.000000)" fill-rule="nonzero">
                        <path d="M26.6666667,0 L26.6666667,13.3333333 L40,13.3333333 L26.6666667,0 Z M31.6666667,40 L26.7447917,40 C26.3151042,40 25.8984375,39.7395833 25.690625,39.3229167 C24.453125,36.8354167 20.8729167,36.1583333 18.815625,37.8520833 L17.3697917,33.515625 C17.03125,32.4895833 16.0833333,31.8020833 15,31.8020833 C13.9166667,31.8020833 12.96875,32.4921875 12.6302083,33.5208333 L10.7291667,39.2083333 C10.5729167,39.6770833 10.1302083,40 9.62291667,40 L8.33333333,40 C7.409375,40 6.66666667,40.7395833 6.66666667,41.6666667 C6.66666667,42.59375 7.409375,43.3333333 8.33333333,43.3333333 L9.62291667,43.3333333 C11.5625,43.3333333 13.2822917,42.0958333 13.89375,40.2604167 L15,36.9375 L16.7604167,42.1875 C16.96875,42.8385417 17.5416667,43.28125 18.21875,43.3333333 L18.3333333,43.3333333 C18.9582292,43.3333333 19.54375,42.9817708 19.8177083,42.4088542 L20.625,40.8067708 C20.9115625,40.2338542 21.4453125,40.16875 21.6666667,40.16875 C21.8880208,40.16875 22.421875,40.2338542 22.7208333,40.8458333 C23.4895833,42.3854167 25.0416667,43.3333333 26.75,43.3333333 L31.6666667,43.3333333 C32.5911458,43.3333333 33.3333333,42.5911458 33.3333333,41.6666667 C33.3333333,40.7421875 32.59375,40 31.6666667,40 Z" id="Shape" fill="#4D4D4D"></path>
                        <path d="M26.6666667,0 L5,0 C2.23854167,0 0,2.23854167 0,5 L0,48.3333333 C0,51.09375 2.23854167,53.3333333 5,53.3333333 L35,53.3333333 C37.7614583,53.3333333 40,51.0947917 40,48.3333333 L40,13.3333333 L26.6666667,13.3333333 L26.6666667,0 Z M6.66666667,7.5 C6.66666667,7.04479167 7.04479167,6.66666667 7.5,6.66666667 L15.8333333,6.66666667 C16.2916667,6.66666667 16.6666667,7.04479167 16.6666667,7.5 L16.6666667,9.16666667 C16.6666667,9.62291667 16.2916667,10 15.8333333,10 L7.5,10 C7.04479167,10 6.66666667,9.62291667 6.66666667,9.16666667 L6.66666667,7.5 Z M6.66666667,14.1666667 C6.66666667,13.7083333 7.04479167,13.3333333 7.5,13.3333333 L15.8333333,13.3333333 C16.2916667,13.3333333 16.6666667,13.7083333 16.6666667,14.1666667 L16.6666667,15.8333333 C16.6666667,16.2916667 16.2916667,16.6666667 15.8333333,16.6666667 L7.5,16.6666667 C7.04479167,16.6666667 6.66666667,16.2916667 6.66666667,15.8333333 L6.66666667,14.1666667 Z M25.6875,39.3229167 C25.8958333,39.7395833 26.3125,40 26.7416667,40 L31.6666667,40 C32.5911458,40 33.3333333,40.7421875 33.3333333,41.6666667 C33.3333333,42.5911458 32.59375,43.3333333 31.6666667,43.3333333 L26.7447917,43.3333333 C25.0385417,43.3333333 23.4895833,42.3828125 22.7208333,40.8458333 C22.4213542,40.2338542 21.8875,40.16875 21.6666667,40.16875 C21.4458333,40.16875 20.9114583,40.2338542 20.625,40.8067708 L19.8177083,42.4088542 C19.5416667,42.9791667 18.8645833,43.3333333 18.3333333,43.3333333 L18.21875,43.3333333 C17.5416667,43.28125 16.96875,42.8385417 16.7604167,42.1875 L15,36.9375 L13.8958333,40.2604167 C13.28125,42.09375 11.5625,43.3333333 9.62291667,43.3333333 L8.33333333,43.3333333 C7.409375,43.3333333 6.66666667,42.59375 6.66666667,41.6666667 C6.66666667,40.7395833 7.409375,40 8.33333333,40 L9.62291667,40 C10.1307292,40 10.5734375,39.6744792 10.7291667,39.2057292 L12.6302083,33.5151042 C12.96875,32.4895833 13.9166667,31.8020833 15,31.8020833 C16.0833333,31.8020833 17.03125,32.4921875 17.3697917,33.5208333 L18.815625,37.8572917 C20.875,36.15625 24.4583333,36.8333333 25.6875,39.3229167 Z" id="Shape" fill="#FF990F" opacity="0.4"></path>
                    </g>
                    <g id="graduation-cap-duotone" transform="translate(542.000000, 338.000000)" fill-rule="nonzero">
                        <path d="M50,10 C50,10.8109375 49.4970312,11.5351562 48.7460938,11.8039063 L26.6601563,19.7101563 C25.5875,20.09375 24.4179688,20.09375 23.3453125,19.7101563 L8.453125,14.3828125 C9.5234375,13.1953125 10.8671875,12.3046875 12.578125,11.890625 L25.3046875,8.709375 C25.9760937,8.54210937 26.38125,7.86328125 26.215625,7.19453125 C26.0496094,6.523125 25.3585937,6.109375 24.6992188,6.28515625 L11.9765625,9.46875 C9.484375,10.09375 7.390625,11.546875 5.94296875,13.484375 L1.25390625,11.8046875 C0.50296875,11.53125 0,10.8125 0,10 C0,9.1875 0.50296875,8.46484375 1.25390625,8.19609375 L23.3398438,0.28984375 C24.4125,-0.09375 25.5820312,-0.09375 26.6546875,0.28984375 L48.740625,8.19609375 C49.5,8.46875 50,9.1875 50,10 Z M27.4296875,22.0625 C26.6953125,22.3515625 25.8515625,22.5 25,22.5 C24.146875,22.5 23.3054688,22.3541406 22.5,22.0660156 L11.15625,18.0078125 L10,29.1640625 C10,32.390625 16.6484375,35 25,35 C33.2109375,35 40,32.390625 40,29.1664062 L38.8453125,18.0023437 L27.4296875,22.0625 Z" id="Shape" fill="#4D4D4D"></path>
                        <path d="M25.3046875,8.7109375 L12.578125,11.890625 C9.5,12.6640625 7.21875,15.078125 6.50625,18.0546875 C7.09609375,18.4453125 7.5,19.1953125 7.5,20 C7.5,20.7775781 7.12390625,21.4445312 6.5671875,21.903125 L8.50703125,33.54375 C8.6328125,34.3046875 8.046875,35 7.27421875,35 L2.72578125,35 C1.95335938,35 1.365625,34.3063281 1.49296875,33.5445312 L3.4328125,21.9039062 C2.87578125,21.4453125 2.5,20.7109375 2.5,20 C2.5,18.965625 3.12867188,18.0773437 4.025,17.6976562 C4.8859375,13.7257812 7.8984375,10.4882812 11.9703125,9.47109375 L24.696875,6.28984375 C25.3560938,6.1140625 26.046875,6.52789062 26.2132813,7.19921875 C26.3828125,7.8671875 25.9765625,8.546875 25.3046875,8.7109375 Z" id="Path" fill="#FF990F" opacity="0.4"></path>
                    </g>
                    <g id="users-slash-duotone" transform="translate(542.000000, 179.000000)" fill-rule="nonzero">
                        <path d="M49.6015625,39.28125 C48.9667969,40.0945313 47.7898437,40.240625 46.9695313,39.5998438 L0.717890625,3.35078125 C-0.097734375,2.71234375 -0.239140625,1.53359375 0.400546875,0.71796875 C0.76921875,0.2465625 1.32109375,0 1.87734375,0 C2.28015625,0 2.68828125,0.130625 3.03203125,0.399140625 L49.2117188,36.5788281 C50.09375,37.2890625 50.2421875,38.46875 49.6015625,39.28125 Z" id="Path" fill="#4D4D4D"></path>
                        <path d="M16,6.34668782 C16,2.84172947 13.1879463,0 9.71608112,0 C7.81519566,0 6.14367324,0.870289568 5,2.21737406 L14.834333,10 C15.5601257,8.97262991 16,7.71439905 16,6.34668782 Z M33,17.3919308 C33,12.7570029 29.3002809,9 24.8040172,9 C21.947745,9 19.4722561,10.4952161 18,12.7360231 L30.9021146,23 C32.1732471,21.5233429 33,19.562536 33,17.3919308 Z M40.5,13 C44.089625,13 47,10.089625 47,6.5 C47,2.910375 44.09125,0 40.5,0 C36.910375,0 34,2.910375 34,6.5 C34,10.089625 36.90875,13 40.5,13 Z M21.1728476,27 C15.0006552,27 10,31.850625 10,37.830625 C10,39.033125 10.9985585,40 12.232997,40 L37.9596383,40 C38.87328,40 39.6532565,39.4651312 40,38.70325 L25.5444896,27 L21.1728476,27 Z M14.5712049,19.1142857 L9.52100221,15 L6.89646279,15 C3.0880619,15 0,18.3589286 0,22.4973214 C0,23.325 0.617534083,24 1.37960575,24 L17,24 C15.8474576,22.6178571 15.0175018,20.9544643 14.5712049,19.1142857 Z M43.1095878,15 L38.2730033,15 C37.2718992,15 36.3271071,15.2440446 35.4683474,15.6621429 C35.5152742,16.0848214 35.5934855,16.4946429 35.5934855,16.9285714 C35.5934855,19.6374107 34.5939455,22.0883036 33,24 L48.6187891,24 C49.382131,24 50,23.325 50,22.4973214 C50,18.3589286 46.9184763,15 43.1095878,15 Z" id="Shape" fill="#FF990F" opacity="0.4"></path>
                    </g>
                </g>
            </g>
        </g>
    </g>
</svg>