<?xml version="1.0" encoding="UTF-8"?>
<svg width="659px" height="581px" viewBox="0 0 659 581" version="1.1" xmlns="http://www.w3.org/2000/svg" xmlns:xlink="http://www.w3.org/1999/xlink">
    <title>Group 43</title>
    <defs>
        <polygon id="path-1" points="0.00321854305 0.34718599 323.997854 0.34718599 323.997854 444.818345 0.00321854305 444.818345"></polygon>
        <polygon id="path-3" points="0.130086957 0.217686168 16.8330435 0.217686168 16.8330435 548.818538 0.130086957 548.818538"></polygon>
        <polygon id="path-5" points="0.224219231 0.0855984753 656.776853 0.0855984753 656.776853 555.818706 0.224219231 555.818706"></polygon>
        <polygon id="path-7" points="0.290501241 0.234751594 431.555136 0.234751594 431.555136 459.818912 0.290501241 459.818912"></polygon>
        <polygon id="path-9" points="0.46112 0.704 20.1224 0.704 20.1224 38.56712 0.46112 38.56712"></polygon>
        <polygon id="path-11" points="0 0.704 19.66136 0.704 19.66136 38.56712 0 38.56712"></polygon>
        <polygon id="path-13" points="0.4632 0.76784 20.1224 0.76784 20.1224 18.76624 0.4632 18.76624"></polygon>
        <filter x="-51.7%" y="-40.5%" width="203.4%" height="181.1%" filterUnits="objectBoundingBox" id="filter-15">
            <feOffset dx="0" dy="2" in="SourceAlpha" result="shadowOffsetOuter1"></feOffset>
            <feGaussianBlur stdDeviation="2" in="shadowOffsetOuter1" result="shadowBlurOuter1"></feGaussianBlur>
            <feColorMatrix values="0 0 0 0 1   0 0 0 0 0.6   0 0 0 0 0.0588235294  0 0 0 1 0" type="matrix" in="shadowBlurOuter1" result="shadowMatrixOuter1"></feColorMatrix>
            <feMerge>
                <feMergeNode in="shadowMatrixOuter1"></feMergeNode>
                <feMergeNode in="SourceGraphic"></feMergeNode>
            </feMerge>
        </filter>
        <polygon id="path-16" points="0 0 23.1056 0 23.1056 29.19592 0 29.19592"></polygon>
        <polygon id="path-18" points="0.23056 0.352 10.0612 0.352 10.0612 19.28356 0.23056 19.28356"></polygon>
        <polygon id="path-20" points="0 0.352 9.83068 0.352 9.83068 19.28356 0 19.28356"></polygon>
        <polygon id="path-22" points="0.2316 0.38392 10.0612 0.38392 10.0612 9.38312 0.2316 9.38312"></polygon>
        <filter x="-103.4%" y="-81.1%" width="306.9%" height="262.2%" filterUnits="objectBoundingBox" id="filter-24">
            <feOffset dx="0" dy="2" in="SourceAlpha" result="shadowOffsetOuter1"></feOffset>
            <feGaussianBlur stdDeviation="2" in="shadowOffsetOuter1" result="shadowBlurOuter1"></feGaussianBlur>
            <feColorMatrix values="0 0 0 0 1   0 0 0 0 0.6   0 0 0 0 0.0588235294  0 0 0 1 0" type="matrix" in="shadowBlurOuter1" result="shadowMatrixOuter1"></feColorMatrix>
            <feMerge>
                <feMergeNode in="shadowMatrixOuter1"></feMergeNode>
                <feMergeNode in="SourceGraphic"></feMergeNode>
            </feMerge>
        </filter>
        <polygon id="path-25" points="0 0 11.5528 0 11.5528 14.59796 0 14.59796"></polygon>
    </defs>
    <g id="Page-1" stroke="none" stroke-width="1" fill="none" fill-rule="evenodd">
        <g id="Group-43" transform="translate(0.334000, 0.000000)">
            <g id="Group-30" transform="translate(0.000000, 22.895000)">
                <g id="Group-25" transform="translate(167.666000, 112.105000)">
                    <mask id="mask-2" fill="white">
                        <use xlink:href="#path-1"></use>
                    </mask>
                    <g id="Clip-4"></g>
                    <path d="M1.25415894,447.05087 C0.563245033,447.05087 0.00321854305,446.488708 0.00321854305,445.796486 L0.00321854305,432.418539 C0.00321854305,431.725242 0.563245033,431.164155 1.25415894,431.164155 C1.9461457,431.164155 2.50617219,431.725242 2.50617219,432.418539 L2.50617219,445.796486 C2.50617219,446.488708 1.9461457,447.05087 1.25415894,447.05087" id="Fill-3" fill="#BA8C41" mask="url(#mask-2)"></path>
                    <path d="M14.5596159,424.916957 C13.8676291,424.916957 13.3076026,424.35587 13.3076026,423.662572 L13.3076026,410.284626 C13.3076026,409.591329 13.8676291,409.030242 14.5596159,409.030242 C15.2505298,409.030242 15.8105563,409.591329 15.8105563,410.284626 L15.8105563,423.662572 C15.8105563,424.35587 15.2505298,424.916957 14.5596159,424.916957 Z M14.5596159,447.316365 C13.8676291,447.316365 13.3076026,446.755278 13.3076026,446.061981 L13.3076026,443.730568 C13.3076026,443.037271 13.8676291,442.476184 14.5596159,442.476184 C15.2505298,442.476184 15.8105563,443.037271 15.8105563,443.730568 L15.8105563,446.061981 C15.8105563,446.755278 15.2505298,447.316365 14.5596159,447.316365 L14.5596159,447.316365 Z" id="Fill-5" fill="#BA8C41" mask="url(#mask-2)"></path>
                    <path d="M27.864,402.783043 C27.1720132,402.783043 26.6119868,402.221957 26.6119868,401.528659 L26.6119868,388.150713 C26.6119868,387.45849 27.1720132,386.896329 27.864,386.896329 C28.5549139,386.896329 29.1160132,387.45849 29.1160132,388.150713 L29.1160132,401.528659 C29.1160132,402.221957 28.5549139,402.783043 27.864,402.783043 Z M27.864,447.316365 C27.1720132,447.316365 26.6119868,446.755278 26.6119868,446.061981 L26.6119868,421.596655 C26.6119868,420.903357 27.1720132,420.342271 27.864,420.342271 C28.5549139,420.342271 29.1160132,420.903357 29.1160132,421.596655 L29.1160132,446.061981 C29.1160132,446.755278 28.5549139,447.316365 27.864,447.316365 L27.864,447.316365 Z" id="Fill-6" fill="#BA8C41" mask="url(#mask-2)"></path>
                    <path d="M40.9163709,331.65936 C40.3636716,331.65936 39.9163709,331.098273 39.9163709,330.406051 L39.9163709,317.027029 C39.9163709,316.334807 40.3636716,315.77372 40.9163709,315.77372 C41.4682132,315.77372 41.9163709,316.334807 41.9163709,317.027029 L41.9163709,330.406051 C41.9163709,331.098273 41.4682132,331.65936 40.9163709,331.65936 Z M40.9163709,401.896268 C40.3636716,401.896268 39.9163709,401.334106 39.9163709,400.641884 L39.9163709,350.472971 C39.9163709,349.780749 40.3636716,349.218587 40.9163709,349.218587 C41.4682132,349.218587 41.9163709,349.780749 41.9163709,350.472971 L41.9163709,400.641884 C41.9163709,401.334106 41.4682132,401.896268 40.9163709,401.896268 Z M40.9163709,435.341135 C40.3636716,435.341135 39.9163709,434.780048 39.9163709,434.087826 L39.9163709,414.019831 C39.9163709,413.327609 40.3636716,412.765447 40.9163709,412.765447 C41.4682132,412.765447 41.9163709,413.327609 41.9163709,414.019831 L41.9163709,434.087826 C41.9163709,434.780048 41.4682132,435.341135 40.9163709,435.341135 L40.9163709,435.341135 Z" id="Fill-7" fill="#FFFFFF" mask="url(#mask-2)"></path>
                    <path d="M54.4727682,358.516292 C53.7807815,358.516292 53.220755,357.955205 53.220755,357.261908 L53.220755,343.883961 C53.220755,343.190664 53.7807815,342.629577 54.4727682,342.629577 C55.1636821,342.629577 55.7237086,343.190664 55.7237086,343.883961 L55.7237086,357.261908 C55.7237086,357.955205 55.1636821,358.516292 54.4727682,358.516292 Z M54.4727682,428.752126 C53.7807815,428.752126 53.220755,428.191039 53.220755,427.497742 L53.220755,377.328829 C53.220755,376.636606 53.7807815,376.075519 54.4727682,376.075519 C55.1636821,376.075519 55.7237086,376.636606 55.7237086,377.328829 L55.7237086,427.497742 C55.7237086,428.191039 55.1636821,428.752126 54.4727682,428.752126 Z M54.4727682,447.316365 C53.7807815,447.316365 53.220755,446.755278 53.220755,446.061981 L53.220755,440.876763 C53.220755,440.183466 53.7807815,439.622379 54.4727682,439.622379 C55.1636821,439.622379 55.7237086,440.183466 55.7237086,440.876763 L55.7237086,446.061981 C55.7237086,446.755278 55.1636821,447.316365 54.4727682,447.316365 L54.4727682,447.316365 Z" id="Fill-8" fill="#FFFFFF" mask="url(#mask-2)"></path>
                    <path d="M67.7771523,277.393007 C67.0851656,277.393007 66.5251391,276.83192 66.5251391,276.138623 L66.5251391,262.760676 C66.5251391,262.068454 67.0851656,261.506292 67.7771523,261.506292 C68.4680662,261.506292 69.0280927,262.068454 69.0280927,262.760676 L69.0280927,276.138623 C69.0280927,276.83192 68.4680662,277.393007 67.7771523,277.393007 Z M67.7771523,347.628841 C67.0851656,347.628841 66.5251391,347.067754 66.5251391,346.375531 L66.5251391,296.206618 C66.5251391,295.513321 67.0851656,294.952234 67.7771523,294.952234 C68.4680662,294.952234 69.0280927,295.513321 69.0280927,296.206618 L69.0280927,346.375531 C69.0280927,347.067754 68.4680662,347.628841 67.7771523,347.628841 Z M67.7771523,381.074783 C67.0851656,381.074783 66.5251391,380.513696 66.5251391,379.820399 L66.5251391,359.753478 C66.5251391,359.060181 67.0851656,358.499094 67.7771523,358.499094 C68.4680662,358.499094 69.0280927,359.060181 69.0280927,359.753478 L69.0280927,379.820399 C69.0280927,380.513696 68.4680662,381.074783 67.7771523,381.074783 Z M67.7771523,444.621643 C67.0851656,444.621643 66.5251391,444.060556 66.5251391,443.367258 L66.5251391,429.989312 C66.5251391,429.296014 67.0851656,428.734928 67.7771523,428.734928 C68.4680662,428.734928 69.0280927,429.296014 69.0280927,429.989312 L69.0280927,443.367258 C69.0280927,444.060556 68.4680662,444.621643 67.7771523,444.621643 L67.7771523,444.621643 Z" id="Fill-9" fill-opacity="0.2" fill="#FFFFFF" mask="url(#mask-2)"></path>
                    <path d="M83.1854702,245.172428 C82.7709458,245.172428 82.4354702,244.611341 82.4354702,243.918043 L82.4354702,230.540097 C82.4354702,229.8468 82.7709458,229.285713 83.1854702,229.285713 C83.5993519,229.285713 83.9354702,229.8468 83.9354702,230.540097 L83.9354702,243.918043 C83.9354702,244.611341 83.5993519,245.172428 83.1854702,245.172428 Z M83.1854702,315.408261 C82.7709458,315.408261 82.4354702,314.847174 82.4354702,314.153877 L82.4354702,263.984964 C82.4354702,263.292742 82.7709458,262.731655 83.1854702,262.731655 C83.5993519,262.731655 83.9354702,263.292742 83.9354702,263.984964 L83.9354702,314.153877 C83.9354702,314.847174 83.5993519,315.408261 83.1854702,315.408261 Z M83.1854702,348.854203 C82.7709458,348.854203 82.4354702,348.293116 82.4354702,347.599819 L82.4354702,327.532899 C82.4354702,326.839601 82.7709458,326.278514 83.1854702,326.278514 C83.5993519,326.278514 83.9354702,326.839601 83.9354702,327.532899 L83.9354702,347.599819 C83.9354702,348.293116 83.5993519,348.854203 83.1854702,348.854203 Z M83.1854702,412.401063 C82.7709458,412.401063 82.4354702,411.838901 82.4354702,411.146679 L82.4354702,397.768732 C82.4354702,397.075435 82.7709458,396.514348 83.1854702,396.514348 C83.5993519,396.514348 83.9354702,397.075435 83.9354702,397.768732 L83.9354702,411.146679 C83.9354702,411.838901 83.5993519,412.401063 83.1854702,412.401063 Z M83.1854702,447.316365 C82.7709458,447.316365 82.4354702,446.755278 82.4354702,446.061981 L82.4354702,431.213599 C82.4354702,430.521377 82.7709458,429.96029 83.1854702,429.96029 C83.5993519,429.96029 83.9354702,430.521377 83.9354702,431.213599 L83.9354702,446.061981 C83.9354702,446.755278 83.5993519,447.316365 83.1854702,447.316365 L83.1854702,447.316365 Z" id="Fill-10" fill="#FFFFFF" mask="url(#mask-2)"></path>
                    <path d="M98.8466599,214.438406 C98.5706204,214.438406 98.3468742,213.877319 98.3468742,213.185097 L98.3468742,199.806075 C98.3468742,199.113853 98.5706204,198.552766 98.8466599,198.552766 C99.1231279,198.552766 99.3468742,199.113853 99.3468742,199.806075 L99.3468742,213.185097 C99.3468742,213.877319 99.1231279,214.438406 98.8466599,214.438406 Z M98.8466599,284.675314 C98.5706204,284.675314 98.3468742,284.114227 98.3468742,283.42093 L98.3468742,233.252017 C98.3468742,232.559795 98.5706204,231.997633 98.8466599,231.997633 C99.1231279,231.997633 99.3468742,232.559795 99.3468742,233.252017 L99.3468742,283.42093 C99.3468742,284.114227 99.1231279,284.675314 98.8466599,284.675314 Z M98.8466599,318.120181 C98.5706204,318.120181 98.3468742,317.559094 98.3468742,316.866872 L98.3468742,296.798877 C98.3468742,296.106655 98.5706204,295.545568 98.8466599,295.545568 C99.1231279,295.545568 99.3468742,296.106655 99.3468742,296.798877 L99.3468742,316.866872 C99.3468742,317.559094 99.1231279,318.120181 98.8466599,318.120181 Z M98.8466599,381.667041 C98.5706204,381.667041 98.3468742,381.105954 98.3468742,380.413732 L98.3468742,367.03471 C98.3468742,366.342488 98.5706204,365.781401 98.8466599,365.781401 C99.1231279,365.781401 99.3468742,366.342488 99.3468742,367.03471 L99.3468742,380.413732 C99.3468742,381.105954 99.1231279,381.667041 98.8466599,381.667041 Z M98.8466599,447.316365 C98.5706204,447.316365 98.3468742,446.755278 98.3468742,446.061981 L98.3468742,400.480652 C98.3468742,399.78843 98.5706204,399.226268 98.8466599,399.226268 C99.1231279,399.226268 99.3468742,399.78843 99.3468742,400.480652 L99.3468742,446.061981 C99.3468742,446.755278 99.1231279,447.316365 98.8466599,447.316365 L98.8466599,447.316365 Z" id="Fill-11" fill-opacity="0.2" fill="#FF990F" mask="url(#mask-2)"></path>
                    <path d="M114.757205,129.855085 C114.480856,129.855085 114.257205,129.293998 114.257205,128.6007 L114.257205,115.222754 C114.257205,114.530531 114.480856,113.96837 114.757205,113.96837 C115.033555,113.96837 115.257205,114.530531 115.257205,115.222754 L115.257205,128.6007 C115.257205,129.293998 115.033555,129.855085 114.757205,129.855085 Z M114.757205,200.090918 C114.480856,200.090918 114.257205,199.529831 114.257205,198.837609 L114.257205,148.668696 C114.257205,147.975399 114.480856,147.414312 114.757205,147.414312 C115.033555,147.414312 115.257205,147.975399 115.257205,148.668696 L115.257205,198.837609 C115.257205,199.529831 115.033555,200.090918 114.757205,200.090918 Z M114.757205,233.53686 C114.480856,233.53686 114.257205,232.975773 114.257205,232.282476 L114.257205,212.215556 C114.257205,211.522258 114.480856,210.961171 114.757205,210.961171 C115.033555,210.961171 115.257205,211.522258 115.257205,212.215556 L115.257205,232.282476 C115.257205,232.975773 115.033555,233.53686 114.757205,233.53686 Z M114.757205,297.08372 C114.480856,297.08372 114.257205,296.522633 114.257205,295.829336 L114.257205,282.451389 C114.257205,281.758092 114.480856,281.197005 114.757205,281.197005 C115.033555,281.197005 115.257205,281.758092 115.257205,282.451389 L115.257205,295.829336 C115.257205,296.522633 115.033555,297.08372 114.757205,297.08372 Z M114.757205,367.319553 C114.480856,367.319553 114.257205,366.758466 114.257205,366.065169 L114.257205,315.897331 C114.257205,315.204034 114.480856,314.642947 114.757205,314.642947 C115.033555,314.642947 115.257205,315.204034 115.257205,315.897331 L115.257205,366.065169 C115.257205,366.758466 115.033555,367.319553 114.757205,367.319553 Z M114.757205,400.765495 C114.480856,400.765495 114.257205,400.204408 114.257205,399.511111 L114.257205,379.444191 C114.257205,378.750894 114.480856,378.189807 114.757205,378.189807 C115.033555,378.189807 115.257205,378.750894 115.257205,379.444191 L115.257205,399.511111 C115.257205,400.204408 115.033555,400.765495 114.757205,400.765495 L114.757205,400.765495 Z" id="Fill-12" fill="#FFFFFF" mask="url(#mask-2)"></path>
                    <path d="M131.41955,55.2380435 C130.728636,55.2380435 130.168609,54.6769565 130.168609,53.9836594 L130.168609,40.6057126 C130.168609,39.9134903 130.728636,39.3513285 131.41955,39.3513285 C132.111536,39.3513285 132.671563,39.9134903 132.671563,40.6057126 L132.671563,53.9836594 C132.671563,54.6769565 132.111536,55.2380435 131.41955,55.2380435 Z M131.41955,125.473877 C130.728636,125.473877 130.168609,124.91279 130.168609,124.220568 L130.168609,74.0516546 C130.168609,73.3594324 130.728636,72.7972705 131.41955,72.7972705 C132.111536,72.7972705 132.671563,73.3594324 132.671563,74.0516546 L132.671563,124.220568 C132.671563,124.91279 132.111536,125.473877 131.41955,125.473877 Z M131.41955,158.919819 C130.728636,158.919819 130.168609,158.358732 130.168609,157.665435 L130.168609,137.598514 C130.168609,136.905217 130.728636,136.34413 131.41955,136.34413 C132.111536,136.34413 132.671563,136.905217 132.671563,137.598514 L132.671563,157.665435 C132.671563,158.358732 132.111536,158.919819 131.41955,158.919819 Z M131.41955,222.466679 C130.728636,222.466679 130.168609,221.905592 130.168609,221.212295 L130.168609,207.834348 C130.168609,207.141051 130.728636,206.579964 131.41955,206.579964 C132.111536,206.579964 132.671563,207.141051 132.671563,207.834348 L132.671563,221.212295 C132.671563,221.905592 132.111536,222.466679 131.41955,222.466679 Z M131.41955,292.702512 C130.728636,292.702512 130.168609,292.141425 130.168609,291.449203 L130.168609,241.28029 C130.168609,240.586993 130.728636,240.025906 131.41955,240.025906 C132.111536,240.025906 132.671563,240.586993 132.671563,241.28029 L132.671563,291.449203 C132.671563,292.141425 132.111536,292.702512 131.41955,292.702512 Z M131.41955,326.148454 C130.728636,326.148454 130.168609,325.587367 130.168609,324.89407 L130.168609,304.82715 C130.168609,304.133853 130.728636,303.572766 131.41955,303.572766 C132.111536,303.572766 132.671563,304.133853 132.671563,304.82715 L132.671563,324.89407 C132.671563,325.587367 132.111536,326.148454 131.41955,326.148454 Z M131.41955,389.695314 C130.728636,389.695314 130.168609,389.134227 130.168609,388.44093 L130.168609,375.062983 C130.168609,374.369686 130.728636,373.808599 131.41955,373.808599 C132.111536,373.808599 132.671563,374.369686 132.671563,375.062983 L132.671563,388.44093 C132.671563,389.134227 132.111536,389.695314 131.41955,389.695314 Z M131.41955,447.316365 C130.728636,447.316365 130.168609,446.755278 130.168609,446.061981 L130.168609,408.508925 C130.168609,407.815628 130.728636,407.254541 131.41955,407.254541 C132.111536,407.254541 132.671563,407.815628 132.671563,408.508925 L132.671563,446.061981 C132.671563,446.755278 132.111536,447.316365 131.41955,447.316365 L131.41955,447.316365 Z" id="Fill-13" fill="#FFFFFF" mask="url(#mask-2)"></path>
                    <path d="M146.82894,31.5229831 C146.414416,31.5229831 146.07894,30.9618961 146.07894,30.2696739 L146.07894,16.8906522 C146.07894,16.19843 146.414416,15.637343 146.82894,15.637343 C147.242822,15.637343 147.57894,16.19843 147.57894,16.8906522 L147.57894,30.2696739 C147.57894,30.9618961 147.242822,31.5229831 146.82894,31.5229831 Z M146.82894,101.759891 C146.414416,101.759891 146.07894,101.197729 146.07894,100.505507 L146.07894,50.3365942 C146.07894,49.644372 146.414416,49.0822101 146.82894,49.0822101 C147.242822,49.0822101 147.57894,49.644372 147.57894,50.3365942 L147.57894,100.505507 C147.57894,101.197729 147.242822,101.759891 146.82894,101.759891 Z M146.82894,135.204758 C146.414416,135.204758 146.07894,134.643671 146.07894,133.951449 L146.07894,113.883454 C146.07894,113.191232 146.414416,112.62907 146.82894,112.62907 C147.242822,112.62907 147.57894,113.191232 147.57894,113.883454 L147.57894,133.951449 C147.57894,134.643671 147.242822,135.204758 146.82894,135.204758 Z M146.82894,198.751618 C146.414416,198.751618 146.07894,198.190531 146.07894,197.498309 L146.07894,184.119287 C146.07894,183.427065 146.414416,182.864903 146.82894,182.864903 C147.242822,182.864903 147.57894,183.427065 147.57894,184.119287 L147.57894,197.498309 C147.57894,198.190531 147.242822,198.751618 146.82894,198.751618 Z M146.82894,268.988527 C146.414416,268.988527 146.07894,268.426365 146.07894,267.734143 L146.07894,217.565229 C146.07894,216.871932 146.414416,216.310845 146.82894,216.310845 C147.242822,216.310845 147.57894,216.871932 147.57894,217.565229 L147.57894,267.734143 C147.57894,268.426365 147.242822,268.988527 146.82894,268.988527 Z M146.82894,302.433394 C146.414416,302.433394 146.07894,301.872307 146.07894,301.17901 L146.07894,281.112089 C146.07894,280.419867 146.414416,279.857705 146.82894,279.857705 C147.242822,279.857705 147.57894,280.419867 147.57894,281.112089 L147.57894,301.17901 C147.57894,301.872307 147.242822,302.433394 146.82894,302.433394 Z M146.82894,365.980254 C146.414416,365.980254 146.07894,365.419167 146.07894,364.726944 L146.07894,351.347923 C146.07894,350.6557 146.414416,350.093539 146.82894,350.093539 C147.242822,350.093539 147.57894,350.6557 147.57894,351.347923 L147.57894,364.726944 C147.57894,365.419167 147.242822,365.980254 146.82894,365.980254 Z M146.82894,436.216087 C146.414416,436.216087 146.07894,435.655 146.07894,434.962778 L146.07894,384.793865 C146.07894,384.101643 146.414416,383.539481 146.82894,383.539481 C147.242822,383.539481 147.57894,384.101643 147.57894,384.793865 L147.57894,434.962778 C147.57894,435.655 147.242822,436.216087 146.82894,436.216087 L146.82894,436.216087 Z" id="Fill-14" fill="#FF990F" mask="url(#mask-2)"></path>
                    <path d="M322.745841,447.05087 C322.053854,447.05087 321.493828,446.488708 321.493828,445.796486 L321.493828,432.418539 C321.493828,431.725242 322.053854,431.164155 322.745841,431.164155 C323.436755,431.164155 323.997854,431.725242 323.997854,432.418539 L323.997854,445.796486 C323.997854,446.488708 323.436755,447.05087 322.745841,447.05087" id="Fill-15" fill="#BA8C41" mask="url(#mask-2)"></path>
                    <path d="M309.441457,424.916957 C308.74947,424.916957 308.189444,424.35587 308.189444,423.662572 L308.189444,410.284626 C308.189444,409.591329 308.74947,409.030242 309.441457,409.030242 C310.132371,409.030242 310.69347,409.591329 310.69347,410.284626 L310.69347,423.662572 C310.69347,424.35587 310.132371,424.916957 309.441457,424.916957 Z M309.441457,447.316365 C308.74947,447.316365 308.189444,446.755278 308.189444,446.061981 L308.189444,443.730568 C308.189444,443.037271 308.74947,442.476184 309.441457,442.476184 C310.132371,442.476184 310.69347,443.037271 310.69347,443.730568 L310.69347,446.061981 C310.69347,446.755278 310.132371,447.316365 309.441457,447.316365 L309.441457,447.316365 Z" id="Fill-16" fill="#BA8C41" mask="url(#mask-2)"></path>
                    <path d="M296.136,402.783043 C295.445086,402.783043 294.883987,402.221957 294.883987,401.528659 L294.883987,388.150713 C294.883987,387.45849 295.445086,386.896329 296.136,386.896329 C296.827987,386.896329 297.388013,387.45849 297.388013,388.150713 L297.388013,401.528659 C297.388013,402.221957 296.827987,402.783043 296.136,402.783043 Z M296.136,447.316365 C295.445086,447.316365 294.883987,446.755278 294.883987,446.061981 L294.883987,421.596655 C294.883987,420.903357 295.445086,420.342271 296.136,420.342271 C296.827987,420.342271 297.388013,420.903357 297.388013,421.596655 L297.388013,446.061981 C297.388013,446.755278 296.827987,447.316365 296.136,447.316365 L296.136,447.316365 Z" id="Fill-17" fill="#BA8C41" mask="url(#mask-2)"></path>
                    <path d="M282.579603,295.199457 C282.02776,295.199457 281.579603,294.63837 281.579603,293.945072 L281.579603,280.567126 C281.579603,279.873829 282.02776,279.312742 282.579603,279.312742 C283.132302,279.312742 283.579603,279.873829 283.579603,280.567126 L283.579603,293.945072 C283.579603,294.63837 283.132302,295.199457 282.579603,295.199457 Z M282.579603,365.43529 C282.02776,365.43529 281.579603,364.874203 281.579603,364.180906 L281.579603,314.011993 C281.579603,313.319771 282.02776,312.758684 282.579603,312.758684 C283.132302,312.758684 283.579603,313.319771 283.579603,314.011993 L283.579603,364.180906 C283.579603,364.874203 283.132302,365.43529 282.579603,365.43529 Z M282.579603,398.881232 C282.02776,398.881232 281.579603,398.320145 281.579603,397.626848 L281.579603,377.559928 C281.579603,376.86663 282.02776,376.305543 282.579603,376.305543 C283.132302,376.305543 283.579603,376.86663 283.579603,377.559928 L283.579603,397.626848 C283.579603,398.320145 283.132302,398.881232 282.579603,398.881232 L282.579603,398.881232 Z" id="Fill-18" fill="#FFFFFF" mask="url(#mask-2)"></path>
                    <path d="M265.500643,356.516292 C264.671239,356.516292 264,355.955205 264,355.261908 L264,341.883961 C264,341.190664 264.671239,340.629577 265.500643,340.629577 C266.328761,340.629577 267,341.190664 267,341.883961 L267,355.261908 C267,355.955205 266.328761,356.516292 265.500643,356.516292 Z M265.500643,426.752126 C264.671239,426.752126 264,426.191039 264,425.497742 L264,375.328829 C264,374.636606 264.671239,374.075519 265.500643,374.075519 C266.328761,374.075519 267,374.636606 267,375.328829 L267,425.497742 C267,426.191039 266.328761,426.752126 265.500643,426.752126 Z M265.500643,445.316365 C264.671239,445.316365 264,444.755278 264,444.061981 L264,438.876763 C264,438.183466 264.671239,437.622379 265.500643,437.622379 C266.328761,437.622379 267,438.183466 267,438.876763 L267,444.061981 C267,444.755278 266.328761,445.316365 265.500643,445.316365 L265.500643,445.316365 Z" id="Fill-19" fill="#FFFFFF" mask="url(#mask-2)"></path>
                    <path d="M239.561362,185.817597 C239.285322,185.817597 239.061576,185.25651 239.061576,184.563213 L239.061576,171.185266 C239.061576,170.491969 239.285322,169.930882 239.561362,169.930882 C239.83783,169.930882 240.061576,170.491969 240.061576,171.185266 L240.061576,184.563213 C240.061576,185.25651 239.83783,185.817597 239.561362,185.817597 Z M239.561362,256.05343 C239.285322,256.05343 239.061576,255.492343 239.061576,254.800121 L239.061576,204.631208 C239.061576,203.937911 239.285322,203.376824 239.561362,203.376824 C239.83783,203.376824 240.061576,203.937911 240.061576,204.631208 L240.061576,254.800121 C240.061576,255.492343 239.83783,256.05343 239.561362,256.05343 Z M239.561362,289.499372 C239.285322,289.499372 239.061576,288.938285 239.061576,288.244988 L239.061576,268.178068 C239.061576,267.484771 239.285322,266.923684 239.561362,266.923684 C239.83783,266.923684 240.061576,267.484771 240.061576,268.178068 L240.061576,288.244988 C240.061576,288.938285 239.83783,289.499372 239.561362,289.499372 Z M239.561362,353.046232 C239.285322,353.046232 239.061576,352.485145 239.061576,351.791848 L239.061576,338.413901 C239.061576,337.720604 239.285322,337.159517 239.561362,337.159517 C239.83783,337.159517 240.061576,337.720604 240.061576,338.413901 L240.061576,351.791848 C240.061576,352.485145 239.83783,353.046232 239.561362,353.046232 Z M239.561362,423.282065 C239.285322,423.282065 239.061576,422.720978 239.061576,422.027681 L239.061576,371.859843 C239.061576,371.166546 239.285322,370.605459 239.561362,370.605459 C239.83783,370.605459 240.061576,371.166546 240.061576,371.859843 L240.061576,422.027681 C240.061576,422.720978 239.83783,423.282065 239.561362,423.282065 Z M239.561362,447.316365 C239.285322,447.316365 239.061576,446.755278 239.061576,446.061981 L239.061576,435.406703 C239.061576,434.713406 239.285322,434.152319 239.561362,434.152319 C239.83783,434.152319 240.061576,434.713406 240.061576,435.406703 L240.061576,446.061981 C240.061576,446.755278 239.83783,447.316365 239.561362,447.316365 L239.561362,447.316365 Z" id="Fill-21" fill-opacity="0.2" fill="#FF990F" mask="url(#mask-2)"></path>
                    <path d="M224.402185,214.438406 C223.710199,214.438406 223.150172,213.877319 223.150172,213.185097 L223.150172,199.806075 C223.150172,199.113853 223.710199,198.552766 224.402185,198.552766 C225.093099,198.552766 225.654199,199.113853 225.654199,199.806075 L225.654199,213.185097 C225.654199,213.877319 225.093099,214.438406 224.402185,214.438406 Z M224.402185,284.675314 C223.710199,284.675314 223.150172,284.114227 223.150172,283.42093 L223.150172,233.252017 C223.150172,232.559795 223.710199,231.997633 224.402185,231.997633 C225.093099,231.997633 225.654199,232.559795 225.654199,233.252017 L225.654199,283.42093 C225.654199,284.114227 225.093099,284.675314 224.402185,284.675314 Z M224.402185,318.120181 C223.710199,318.120181 223.150172,317.559094 223.150172,316.866872 L223.150172,296.798877 C223.150172,296.106655 223.710199,295.545568 224.402185,295.545568 C225.093099,295.545568 225.654199,296.106655 225.654199,296.798877 L225.654199,316.866872 C225.654199,317.559094 225.093099,318.120181 224.402185,318.120181 Z M224.402185,381.667041 C223.710199,381.667041 223.150172,381.105954 223.150172,380.413732 L223.150172,367.03471 C223.150172,366.342488 223.710199,365.781401 224.402185,365.781401 C225.093099,365.781401 225.654199,366.342488 225.654199,367.03471 L225.654199,380.413732 C225.654199,381.105954 225.093099,381.667041 224.402185,381.667041 Z M224.402185,447.316365 C223.710199,447.316365 223.150172,446.755278 223.150172,446.061981 L223.150172,400.480652 C223.150172,399.78843 223.710199,399.226268 224.402185,399.226268 C225.093099,399.226268 225.654199,399.78843 225.654199,400.480652 L225.654199,446.061981 C225.654199,446.755278 225.093099,447.316365 224.402185,447.316365 L224.402185,447.316365 Z" id="Fill-22" fill="#FF990F" mask="url(#mask-2)"></path>
                    <path d="M207.988768,58.7260266 C207.574886,58.7260266 207.238768,58.1638647 207.238768,57.4716425 L207.238768,44.0926208 C207.238768,43.4003986 207.574886,42.8393116 207.988768,42.8393116 C208.403293,42.8393116 208.738768,43.4003986 208.738768,44.0926208 L208.738768,57.4716425 C208.738768,58.1638647 208.403293,58.7260266 207.988768,58.7260266 Z M207.988768,128.96186 C207.574886,128.96186 207.238768,128.400773 207.238768,127.707476 L207.238768,77.5385628 C207.238768,76.8463406 207.574886,76.2841787 207.988768,76.2841787 C208.403293,76.2841787 208.738768,76.8463406 208.738768,77.5385628 L208.738768,127.707476 C208.738768,128.400773 208.403293,128.96186 207.988768,128.96186 Z M207.988768,162.407802 C207.574886,162.407802 207.238768,161.84564 207.238768,161.153418 L207.238768,141.085423 C207.238768,140.3932 207.574886,139.832114 207.988768,139.832114 C208.403293,139.832114 208.738768,140.3932 208.738768,141.085423 L208.738768,161.153418 C208.738768,161.84564 208.403293,162.407802 207.988768,162.407802 Z M207.988768,225.953587 C207.574886,225.953587 207.238768,225.3925 207.238768,224.700278 L207.238768,211.321256 C207.238768,210.629034 207.574886,210.067947 207.988768,210.067947 C208.403293,210.067947 208.738768,210.629034 208.738768,211.321256 L208.738768,224.700278 C208.738768,225.3925 208.403293,225.953587 207.988768,225.953587 Z M207.988768,296.190495 C207.574886,296.190495 207.238768,295.628333 207.238768,294.936111 L207.238768,244.767198 C207.238768,244.074976 207.574886,243.512814 207.988768,243.512814 C208.403293,243.512814 208.738768,244.074976 208.738768,244.767198 L208.738768,294.936111 C208.738768,295.628333 208.403293,296.190495 207.988768,296.190495 Z M207.988768,329.635362 C207.574886,329.635362 207.238768,329.074275 207.238768,328.382053 L207.238768,308.314058 C207.238768,307.621836 207.574886,307.059674 207.988768,307.059674 C208.403293,307.059674 208.738768,307.621836 208.738768,308.314058 L208.738768,328.382053 C208.738768,329.074275 208.403293,329.635362 207.988768,329.635362 Z M207.988768,393.182222 C207.574886,393.182222 207.238768,392.621135 207.238768,391.927838 L207.238768,378.549891 C207.238768,377.857669 207.574886,377.295507 207.988768,377.295507 C208.403293,377.295507 208.738768,377.857669 208.738768,378.549891 L208.738768,391.927838 C208.738768,392.621135 208.403293,393.182222 207.988768,393.182222 Z M207.988768,447.316365 C207.574886,447.316365 207.238768,446.755278 207.238768,446.061981 L207.238768,411.995833 C207.238768,411.303611 207.574886,410.741449 207.988768,410.741449 C208.403293,410.741449 208.738768,411.303611 208.738768,411.995833 L208.738768,446.061981 C208.738768,446.755278 208.403293,447.316365 207.988768,447.316365 L207.988768,447.316365 Z" id="Fill-23" fill="#FFFFFF" mask="url(#mask-2)"></path>
                    <path d="M191.828437,16.233901 C191.552087,16.233901 191.328437,15.672814 191.328437,14.9795169 L191.328437,1.60157005 C191.328437,0.908272947 191.552087,0.34718599 191.828437,0.34718599 C192.104358,0.34718599 192.328437,0.908272947 192.328437,1.60157005 L192.328437,14.9795169 C192.328437,15.672814 192.104358,16.233901 191.828437,16.233901 Z M191.828437,86.4697343 C191.552087,86.4697343 191.328437,85.9086473 191.328437,85.2164251 L191.328437,35.0475121 C191.328437,34.354215 191.552087,33.793128 191.828437,33.793128 C192.104358,33.793128 192.328437,34.354215 192.328437,35.0475121 L192.328437,85.2164251 C192.328437,85.9086473 192.104358,86.4697343 191.828437,86.4697343 Z M191.828437,119.915676 C191.552087,119.915676 191.328437,119.354589 191.328437,118.661292 L191.328437,98.594372 C191.328437,97.9010749 191.552087,97.3399879 191.828437,97.3399879 C192.104358,97.3399879 192.328437,97.9010749 192.328437,98.594372 L192.328437,118.661292 C192.328437,119.354589 192.104358,119.915676 191.828437,119.915676 Z M191.828437,183.462536 C191.552087,183.462536 191.328437,182.901449 191.328437,182.208152 L191.328437,168.830205 C191.328437,168.136908 191.552087,167.575821 191.828437,167.575821 C192.104358,167.575821 192.328437,168.136908 192.328437,168.830205 L192.328437,182.208152 C192.328437,182.901449 192.104358,183.462536 191.828437,183.462536 Z M191.828437,253.69837 C191.552087,253.69837 191.328437,253.137283 191.328437,252.443986 L191.328437,202.276147 C191.328437,201.58285 191.552087,201.021763 191.828437,201.021763 C192.104358,201.021763 192.328437,201.58285 192.328437,202.276147 L192.328437,252.443986 C192.328437,253.137283 192.104358,253.69837 191.828437,253.69837 Z M191.828437,287.144312 C191.552087,287.144312 191.328437,286.583225 191.328437,285.889928 L191.328437,265.823007 C191.328437,265.12971 191.552087,264.568623 191.828437,264.568623 C192.104358,264.568623 192.328437,265.12971 192.328437,265.823007 L192.328437,285.889928 C192.328437,286.583225 192.104358,287.144312 191.828437,287.144312 Z M191.828437,350.691171 C191.552087,350.691171 191.328437,350.12901 191.328437,349.436787 L191.328437,336.058841 C191.328437,335.365543 191.552087,334.804457 191.828437,334.804457 C192.104358,334.804457 192.328437,335.365543 192.328437,336.058841 L192.328437,349.436787 C192.328437,350.12901 192.104358,350.691171 191.828437,350.691171 Z M191.828437,420.927005 C191.552087,420.927005 191.328437,420.365918 191.328437,419.672621 L191.328437,369.503708 C191.328437,368.811486 191.552087,368.250399 191.828437,368.250399 C192.104358,368.250399 192.328437,368.811486 192.328437,369.503708 L192.328437,419.672621 C192.328437,420.365918 192.104358,420.927005 191.828437,420.927005 Z M191.828437,447.316365 C191.552087,447.316365 191.328437,446.755278 191.328437,446.061981 L191.328437,433.051643 C191.328437,432.358345 191.552087,431.797258 191.828437,431.797258 C192.104358,431.797258 192.328437,432.358345 192.328437,433.051643 L192.328437,446.061981 C192.328437,446.755278 192.104358,447.316365 191.828437,447.316365 L191.828437,447.316365 Z" id="Fill-24" fill="#FF990F" opacity="0.2" mask="url(#mask-2)"></path>
                </g>
                <path d="M344.665571,137.105 C344.113492,137.105 343.666,136.555912 343.666,135.878492 L343.666,129.331508 C343.666,128.654088 344.113492,128.105 344.665571,128.105 C345.218508,128.105 345.666,128.654088 345.666,129.331508 L345.666,135.878492 C345.666,136.555912 345.218508,137.105 344.665571,137.105" id="Fill-26" fill-opacity="0.5" fill="#FF990F"></path>
                <path d="M344.665571,196.898688 C344.113492,196.898688 343.666,196.341908 343.666,195.656312 L343.666,153.346312 C343.666,152.660716 344.113492,152.105 344.665571,152.105 C345.218508,152.105 345.666,152.660716 345.666,153.346312 L345.666,195.656312 C345.666,196.341908 345.218508,196.898688 344.665571,196.898688 Z M344.665571,225.105 C344.113492,225.105 343.666,224.549284 343.666,223.862623 L343.666,206.938836 C343.666,206.253241 344.113492,205.69646 344.665571,205.69646 C345.218508,205.69646 345.666,206.253241 345.666,206.938836 L345.666,223.862623 C345.666,224.549284 345.218508,225.105 344.665571,225.105 L344.665571,225.105 Z" id="Fill-27" fill-opacity="0.5" fill="#FF990F"></path>
                <g id="Group-32" transform="translate(328.666000, 8.105000)">
                    <mask id="mask-4" fill="white">
                        <use xlink:href="#path-3"></use>
                    </mask>
                    <g id="Clip-29"></g>
                    <path d="M15.6153043,271.52237 C14.9433043,271.52237 14.3986087,270.961876 14.3986087,270.270386 L14.3986087,258.890862 C14.3986087,258.198298 14.9433043,257.637805 15.6153043,257.637805 C16.2883478,257.637805 16.8330435,258.198298 16.8330435,258.890862 L16.8330435,270.270386 C16.8330435,270.961876 16.2883478,271.52237 15.6153043,271.52237 Z M15.6153043,331.265407 C14.9433043,331.265407 14.3986087,330.704913 14.3986087,330.012349 L14.3986087,287.339672 C14.3986087,286.647108 14.9433043,286.086614 15.6153043,286.086614 C16.2883478,286.086614 16.8330435,286.647108 16.8330435,287.339672 L16.8330435,330.012349 C16.8330435,330.704913 16.2883478,331.265407 15.6153043,331.265407 Z M15.6153043,359.714216 C14.9433043,359.714216 14.3986087,359.153723 14.3986087,358.461159 L14.3986087,341.391873 C14.3986087,340.700383 14.9433043,340.139889 15.6153043,340.139889 C16.2883478,340.139889 16.8330435,340.700383 16.8330435,341.391873 L16.8330435,358.461159 C16.8330435,359.153723 16.2883478,359.714216 15.6153043,359.714216 Z M15.6153043,413.767491 C14.9433043,413.767491 14.3986087,413.205924 14.3986087,412.514434 L14.3986087,401.13491 C14.3986087,400.442346 14.9433043,399.881852 15.6153043,399.881852 C16.2883478,399.881852 16.8330435,400.442346 16.8330435,401.13491 L16.8330435,412.514434 C16.8330435,413.205924 16.2883478,413.767491 15.6153043,413.767491 Z M15.6153043,473.509455 C14.9433043,473.509455 14.3986087,472.948961 14.3986087,472.256397 L14.3986087,429.58372 C14.3986087,428.891156 14.9433043,428.330662 15.6153043,428.330662 C16.2883478,428.330662 16.8330435,428.891156 16.8330435,429.58372 L16.8330435,472.256397 C16.8330435,472.948961 16.2883478,473.509455 15.6153043,473.509455 Z M15.6153043,501.958264 C14.9433043,501.958264 14.3986087,501.39777 14.3986087,500.705206 L14.3986087,483.635921 C14.3986087,482.944431 14.9433043,482.383937 15.6153043,482.383937 C16.2883478,482.383937 16.8330435,482.944431 16.8330435,483.635921 L16.8330435,500.705206 C16.8330435,501.39777 16.2883478,501.958264 15.6153043,501.958264 L15.6153043,501.958264 Z" id="Fill-28" fill-opacity="0.5" fill="#FF990F" mask="url(#mask-4)"></path>
                    <path d="M15.6153043,551.313915 C14.9433043,551.313915 14.3986087,550.753422 14.3986087,550.060858 L14.3986087,543.378958 C14.3986087,542.686394 14.9433043,542.1259 15.6153043,542.1259 C16.2883478,542.1259 16.8330435,542.686394 16.8330435,543.378958 L16.8330435,550.060858 C16.8330435,550.753422 16.2883478,551.313915 15.6153043,551.313915" id="Fill-30" fill="#BA8C41" mask="url(#mask-4)"></path>
                </g>
                <g id="Group-38" transform="translate(0.666000, 0.105000)">
                    <mask id="mask-6" fill="white">
                        <use xlink:href="#path-5"></use>
                    </mask>
                    <g id="Clip-36"></g>
                    <path d="M313.334171,97.9619166 C312.919646,97.9619166 312.584171,97.4019429 312.584171,96.7100214 L312.584171,84.8626091 C312.584171,84.1717603 312.919646,83.6117867 313.334171,83.6117867 C313.748052,83.6117867 314.084171,84.1717603 314.084171,84.8626091 L314.084171,96.7100214 C314.084171,97.4019429 313.748052,97.9619166 313.334171,97.9619166" id="Fill-35" fill="#FF990F" mask="url(#mask-6)"></path>
                    <path d="M328.5,0.0855984753 C328.5,397.011122 342.664676,522.601281 546.981557,550.107944 L547,556.475598 L115,556.475598 L115.00995,549.586015 C312.241787,521.674669 328.150134,399.55259 328.494054,13.83653 L328.5,0.0855984753 Z" id="Combined-Shape" fill="#FFFFFF" mask="url(#mask-6)"></path>
                </g>
                <g id="Group-52" transform="translate(115.666000, 96.105000)">
                    <mask id="mask-8" fill="white">
                        <use xlink:href="#path-7"></use>
                    </mask>
                    <g id="Clip-45"></g>
                    <path d="M52.7190074,454.333781 C52.7190074,468.805785 40.9821141,480.537901 26.5042184,480.537901 C12.0273945,480.537901 0.290501241,468.805785 0.290501241,454.333781 C0.290501241,439.862849 12.0273945,428.130732 26.5042184,428.130732 C40.9821141,428.130732 52.7190074,439.862849 52.7190074,454.333781" id="Fill-46" fill="#FFFFFF" mask="url(#mask-8)"></path>
                    <path d="M29.8658859,440.810076 C29.8658859,451.079562 38.1950174,459.405304 48.4697568,459.405304 C58.7444963,459.405304 67.0736278,451.079562 67.0736278,440.810076 C67.0736278,430.539518 58.7444963,422.213776 48.4697568,422.213776 C38.1950174,422.213776 29.8658859,430.539518 29.8658859,440.810076" id="Fill-47" fill="#FFFFFF" mask="url(#mask-8)"></path>
                    <path d="M336.8453,448.416825 C336.8453,463.822126 349.340069,476.310739 364.751643,476.310739 C380.163216,476.310739 392.656913,463.822126 392.656913,448.416825 C392.656913,433.011524 380.163216,420.522911 364.751643,420.522911 C349.340069,420.522911 336.8453,433.011524 336.8453,448.416825" id="Fill-49" fill="#FFFFFF" mask="url(#mask-8)"></path>
                    <path d="M369.424318,454.110904 C369.424318,464.725421 378.033231,473.329759 388.652069,473.329759 C399.269836,473.329759 407.877677,464.725421 407.877677,454.110904 C407.877677,443.497458 399.269836,434.89312 388.652069,434.89312 C378.033231,434.89312 369.424318,443.497458 369.424318,454.110904" id="Fill-50" fill="#FFFFFF" mask="url(#mask-8)"></path>
                    <path d="M391.811136,458.137691 C391.811136,447.167428 400.708407,438.273779 411.683136,438.273779 C422.657866,438.273779 431.555136,447.167428 431.555136,458.137691 C431.555136,469.107954 422.657866,478.001604 411.683136,478.001604 C400.708407,478.001604 391.811136,469.107954 391.811136,458.137691" id="Fill-51" fill="#FFFFFF" mask="url(#mask-8)"></path>
                </g>
                <path d="M479.666,519.104459 C479.666,532.360169 468.920087,543.105 455.665459,543.105 C442.410831,543.105 431.666,532.360169 431.666,519.104459 C431.666,505.849831 442.410831,495.105 455.665459,495.105 C468.920087,495.105 479.666,505.849831 479.666,519.104459" id="Fill-53" fill="#FFFFFF"></path>
                <path d="M244.666,510.105535 C244.666,505.134116 248.696186,501.105 253.666535,501.105 C258.636884,501.105 262.666,505.134116 262.666,510.105535 C262.666,515.075884 258.636884,519.105 253.666535,519.105 C248.696186,519.105 244.666,515.075884 244.666,510.105535" id="Fill-57" fill="#FFFFFF"></path>
                <path d="M408.654465,507.115617 C408.936242,500.770881 404.021369,495.398231 397.676657,495.116452 C391.330897,494.835721 385.959313,499.750612 385.677535,506.095347 C385.395758,512.440082 390.310631,517.811686 396.655343,518.093465 C403.001103,518.375243 408.372687,513.460352 408.654465,507.115617" id="Fill-59" fill="#FFFFFF"></path>
                <path d="M246.666,175.916181 C246.114158,175.916181 245.666,175.356692 245.666,174.667761 L245.666,161.35342 C245.666,160.663419 246.114158,160.105 246.666,160.105 C247.218699,160.105 247.666,160.663419 247.666,161.35342 L247.666,174.667761 C247.666,175.356692 247.218699,175.916181 246.666,175.916181 Z M246.666,245.818077 C246.114158,245.818077 245.666,245.259658 245.666,244.569657 L245.666,194.639273 C245.666,193.950342 246.114158,193.391923 246.666,193.391923 C247.218699,193.391923 247.666,193.950342 247.666,194.639273 L247.666,244.569657 C247.666,245.259658 247.218699,245.818077 246.666,245.818077 Z M246.666,279.105 C246.114158,279.105 245.666,278.545511 245.666,277.85658 L245.666,257.883998 C245.666,257.195067 246.114158,256.636648 246.666,256.636648 C247.218699,256.636648 247.666,257.195067 247.666,257.883998 L247.666,277.85658 C247.666,278.545511 247.218699,279.105 246.666,279.105 L246.666,279.105 Z" id="Fill-61" fill="#FF990F"></path>
                <path d="M433.165357,331.307498 C432.337239,331.307498 431.666,330.746735 431.666,330.053838 L431.666,288.358659 C431.666,287.665763 432.337239,287.105 433.165357,287.105 C433.994761,287.105 434.666,287.665763 434.666,288.358659 L434.666,330.053838 C434.666,330.746735 433.994761,331.307498 433.165357,331.307498 Z M433.165357,359.105 C432.337239,359.105 431.666,358.544237 431.666,357.851341 L431.666,341.173484 C431.666,340.480587 432.337239,339.919825 433.165357,339.919825 C433.994761,339.919825 434.666,340.480587 434.666,341.173484 L434.666,357.851341 C434.666,358.544237 433.994761,359.105 433.165357,359.105 L433.165357,359.105 Z" id="Fill-63" fill="#FFFFFF"></path>
                <path d="M433.165357,408.105 C432.337239,408.105 431.666,407.555976 431.666,406.877584 L431.666,400.332416 C431.666,399.654024 432.337239,399.105 433.165357,399.105 C433.994761,399.105 434.666,399.654024 434.666,400.332416 L434.666,406.877584 C434.666,407.555976 433.994761,408.105 433.165357,408.105" id="Fill-64" fill="#FFFFFF"></path>
            </g>
            <polygon id="Fill-1" fill="#CEC0F9" points="250.665919 355.6645 246.666 363.6645 250.665919 361.762748 254.666 363.6645"></polygon>
            <polygon id="Fill-1" fill="#CEC0F9" points="375.665898 167.6645 370.666 177.6645 375.665898 175.287311 380.666 177.6645"></polygon>
            <polygon id="Fill-1" fill="#4C2D49" points="359.665949 130.6645 357.166 135.6645 359.665949 134.475905 362.166 135.6645"></polygon>
            <polygon id="Fill-1" fill="#CEC0F9" points="282.165949 240.6645 279.666 245.6645 282.165949 244.475905 284.666 245.6645"></polygon>
            <polygon id="Fill-1" fill="#FF990F" points="313.665919 97.6645 309.666 105.6645 313.665919 103.762748 317.666 105.6645"></polygon>
            <polygon id="Fill-1" fill="#FF990F" points="246.742347 170.6645 239.2425 185.6645 246.742347 182.098716 254.2425 185.6645"></polygon>
            <polygon id="Fill-1" fill="#CEC0F9" points="450.242398 404.6645 445.2425 414.6645 450.242398 412.287311 455.2425 414.6645"></polygon>
            <polygon id="Fill-1" fill="#FF990F" points="391.965898 322.6645 386.966 332.6645 391.965898 330.287311 396.966 332.6645"></polygon>
            <polygon id="Fill-1" fill="#CEC0F9" points="208.665898 439.6645 203.666 449.6645 208.665898 447.287311 213.666 449.6645"></polygon>
            <g id="Group-28" transform="translate(309.666000, 0.000000)">
                <g id="Group-3" transform="translate(19.200000, 0.096080)">
                    <mask id="mask-10" fill="white">
                        <use xlink:href="#path-9"></use>
                    </mask>
                    <g id="Clip-2"></g>
                    <path d="M20.12272,38.56712 L0.46112,29.56712 L0.46112,20.38392 L0.46112,20.26152 C0.46112,20.26152 0.46112,0.70392 0.46112,0.70392" id="Fill-1" fill="#81A6F7" mask="url(#mask-10)"></path>
                </g>
                <g id="Group-6" transform="translate(0.000000, 0.096080)">
                    <mask id="mask-12" fill="white">
                        <use xlink:href="#path-11"></use>
                    </mask>
                    <g id="Clip-5"></g>
                    <path d="M19.66136,0.70392 C19.66136,0.70392 19.66136,20.26152 19.66136,20.26152 L19.66136,20.38392 L19.66136,29.56712 L-0.00024,38.56712 L19.66136,0.70392 Z" id="Fill-4" fill="#CEC0F9" mask="url(#mask-12)"></path>
                    <path d="M39.32272,38.56712 L19.66112,29.56712 L19.66112,20.38392 L19.66112,20.26152 C19.66112,20.26152 19.66112,0.70392 19.66112,0.70392" id="Fill-1" fill="#81A6F7" mask="url(#mask-12)"></path>
                    <path d="M19.66136,0.70392 C19.66136,0.70392 19.66136,20.26152 19.66136,20.26152 L19.66136,20.38392 L19.66136,29.56712 L-0.00024,38.56712 L19.66136,0.70392 Z" id="Fill-4" fill="#CEC0F9" mask="url(#mask-12)"></path>
                </g>
                <g id="Group-9" transform="translate(19.200000, 28.896080)">
                    <mask id="mask-14" fill="white">
                        <use xlink:href="#path-13"></use>
                    </mask>
                    <g id="Clip-8"></g>
                    <polygon id="Fill-7" fill="#E7EBF2" mask="url(#mask-14)" points="18.16 9.76704 0.4632 17.86784 0.4632 18.76624 20.1224 9.76704 0.4632 0.76784 0.4632 1.66624"></polygon>
                </g>
                <polygon id="Fill-10" fill="#E7EBF2" points="8e-05 38.66312 19.66168 47.66392 19.66328 47.66232 19.66328 46.76392 19.66168 46.76552 1.96248 38.66312 19.66168 30.56152 19.66328 30.56232 19.66328 29.66392 19.66168 29.66312"></polygon>
                <path d="M0.85,38.58704 C0.85,38.58704 19.8148,47.67824 19.9956,47.49744 C20.1756,47.31664 38.5388,38.46624 38.5388,38.46624 L19.6612,30.05104 L0.85,38.58704 Z" id="Fill-12" fill="#E7EBF2"></path>
                <g id="Group-3" filter="url(#filter-15)" transform="translate(8.000000, 33.600000)">
                    <mask id="mask-17" fill="white">
                        <use xlink:href="#path-16"></use>
                    </mask>
                    <g id="Clip-2"></g>
                    <path d="M23.0736,5.2856 C23.0736,5.2816 23.0728,5.2776 23.0728,5.2736 L11.5528,0 L0.0328,5.2736 C0.032,5.2776 0.032,5.2816 0.032,5.2856 C0.0128,5.5552 0,5.8264 0,6.1008 C0,8.072 0.4952,9.928 1.3656,11.552 L1.7208,12.1664 L11.5528,29.196 L21.3848,12.1664 C21.5088,11.9656 21.628,11.7608 21.74,11.552 C22.6104,9.928 23.1056,8.072 23.1056,6.1008 C23.1056,5.8264 23.0928,5.5552 23.0736,5.2856" id="Fill-1" fill="#FF990F" mask="url(#mask-17)"></path>
                </g>
                <g id="Group-36" transform="translate(8.108560, 33.312000)">
                    <path d="M1.72072,12.15448 L11.55272,29.18408 L11.55272,17.64168 C7.39752,17.64168 5.06312,14.93608 1.72072,12.15448" id="Fill-14" fill="#FFD154"></path>
                    <path d="M11.5528,17.6416 L11.5528,29.184 L21.3848,12.1544 C18.3352,14.788 15.708,17.6416 11.5528,17.6416" id="Fill-16" fill="#FF5F8D"></path>
                    <path d="M11.5528,17.6416 L11.5528,2.35900188e-13 L0.032,5.2736 C0.0128,5.5432 1.20792265e-14,5.8144 1.20792265e-14,6.0888 C1.20792265e-14,8.06 0.4952,9.916 1.3656,11.54 L1.7208,12.1544 C3.756,15.4472 7.3976,17.6416 11.5528,17.6416" id="Fill-24" fill="#FF990F"></path>
                    <path d="M23.10552,6.08888 C23.10552,5.81448 23.09272,5.54328 23.07352,5.27368 L11.55272,8e-05 L11.55272,17.64168 C15.70792,17.64168 19.34952,15.44728 21.38472,12.15448 L21.73992,11.54008 C22.61032,9.91608 23.10552,8.06008 23.10552,6.08888" id="Fill-26" fill="#EF476F"></path>
                </g>
                <path d="M9.82928,45.46648 L9.47408,44.85208 C9.58608,45.06088 9.70528,45.26568 9.82928,45.46648" id="Fill-18" fill="#FFFFFF"></path>
                <path d="M29.49344,45.46648 C29.61744,45.26568 29.73664,45.06088 29.84864,44.85208 L29.49344,45.46648 Z" id="Fill-20" fill="#FFFFFF"></path>
                <path d="M31.18224,38.58576 C31.18224,38.58176 31.18144,38.57776 31.18144,38.57376 L19.66144,33.30016 L8.14144,38.57376 C8.14144,38.57776 8.14064,38.58176 8.14064,38.58576 L19.66144,33.31216 L31.18224,38.58576 Z" id="Fill-22" fill="#FFFFFF"></path>
            </g>
            <g id="Group-28" opacity="0.8" transform="translate(423.666000, 278.000000)">
                <g id="Group-3" transform="translate(9.600000, 0.048040)">
                    <mask id="mask-19" fill="white">
                        <use xlink:href="#path-18"></use>
                    </mask>
                    <g id="Clip-2"></g>
                    <path d="M10.06136,19.28356 L0.23056,14.78356 L0.23056,10.19196 L0.23056,10.13076 C0.23056,10.13076 0.23056,0.35196 0.23056,0.35196" id="Fill-1" fill="#81A6F7" mask="url(#mask-19)"></path>
                </g>
                <g id="Group-6" transform="translate(0.000000, 0.048040)">
                    <mask id="mask-21" fill="white">
                        <use xlink:href="#path-20"></use>
                    </mask>
                    <g id="Clip-5"></g>
                    <path d="M9.83068,0.35196 C9.83068,0.35196 9.83068,10.13076 9.83068,10.13076 L9.83068,10.19196 L9.83068,14.78356 L-0.00012,19.28356 L9.83068,0.35196 Z" id="Fill-4" fill="#CEC0F9" mask="url(#mask-21)"></path>
                    <path d="M19.66136,19.28356 L9.83056,14.78356 L9.83056,10.19196 L9.83056,10.13076 C9.83056,10.13076 9.83056,0.35196 9.83056,0.35196" id="Fill-1" fill="#81A6F7" mask="url(#mask-21)"></path>
                    <path d="M9.83068,0.35196 C9.83068,0.35196 9.83068,10.13076 9.83068,10.13076 L9.83068,10.19196 L9.83068,14.78356 L-0.00012,19.28356 L9.83068,0.35196 Z" id="Fill-4" fill="#CEC0F9" mask="url(#mask-21)"></path>
                </g>
                <g id="Group-9" transform="translate(9.600000, 14.448040)">
                    <mask id="mask-23" fill="white">
                        <use xlink:href="#path-22"></use>
                    </mask>
                    <g id="Clip-8"></g>
                    <polygon id="Fill-7" fill="#E7EBF2" mask="url(#mask-23)" points="9.08 4.88352 0.2316 8.93392 0.2316 9.38312 10.0612 4.88352 0.2316 0.38392 0.2316 0.83312"></polygon>
                </g>
                <polygon id="Fill-10" fill="#E7EBF2" points="4e-05 19.33156 9.83084 23.83196 9.83164 23.83116 9.83164 23.38196 9.83084 23.38276 0.98124 19.33156 9.83084 15.28076 9.83164 15.28116 9.83164 14.83196 9.83084 14.83156"></polygon>
                <path d="M0.425,19.29352 C0.425,19.29352 9.9074,23.83912 9.9978,23.74872 C10.0878,23.65832 19.2694,19.23312 19.2694,19.23312 L9.8306,15.02552 L0.425,19.29352 Z" id="Fill-12" fill="#E7EBF2"></path>
                <g id="Group-3" filter="url(#filter-24)" transform="translate(4.000000, 16.800000)">
                    <mask id="mask-26" fill="white">
                        <use xlink:href="#path-25"></use>
                    </mask>
                    <g id="Clip-2"></g>
                    <path d="M11.5368,2.6428 C11.5368,2.6408 11.5364,2.6388 11.5364,2.6368 L5.7764,0 L0.0164,2.6368 C0.016,2.6388 0.016,2.6408 0.016,2.6428 C0.0064,2.7776 0,2.9132 0,3.0504 C0,4.036 0.2476,4.964 0.6828,5.776 L0.8604,6.0832 L5.7764,14.598 L10.6924,6.0832 C10.7544,5.9828 10.814,5.8804 10.87,5.776 C11.3052,4.964 11.5528,4.036 11.5528,3.0504 C11.5528,2.9132 11.5464,2.7776 11.5368,2.6428" id="Fill-1" fill="#FF990F" mask="url(#mask-26)"></path>
                </g>
                <g id="Group-36" transform="translate(4.054280, 16.656000)">
                    <path d="M0.86036,6.07724 L5.77636,14.59204 L5.77636,8.82084 C3.69876,8.82084 2.53156,7.46804 0.86036,6.07724" id="Fill-14" fill="#FFD154"></path>
                    <path d="M5.7764,8.8208 L5.7764,14.592 L10.6924,6.0772 C9.1676,7.394 7.854,8.8208 5.7764,8.8208" id="Fill-16" fill="#FF5F8D"></path>
                    <path d="M5.7764,8.8208 L5.7764,1.17950094e-13 L0.016,2.6368 C0.0064,2.7716 6.03961325e-15,2.9072 6.03961325e-15,3.0444 C6.03961325e-15,4.03 0.2476,4.958 0.6828,5.77 L0.8604,6.0772 C1.878,7.7236 3.6988,8.8208 5.7764,8.8208" id="Fill-24" fill="#FF990F"></path>
                    <path d="M11.55276,3.04444 C11.55276,2.90724 11.54636,2.77164 11.53676,2.63684 L5.77636,4e-05 L5.77636,8.82084 C7.85396,8.82084 9.67476,7.72364 10.69236,6.07724 L10.86996,5.77004 C11.30516,4.95804 11.55276,4.03004 11.55276,3.04444" id="Fill-26" fill="#EF476F"></path>
                </g>
                <path d="M4.91464,22.73324 L4.73704,22.42604 C4.79304,22.53044 4.85264,22.63284 4.91464,22.73324" id="Fill-18" fill="#FFFFFF"></path>
                <path d="M14.74672,22.73324 C14.80872,22.63284 14.86832,22.53044 14.92432,22.42604 L14.74672,22.73324 Z" id="Fill-20" fill="#FFFFFF"></path>
                <path d="M15.59112,19.29288 C15.59112,19.29088 15.59072,19.28888 15.59072,19.28688 L9.83072,16.65008 L4.07072,19.28688 C4.07072,19.28888 4.07032,19.29088 4.07032,19.29288 L9.83072,16.65608 L15.59112,19.29288 Z" id="Fill-22" fill="#FFFFFF"></path>
            </g>
        </g>
    </g>
</svg>