<?xml version="1.0" encoding="UTF-8"?>
<svg width="150px" height="30px" viewBox="0 0 150 30" version="1.1" xmlns="http://www.w3.org/2000/svg" xmlns:xlink="http://www.w3.org/1999/xlink">
    <title>RocketPoolLogo V2 - Positive</title>
    <defs>
        <polygon id="path-1" points="0 29.3838256 149.975445 29.3838256 149.975445 -0.000160142349 0 -0.000160142349"></polygon>
    </defs>
    <g id="Page-1" stroke="none" stroke-width="1" fill="none" fill-rule="evenodd">
        <g id="Desktop-HD" transform="translate(-209.000000, -5113.000000)">
            <g id="Group-59" transform="translate(-1011.000000, 4839.000000)">
                <g id="Group-58" transform="translate(1220.000000, 273.000000)">
                    <g id="RocketPoolLogo-V2---Positive" transform="translate(0.000000, 1.000000)">
                        <path d="M33.3849822,15.0009609 L36.449573,15.0009609 C38.0168327,15.0009609 39.0999288,13.9178648 39.0999288,12.3740925 C39.0999288,10.8991815 38.0627402,9.83957295 36.6801779,9.83957295 L33.3849822,9.83957295 L33.3849822,15.0009609 Z M30.5045552,23.2963345 L30.5045552,7.23565836 L36.7490391,7.23565836 C38.2009964,7.23565836 39.4223488,7.71928826 40.4360498,8.71003559 C41.4497509,9.67782918 41.9568683,10.8762278 41.9568683,12.3281851 C41.9568683,14.4249822 40.7814235,16.1529181 39.0305338,16.8906406 L42.9246619,23.2963345 L39.6759075,23.2963345 L36.2424555,17.5813879 L36.196548,17.5813879 L33.3849822,17.5813879 L33.3849822,23.2963345 L30.5045552,23.2963345 Z" id="Fill-1" fill="#2A1469"></path>
                        <path d="M52.3270463,20.093274 C53.0183274,19.3790391 53.3642349,18.5260142 53.3642349,17.4893594 C53.3642349,16.4527046 53.0183274,15.6002135 52.3270463,14.9089324 C51.6357651,14.1946975 50.783274,13.84879 49.7690391,13.84879 C48.7323843,13.84879 47.8798932,14.1946975 47.1886121,14.9089324 C46.5202847,15.6002135 46.174911,16.4527046 46.174911,17.4893594 C46.174911,18.5260142 46.5202847,19.3790391 47.1886121,20.093274 C47.8798932,20.7845552 48.7323843,21.1299288 49.7690391,21.1299288 C50.783274,21.1299288 51.6357651,20.7845552 52.3270463,20.093274 M43.4327402,17.4893594 C43.4327402,15.7614235 44.0546263,14.2865125 45.2759786,13.1110676 C46.497331,11.9361566 47.9951957,11.3372242 49.7690391,11.3372242 C51.5439502,11.3372242 53.0412811,11.9361566 54.2626335,13.1110676 C55.4839858,14.2865125 56.1064057,15.7614235 56.1064057,17.4893594 C56.1064057,19.2172954 55.4839858,20.6922064 54.2626335,21.8676512 C53.0412811,23.0425623 51.5439502,23.6414947 49.7690391,23.6414947 C47.9951957,23.6414947 46.497331,23.0425623 45.2759786,21.8676512 C44.0546263,20.6922064 43.4327402,19.2172954 43.4327402,17.4893594" id="Fill-3" fill="#2A1469"></path>
                        <path d="M68.043363,13.3187722 L66.3383808,15.0931495 C65.5317972,14.2406584 64.540516,13.8258897 63.3885587,13.8258897 C62.3748577,13.8258897 61.5223665,14.1712633 60.8310854,14.8625445 C60.162758,15.5538256 59.8168505,16.4298043 59.8168505,17.4664591 C59.8168505,18.5031139 60.162758,19.3790925 60.8310854,20.0703737 C61.5223665,20.7616548 62.3748577,21.1070285 63.3885587,21.1070285 C64.540516,21.1070285 65.5317972,20.6922598 66.3383808,19.8397687 L68.043363,21.6141459 C66.7990569,22.9502669 65.2552847,23.6185943 63.3885587,23.6185943 C61.6147153,23.6185943 60.1163167,23.0426157 58.8954982,21.8677046 C57.6741459,20.6922598 57.0752135,19.2173488 57.0752135,17.4664591 C57.0752135,15.7150356 57.6741459,14.2636121 58.8954982,13.0881673 C60.1163167,11.9132562 61.6147153,11.3143238 63.3885587,11.3143238 C65.2552847,11.3143238 66.7990569,11.9826512 68.043363,13.3187722" id="Fill-5" fill="#2A1469"></path>
                        <polygon id="Fill-7" fill="#2A1469" points="69.7261388 23.296121 69.7261388 7.23544484 72.4683096 7.23544484 72.4683096 16.6139146 76.7542527 11.6825979 79.9341459 11.6825979 75.3946441 16.8674733 80.4177758 23.296121 77.2843238 23.296121 73.6202669 18.618363 72.4683096 19.9085765 72.4683096 23.296121"></polygon>
                        <path d="M89.4050712,16.2453203 C89.4050712,15.5540391 89.105605,14.9551068 88.5296263,14.4709431 C87.9536477,13.9638256 87.2853203,13.7102669 86.4792705,13.7102669 C85.6262456,13.7102669 84.8655694,13.9638256 84.2436833,14.4479893 C83.6217972,14.932153 83.2758897,15.5310854 83.2070285,16.2453203 L89.4050712,16.2453203 Z M80.3959964,17.4896263 C80.3959964,15.6458541 80.9719751,14.1714769 82.1009786,13.0424733 C83.2529359,11.9129359 84.7043594,11.3604448 86.4792705,11.3604448 C88.1612989,11.3604448 89.5438612,11.9129359 90.6034698,13.0424733 C91.6865658,14.1714769 92.216637,15.5540391 92.216637,17.2131139 C92.216637,17.5584875 92.1936833,17.8814413 92.1707295,18.1803737 L83.1376335,18.1803737 C83.2299822,20.0241459 84.5895907,21.2225445 86.6399466,21.2225445 C87.8383452,21.2225445 88.8755338,20.7842883 89.7739324,19.8858897 L91.4330071,21.4985231 C90.1198399,22.8816192 88.5066726,23.5729004 86.5475979,23.5729004 C84.7273132,23.5729004 83.2299822,23.0198754 82.1009786,21.9367794 C80.9719751,20.8536833 80.3959964,19.4022598 80.3959964,17.5814413 L80.3959964,17.4896263 Z" id="Fill-9" fill="#2A1469"></path>
                        <polygon id="Fill-11" fill="#2A1469" points="94.8442527 23.296121 94.8442527 14.1946975 93.3463879 14.1946975 93.3463879 11.6825979 94.8442527 11.6825979 94.8442527 7.23544484 97.6093772 7.23544484 97.6093772 11.6825979 100.120943 11.6825979 100.120943 14.1946975 97.6093772 14.1946975 97.6093772 23.296121"></polygon>
                        <path d="M105.236851,15.0700356 L108.347883,15.0700356 C109.638096,15.0700356 110.859448,14.1251957 110.859448,12.466121 C110.859448,10.7840925 109.638096,9.83925267 108.347883,9.83925267 L105.236851,9.83925267 L105.236851,15.0700356 Z M102.356423,23.2960142 L102.356423,7.23533808 L108.486139,7.23533808 C109.845747,7.23533808 111.0671,7.71896797 112.126708,8.68676157 C113.186851,9.65508897 113.716922,10.9223488 113.716922,12.466121 C113.716922,13.9639858 113.186851,15.2082918 112.126708,16.1990391 C111.090053,17.1897865 109.868701,17.6739502 108.486139,17.6739502 L105.236851,17.6739502 L105.236851,23.2960142 L102.356423,23.2960142 Z" id="Fill-13" fill="#2A1469"></path>
                        <path d="M122.727384,20.093274 C123.418665,19.3790391 123.764039,18.5260142 123.764039,17.4893594 C123.764039,16.4527046 123.418665,15.6002135 122.727384,14.9089324 C122.036103,14.1946975 121.183078,13.84879 120.169377,13.84879 C119.132722,13.84879 118.280231,14.1946975 117.58895,14.9089324 C116.920623,15.6002135 116.575249,16.4527046 116.575249,17.4893594 C116.575249,18.5260142 116.920623,19.3790391 117.58895,20.093274 C118.280231,20.7845552 119.132722,21.1299288 120.169377,21.1299288 C121.183078,21.1299288 122.036103,20.7845552 122.727384,20.093274 M113.833078,17.4893594 C113.833078,15.7614235 114.454964,14.2865125 115.676317,13.1110676 C116.897669,11.9361566 118.395534,11.3372242 120.169377,11.3372242 C121.943754,11.3372242 123.441619,11.9361566 124.662972,13.1110676 C125.884324,14.2865125 126.50621,15.7614235 126.50621,17.4893594 C126.50621,19.2172954 125.884324,20.6922064 124.662972,21.8676512 C123.441619,23.0425623 121.943754,23.6414947 120.169377,23.6414947 C118.395534,23.6414947 116.897669,23.0425623 115.676317,21.8676512 C114.454964,20.6922064 113.833078,19.2172954 113.833078,17.4893594" id="Fill-15" fill="#2A1469"></path>
                        <path d="M136.830587,20.093274 C137.521868,19.3790391 137.867242,18.5260142 137.867242,17.4893594 C137.867242,16.4527046 137.521868,15.6002135 136.830587,14.9089324 C136.139306,14.1946975 135.286815,13.84879 134.27258,13.84879 C133.235925,13.84879 132.383434,14.1946975 131.692153,14.9089324 C131.023826,15.6002135 130.678452,16.4527046 130.678452,17.4893594 C130.678452,18.5260142 131.023826,19.3790391 131.692153,20.093274 C132.383434,20.7845552 133.235925,21.1299288 134.27258,21.1299288 C135.286815,21.1299288 136.139306,20.7845552 136.830587,20.093274 M127.936281,17.4893594 C127.936281,15.7614235 128.558167,14.2865125 129.77952,13.1110676 C131.000872,11.9361566 132.498737,11.3372242 134.27258,11.3372242 C136.046957,11.3372242 137.544822,11.9361566 138.766174,13.1110676 C139.987527,14.2865125 140.609947,15.7614235 140.609947,17.4893594 C140.609947,19.2172954 139.987527,20.6922064 138.766174,21.8676512 C137.544822,23.0425623 136.046957,23.6414947 134.27258,23.6414947 C132.498737,23.6414947 131.000872,23.0425623 129.77952,21.8676512 C128.558167,20.6922064 127.936281,19.2172954 127.936281,17.4893594" id="Fill-17" fill="#2A1469"></path>
                        <mask id="mask-2" fill="white">
                            <use xlink:href="#path-1"></use>
                        </mask>
                        <g id="Clip-20"></g>
                        <polygon id="Fill-19" fill="#2A1469" mask="url(#mask-2)" points="142.545374 23.2962811 145.310498 23.2962811 145.310498 7.23560498 142.545374 7.23560498"></polygon>
                        <path d="M18.6258897,17.7399288 L10.5349644,14.0363701 L10.5349644,10.2575445 L10.5349644,10.2073665 C10.5349644,10.2073665 10.5349644,2.15914591 10.5349644,2.15914591" id="Fill-21" fill="#81A6F7" mask="url(#mask-2)"></path>
                        <path d="M10.5351779,2.15903915 C10.5351779,2.15903915 10.5351779,10.2072598 10.5351779,10.2072598 L10.5351779,10.2574377 L10.5351779,14.0362633 L2.44425267,17.7398221 L10.5351779,2.15903915 Z" id="Fill-22" fill="#CEC0F9" mask="url(#mask-2)"></path>
                        <polygon id="Fill-23" fill="#E7EBF2" mask="url(#mask-2)" points="17.8182384 17.7399288 10.536032 21.0735587 10.536032 21.4434875 18.6258897 17.7399288 10.536032 14.0369039 10.536032 14.4062989"></polygon>
                        <polygon id="Fill-24" fill="#E7EBF2" mask="url(#mask-2)" points="2.44441281 17.7399288 10.5353381 21.4434875 10.5358719 21.4434875 10.5358719 21.0735587 10.5353381 21.0740925 3.25206406 17.7399288 10.5353381 14.4057651 10.5358719 14.4062989 10.5358719 14.0369039 10.5353381 14.0363701"></polygon>
                        <path d="M2.7941637,17.7085943 C2.7941637,17.7085943 10.5984342,21.4495196 10.6726335,21.3753203 C10.7468327,21.301121 18.3034164,17.6589502 18.3034164,17.6589502 L10.534911,14.1961388 L2.7941637,17.7085943 Z" id="Fill-25" fill="#E7EBF2" mask="url(#mask-2)"></path>
                        <path d="M6.48918149,20.5395374 L10.534911,27.5473665 L10.534911,22.7975445 C8.82512456,22.7975445 7.86427046,21.6840214 6.48918149,20.5395374" id="Fill-26" fill="#FFD154" mask="url(#mask-2)"></path>
                        <path d="M10.5351779,22.7975445 L10.5351779,27.5473665 L14.5809075,20.5395374 C13.3259253,21.6231673 12.2449644,22.7975445 10.5351779,22.7975445" id="Fill-27" fill="#FF5F8D" mask="url(#mask-2)"></path>
                        <path d="M6.48918149,20.5395374 L6.34291815,20.2865125 C6.38935943,20.3724555 6.43793594,20.4567972 6.48918149,20.5395374" id="Fill-28" fill="#FFFFFF" mask="url(#mask-2)"></path>
                        <path d="M14.581121,20.5395374 C14.6323665,20.4567972 14.6809431,20.3724555 14.7273843,20.2865125 L14.581121,20.5395374 Z" id="Fill-29" fill="#FFFFFF" mask="url(#mask-2)"></path>
                        <path d="M15.2760854,17.7080605 C15.2760854,17.7064591 15.2760854,17.7048577 15.2755516,17.7032562 L10.5353381,15.5327936 L5.79459075,17.7032562 C5.79459075,17.7048577 5.79459075,17.7064591 5.79405694,17.7080605 L10.5353381,15.5375979 L15.2760854,17.7080605 Z" id="Fill-30" fill="#FFFFFF" mask="url(#mask-2)"></path>
                        <path d="M10.5351779,22.7975445 L10.5351779,15.537758 L5.7944306,17.7082206 C5.78642349,17.8192527 5.78108541,17.9308185 5.78108541,18.043452 C5.78108541,18.8548399 5.985,19.6181851 6.34318505,20.2865125 L6.4894484,20.5395374 C7.32699288,21.8943416 8.82539146,22.7975445 10.5351779,22.7975445" id="Fill-31" fill="#FF990F" mask="url(#mask-2)"></path>
                        <path d="M15.2891637,18.0435053 C15.2891637,17.9308719 15.2838256,17.8187722 15.2758185,17.708274 L10.5350712,15.5378114 L10.5350712,22.7975979 C12.2448577,22.7975979 13.7432562,21.894395 14.5813345,20.5395907 L14.7270641,20.2865658 C15.0852491,19.6182384 15.2891637,18.8548932 15.2891637,18.0435053" id="Fill-32" fill="#EF476F" mask="url(#mask-2)"></path>
                    </g>
                </g>
            </g>
        </g>
    </g>
</svg>