<?xml version="1.0" encoding="UTF-8"?>
<svg width="746px" height="468px" viewBox="0 0 746 468" version="1.1" xmlns="http://www.w3.org/2000/svg" xmlns:xlink="http://www.w3.org/1999/xlink">
    <title>skyrETHocket</title>
    <defs>
        <polygon id="path-1" points="2.83206944e-15 -1.12672175e-14 259.892471 -1.12672175e-14 259.892471 356.582076 2.83206944e-15 356.582076"></polygon>
        <polygon id="path-3" points="2.83206944e-15 -1.12672175e-14 259.892471 -1.12672175e-14 259.892471 356.582076 2.83206944e-15 356.582076"></polygon>
        <polygon id="path-5" points="2.83206944e-15 -1.12672175e-14 259.892471 -1.12672175e-14 259.892471 356.582076 2.83206944e-15 356.582076"></polygon>
        <polygon id="path-7" points="2.83206944e-15 -1.12672175e-14 259.892471 -1.12672175e-14 259.892471 356.582076 2.83206944e-15 356.582076"></polygon>
        <polygon id="path-9" points="2.83206944e-15 -1.12672175e-14 259.892471 -1.12672175e-14 259.892471 356.582076 2.83206944e-15 356.582076"></polygon>
        <polygon id="path-11" points="2.83206944e-15 -1.12672175e-14 259.892471 -1.12672175e-14 259.892471 356.582076 2.83206944e-15 356.582076"></polygon>
        <polygon id="path-13" points="2.83206944e-15 -1.12672175e-14 259.892471 -1.12672175e-14 259.892471 356.582076 2.83206944e-15 356.582076"></polygon>
        <polygon id="path-15" points="2.83206944e-15 -1.12672175e-14 259.892471 -1.12672175e-14 259.892471 356.582076 2.83206944e-15 356.582076"></polygon>
        <polygon id="path-17" points="2.83206944e-15 -1.12672175e-14 259.892471 -1.12672175e-14 259.892471 356.582076 2.83206944e-15 356.582076"></polygon>
        <polygon id="path-19" points="2.83206944e-15 -1.12672175e-14 259.892471 -1.12672175e-14 259.892471 356.582076 2.83206944e-15 356.582076"></polygon>
        <polygon id="path-21" points="2.83206944e-15 -1.12672175e-14 259.892471 -1.12672175e-14 259.892471 356.582076 2.83206944e-15 356.582076"></polygon>
        <polygon id="path-23" points="2.83206944e-15 -1.12672175e-14 259.892471 -1.12672175e-14 259.892471 356.582076 2.83206944e-15 356.582076"></polygon>
        <polygon id="path-25" points="2.83206944e-15 -1.12672175e-14 259.892471 -1.12672175e-14 259.892471 356.582076 2.83206944e-15 356.582076"></polygon>
        <polygon id="path-27" points="2.83206944e-15 -1.12672175e-14 259.892471 -1.12672175e-14 259.892471 356.582076 2.83206944e-15 356.582076"></polygon>
        <polygon id="path-29" points="2.83206944e-15 -1.12672175e-14 259.892471 -1.12672175e-14 259.892471 356.582076 2.83206944e-15 356.582076"></polygon>
        <polygon id="path-31" points="2.83206944e-15 -1.12672175e-14 259.892471 -1.12672175e-14 259.892471 356.582076 2.83206944e-15 356.582076"></polygon>
        <polygon id="path-33" points="2.83206944e-15 -1.12672175e-14 259.892471 -1.12672175e-14 259.892471 356.582076 2.83206944e-15 356.582076"></polygon>
        <polygon id="path-35" points="2.83206944e-15 -1.12672175e-14 259.892471 -1.12672175e-14 259.892471 356.582076 2.83206944e-15 356.582076"></polygon>
        <polygon id="path-37" points="2.83206944e-15 -1.12672175e-14 259.892471 -1.12672175e-14 259.892471 356.582076 2.83206944e-15 356.582076"></polygon>
        <polygon id="path-39" points="2.83206944e-15 -1.12672175e-14 259.892471 -1.12672175e-14 259.892471 356.582076 2.83206944e-15 356.582076"></polygon>
        <polygon id="path-41" points="3.11698099e-16 -1.3360337e-16 13.3982856 -1.3360337e-16 13.3982856 440.121314 3.11698099e-16 440.121314"></polygon>
        <polygon id="path-43" points="3.11698099e-16 -1.3360337e-16 13.3982856 -1.3360337e-16 13.3982856 440.121314 3.11698099e-16 440.121314"></polygon>
        <polygon id="path-45" points="-5.14301863e-15 -2.38259343e-15 526.654048 -2.38259343e-15 526.654048 445.843248 -5.14301863e-15 445.843248"></polygon>
        <polygon id="path-47" points="-5.14301863e-15 -2.38259343e-15 526.654048 -2.38259343e-15 526.654048 445.843248 -5.14301863e-15 445.843248"></polygon>
        <polygon id="path-49" points="1.04641505e-14 9.61944262e-15 345.939159 9.61944262e-15 345.939159 368.706654 1.04641505e-14 368.706654"></polygon>
        <polygon id="path-51" points="1.04641505e-14 9.61944262e-15 345.939159 9.61944262e-15 345.939159 368.706654 1.04641505e-14 368.706654"></polygon>
        <polygon id="path-53" points="1.04641505e-14 9.61944262e-15 345.939159 9.61944262e-15 345.939159 368.706654 1.04641505e-14 368.706654"></polygon>
        <polygon id="path-55" points="1.04641505e-14 9.61944262e-15 345.939159 9.61944262e-15 345.939159 368.706654 1.04641505e-14 368.706654"></polygon>
        <polygon id="path-57" points="1.04641505e-14 9.61944262e-15 345.939159 9.61944262e-15 345.939159 368.706654 1.04641505e-14 368.706654"></polygon>
        <polygon id="path-59" points="1.04641505e-14 9.61944262e-15 345.939159 9.61944262e-15 345.939159 368.706654 1.04641505e-14 368.706654"></polygon>
        <polygon id="path-61" points="5.42090057e-16 -5.37240736e-16 16.0000651 -5.37240736e-16 16.0000651 30.5368231 5.42090057e-16 30.5368231"></polygon>
        <polygon id="path-63" points="0 -5.37240736e-16 16.0001302 -5.37240736e-16 16.0001302 30.5368231 0 30.5368231"></polygon>
        <polygon id="path-65" points="0 -5.37240736e-16 16.0001302 -5.37240736e-16 16.0001302 30.5368231 0 30.5368231"></polygon>
        <polygon id="path-67" points="0 -5.37240736e-16 16.0001302 -5.37240736e-16 16.0001302 30.5368231 0 30.5368231"></polygon>
        <polygon id="path-69" points="-4.06567543e-16 2.68620368e-16 15.9983724 2.68620368e-16 15.9983724 14.5158127 -4.06567543e-16 14.5158127"></polygon>
        <polygon id="path-71" points="0 0 18.8030029 0 18.8030029 23.5466767 0 23.5466767"></polygon>
        <polygon id="path-73" points="2.71045029e-16 -2.68620368e-16 8.00003255 -2.68620368e-16 8.00003255 15.2684116 2.71045029e-16 15.2684116"></polygon>
        <polygon id="path-75" points="0 -2.68620368e-16 8.0000651 -2.68620368e-16 8.0000651 15.2684116 0 15.2684116"></polygon>
        <polygon id="path-77" points="0 -2.68620368e-16 8.0000651 -2.68620368e-16 8.0000651 15.2684116 0 15.2684116"></polygon>
        <polygon id="path-79" points="0 -2.68620368e-16 8.0000651 -2.68620368e-16 8.0000651 15.2684116 0 15.2684116"></polygon>
        <polygon id="path-81" points="-2.03283772e-16 1.34310184e-16 7.99918621 1.34310184e-16 7.99918621 7.25790634 -2.03283772e-16 7.25790634"></polygon>
        <polygon id="path-83" points="0 0 9.40150143 0 9.40150143 11.7733383 0 11.7733383"></polygon>
    </defs>
    <g id="Page-1" stroke="none" stroke-width="1" fill="none" fill-rule="evenodd">
        <g id="skyrETHocket" transform="translate(0.000000, 0.000000)">
            <g id="Group-30" transform="translate(0.000000, 18.000000)">
                <g id="Group-25" transform="translate(243.054195, 90.063144)">
                    <g id="Fill-3-Clipped">
                        <mask id="mask-2" fill="white">
                            <use xlink:href="#path-1"></use>
                        </mask>
                        <g id="path-1"></g>
                        <path d="M1.00344251,358.373144 C0.44922555,358.373144 2.83206944e-15,357.922143 2.83206944e-15,357.3668 L2.83206944e-15,346.634189 C2.83206944e-15,346.077984 0.44922555,345.627845 1.00344251,345.627845 C1.55852006,345.627845 2.00774561,346.077984 2.00774561,346.634189 L2.00774561,357.3668 C2.00774561,357.922143 1.55852006,358.373144 1.00344251,358.373144" id="Fill-3" fill="#BA8C41" fill-rule="nonzero" mask="url(#mask-2)"></path>
                    </g>
                    <g id="Fill-5-Clipped">
                        <mask id="mask-4" fill="white">
                            <use xlink:href="#path-3"></use>
                        </mask>
                        <g id="path-1"></g>
                        <path d="M11.676422,340.615959 C11.1213444,340.615959 10.6721188,340.165821 10.6721188,339.609615 L10.6721188,328.877004 C10.6721188,328.320799 11.1213444,327.87066 11.676422,327.87066 C12.2306389,327.87066 12.6798645,328.320799 12.6798645,328.877004 L12.6798645,339.609615 C12.6798645,340.165821 12.2306389,340.615959 11.676422,340.615959 Z M11.676422,358.586141 C11.1213444,358.586141 10.6721188,358.136002 10.6721188,357.579797 L10.6721188,355.709394 C10.6721188,355.153189 11.1213444,354.70305 11.676422,354.70305 C12.2306389,354.70305 12.6798645,355.153189 12.6798645,355.709394 L12.6798645,357.579797 C12.6798645,358.136002 12.2306389,358.586141 11.676422,358.586141 L11.676422,358.586141 Z" id="Fill-5" fill="#BA8C41" fill-rule="nonzero" mask="url(#mask-4)"></path>
                    </g>
                    <g id="Fill-6-Clipped">
                        <mask id="mask-6" fill="white">
                            <use xlink:href="#path-5"></use>
                        </mask>
                        <g id="path-1"></g>
                        <path d="M22.3485408,322.858773 C21.7934632,322.858773 21.3442378,322.408636 21.3442378,321.852429 L21.3442378,311.119819 C21.3442378,310.564475 21.7934632,310.113475 22.3485408,310.113475 C22.9027578,310.113475 23.3528439,310.564475 23.3528439,311.119819 L23.3528439,321.852429 C23.3528439,322.408636 22.9027578,322.858773 22.3485408,322.858773 Z M22.3485408,358.586141 C21.7934632,358.586141 21.3442378,358.136002 21.3442378,357.579797 L21.3442378,337.952209 C21.3442378,337.396003 21.7934632,336.945865 22.3485408,336.945865 C22.9027578,336.945865 23.3528439,337.396003 23.3528439,337.952209 L23.3528439,357.579797 C23.3528439,358.136002 22.9027578,358.586141 22.3485408,358.586141 L22.3485408,358.586141 Z" id="Fill-6" fill="#BA8C41" fill-rule="nonzero" mask="url(#mask-6)"></path>
                    </g>
                    <g id="Fill-7-Clipped">
                        <mask id="mask-8" fill="white">
                            <use xlink:href="#path-7"></use>
                        </mask>
                        <g id="path-1"></g>
                        <path d="M32.8185072,265.798984 C32.3751591,265.798984 32.0163566,265.348846 32.0163566,264.793503 L32.0163566,254.060029 C32.0163566,253.504686 32.3751591,253.054548 32.8185072,253.054548 C33.2611678,253.054548 33.6206577,253.504686 33.6206577,254.060029 L33.6206577,264.793503 C33.6206577,265.348846 33.2611678,265.798984 32.8185072,265.798984 Z M32.8185072,322.147348 C32.3751591,322.147348 32.0163566,321.696347 32.0163566,321.141004 L32.0163566,280.892419 C32.0163566,280.337076 32.3751591,279.886075 32.8185072,279.886075 C33.2611678,279.886075 33.6206577,280.337076 33.6206577,280.892419 L33.6206577,321.141004 C33.6206577,321.696347 33.2611678,322.147348 32.8185072,322.147348 Z M32.8185072,348.978875 C32.3751591,348.978875 32.0163566,348.528737 32.0163566,347.973394 L32.0163566,331.873615 C32.0163566,331.318272 32.3751591,330.867271 32.8185072,330.867271 C33.2611678,330.867271 33.6206577,331.318272 33.6206577,331.873615 L33.6206577,347.973394 C33.6206577,348.528737 33.2611678,348.978875 32.8185072,348.978875 L32.8185072,348.978875 Z" id="Fill-7" fill="#FFFFFF" fill-rule="nonzero" mask="url(#mask-8)"></path>
                    </g>
                    <g id="Fill-8-Clipped">
                        <mask id="mask-10" fill="white">
                            <use xlink:href="#path-9"></use>
                        </mask>
                        <g id="path-1"></g>
                        <path d="M43.6927785,287.345266 C43.137701,287.345266 42.6884755,286.895127 42.6884755,286.338922 L42.6884755,275.606311 C42.6884755,275.050105 43.137701,274.599967 43.6927785,274.599967 C44.2469955,274.599967 44.6962211,275.050105 44.6962211,275.606311 L44.6962211,286.338922 C44.6962211,286.895127 44.2469955,287.345266 43.6927785,287.345266 Z M43.6927785,343.692768 C43.137701,343.692768 42.6884755,343.242629 42.6884755,342.686424 L42.6884755,302.437839 C42.6884755,301.882495 43.137701,301.432357 43.6927785,301.432357 C44.2469955,301.432357 44.6962211,301.882495 44.6962211,302.437839 L44.6962211,342.686424 C44.6962211,343.242629 44.2469955,343.692768 43.6927785,343.692768 Z M43.6927785,358.586141 C43.137701,358.586141 42.6884755,358.136002 42.6884755,357.579797 L42.6884755,353.419896 C42.6884755,352.863691 43.137701,352.413552 43.6927785,352.413552 C44.2469955,352.413552 44.6962211,352.863691 44.6962211,353.419896 L44.6962211,357.579797 C44.6962211,358.136002 44.2469955,358.586141 43.6927785,358.586141 L43.6927785,358.586141 Z" id="Fill-8" fill="#FFFFFF" fill-rule="nonzero" mask="url(#mask-10)"></path>
                    </g>
                    <g id="Fill-9-Clipped">
                        <mask id="mask-12" fill="white">
                            <use xlink:href="#path-11"></use>
                        </mask>
                        <g id="path-1"></g>
                        <path d="M54.3648974,222.263182 C53.8098199,222.263182 53.3605943,221.813043 53.3605943,221.256838 L53.3605943,210.524226 C53.3605943,209.968883 53.8098199,209.517883 54.3648974,209.517883 C54.9191144,209.517883 55.3683399,209.968883 55.3683399,210.524226 L55.3683399,221.256838 C55.3683399,221.813043 54.9191144,222.263182 54.3648974,222.263182 Z M54.3648974,278.610683 C53.8098199,278.610683 53.3605943,278.160545 53.3605943,277.605201 L53.3605943,237.356616 C53.3605943,236.800411 53.8098199,236.350272 54.3648974,236.350272 C54.9191144,236.350272 55.3683399,236.800411 55.3683399,237.356616 L55.3683399,277.605201 C55.3683399,278.160545 54.9191144,278.610683 54.3648974,278.610683 Z M54.3648974,305.443073 C53.8098199,305.443073 53.3605943,304.992935 53.3605943,304.436729 L53.3605943,288.337812 C53.3605943,287.781607 53.8098199,287.331468 54.3648974,287.331468 C54.9191144,287.331468 55.3683399,287.781607 55.3683399,288.337812 L55.3683399,304.436729 C55.3683399,304.992935 54.9191144,305.443073 54.3648974,305.443073 Z M54.3648974,356.424269 C53.8098199,356.424269 53.3605943,355.974131 53.3605943,355.417924 L53.3605943,344.685314 C53.3605943,344.129108 53.8098199,343.67897 54.3648974,343.67897 C54.9191144,343.67897 55.3683399,344.129108 55.3683399,344.685314 L55.3683399,355.417924 C55.3683399,355.974131 54.9191144,356.424269 54.3648974,356.424269 L54.3648974,356.424269 Z" id="Fill-9" fill-opacity="0.2" fill="#FFFFFF" fill-rule="nonzero" mask="url(#mask-12)"></path>
                    </g>
                    <g id="Fill-10-Clipped">
                        <mask id="mask-14" fill="white">
                            <use xlink:href="#path-13"></use>
                        </mask>
                        <g id="path-1"></g>
                        <path d="M66.7246879,196.413853 C66.3921769,196.413853 66.123075,195.963715 66.123075,195.407508 L66.123075,184.674898 C66.123075,184.118693 66.3921769,183.668554 66.7246879,183.668554 C67.0566833,183.668554 67.3263008,184.118693 67.3263008,184.674898 L67.3263008,195.407508 C67.3263008,195.963715 67.0566833,196.413853 66.7246879,196.413853 Z M66.7246879,252.761354 C66.3921769,252.761354 66.123075,252.311216 66.123075,251.75501 L66.123075,211.506426 C66.123075,210.951083 66.3921769,210.500944 66.7246879,210.500944 C67.0566833,210.500944 67.3263008,210.951083 67.3263008,211.506426 L67.3263008,251.75501 C67.3263008,252.311216 67.0566833,252.761354 66.7246879,252.761354 Z M66.7246879,279.593744 C66.3921769,279.593744 66.123075,279.143606 66.123075,278.5874 L66.123075,262.488484 C66.123075,261.932278 66.3921769,261.482139 66.7246879,261.482139 C67.0566833,261.482139 67.3263008,261.932278 67.3263008,262.488484 L67.3263008,278.5874 C67.3263008,279.143606 67.0566833,279.593744 66.7246879,279.593744 Z M66.7246879,330.57494 C66.3921769,330.57494 66.123075,330.123939 66.123075,329.568596 L66.123075,318.835985 C66.123075,318.27978 66.3921769,317.829641 66.7246879,317.829641 C67.0566833,317.829641 67.3263008,318.27978 67.3263008,318.835985 L67.3263008,329.568596 C67.3263008,330.123939 67.0566833,330.57494 66.7246879,330.57494 Z M66.7246879,358.586141 C66.3921769,358.586141 66.123075,358.136002 66.123075,357.579797 L66.123075,345.667512 C66.123075,345.112169 66.3921769,344.662031 66.7246879,344.662031 C67.0566833,344.662031 67.3263008,345.112169 67.3263008,345.667512 L67.3263008,357.579797 C67.3263008,358.136002 67.0566833,358.586141 66.7246879,358.586141 L66.7246879,358.586141 Z" id="Fill-10" fill="#FFFFFF" fill-rule="nonzero" mask="url(#mask-14)"></path>
                    </g>
                    <g id="Fill-11-Clipped">
                        <mask id="mask-16" fill="white">
                            <use xlink:href="#path-15"></use>
                        </mask>
                        <g id="path-1"></g>
                        <path d="M79.386202,171.757132 C79.1101625,171.757132 78.8864163,171.306994 78.8864163,170.751651 L78.8864163,160.018177 C78.8864163,159.462834 79.1101625,159.012696 79.386202,159.012696 C79.66267,159.012696 79.8864163,159.462834 79.8864163,160.018177 L79.8864163,170.751651 C79.8864163,171.306994 79.66267,171.757132 79.386202,171.757132 Z M79.386202,228.105496 C79.1101625,228.105496 78.8864163,227.655357 78.8864163,227.099152 L78.8864163,186.850567 C78.8864163,186.295224 79.1101625,185.844223 79.386202,185.844223 C79.66267,185.844223 79.8864163,186.295224 79.8864163,186.850567 L79.8864163,227.099152 C79.8864163,227.655357 79.66267,228.105496 79.386202,228.105496 Z M79.386202,254.937023 C79.1101625,254.937023 78.8864163,254.486885 78.8864163,253.931542 L78.8864163,237.831763 C78.8864163,237.27642 79.1101625,236.826281 79.386202,236.826281 C79.66267,236.826281 79.8864163,237.27642 79.8864163,237.831763 L79.8864163,253.931542 C79.8864163,254.486885 79.66267,254.937023 79.386202,254.937023 Z M79.386202,305.918219 C79.1101625,305.918219 78.8864163,305.468081 78.8864163,304.912738 L78.8864163,294.179264 C78.8864163,293.623921 79.1101625,293.173783 79.386202,293.173783 C79.66267,293.173783 79.8864163,293.623921 79.8864163,294.179264 L79.8864163,304.912738 C79.8864163,305.468081 79.66267,305.918219 79.386202,305.918219 Z M79.386202,358.586141 C79.1101625,358.586141 78.8864163,358.136002 78.8864163,357.579797 L78.8864163,321.011654 C78.8864163,320.456311 79.1101625,320.00531 79.386202,320.00531 C79.66267,320.00531 79.8864163,320.456311 79.8864163,321.011654 L79.8864163,357.579797 C79.8864163,358.136002 79.66267,358.586141 79.386202,358.586141 L79.386202,358.586141 Z" id="Fill-11" fill-opacity="0.2" fill="#FF990F" fill-rule="nonzero" mask="url(#mask-16)"></path>
                    </g>
                    <g id="Fill-12-Clipped">
                        <mask id="mask-18" fill="white">
                            <use xlink:href="#path-17"></use>
                        </mask>
                        <g id="path-1"></g>
                        <path d="M92.1488967,103.899195 C91.8725477,103.899195 91.6488967,103.449056 91.6488967,102.89285 L91.6488967,92.1602395 C91.6488967,91.6048957 91.8725477,91.1538956 92.1488967,91.1538956 C92.4252467,91.1538956 92.6488967,91.6048957 92.6488967,92.1602395 L92.6488967,102.89285 C92.6488967,103.449056 92.4252467,103.899195 92.1488967,103.899195 Z M92.1488967,160.246696 C91.8725477,160.246696 91.6488967,159.796557 91.6488967,159.241214 L91.6488967,118.992629 C91.6488967,118.436424 91.8725477,117.986285 92.1488967,117.986285 C92.4252467,117.986285 92.6488967,118.436424 92.6488967,118.992629 L92.6488967,159.241214 C92.6488967,159.796557 92.4252467,160.246696 92.1488967,160.246696 Z M92.1488967,187.079086 C91.8725477,187.079086 91.6488967,186.628947 91.6488967,186.072742 L91.6488967,169.973825 C91.6488967,169.417619 91.8725477,168.967481 92.1488967,168.967481 C92.4252467,168.967481 92.6488967,169.417619 92.6488967,169.973825 L92.6488967,186.072742 C92.6488967,186.628947 92.4252467,187.079086 92.1488967,187.079086 Z M92.1488967,238.060281 C91.8725477,238.060281 91.6488967,237.610143 91.6488967,237.053938 L91.6488967,226.321326 C91.6488967,225.765121 91.8725477,225.314982 92.1488967,225.314982 C92.4252467,225.314982 92.6488967,225.765121 92.6488967,226.321326 L92.6488967,237.053938 C92.6488967,237.610143 92.4252467,238.060281 92.1488967,238.060281 Z M92.1488967,294.407783 C91.8725477,294.407783 91.6488967,293.957644 91.6488967,293.401439 L91.6488967,253.153716 C91.6488967,252.597511 91.8725477,252.147372 92.1488967,252.147372 C92.4252467,252.147372 92.6488967,252.597511 92.6488967,253.153716 L92.6488967,293.401439 C92.6488967,293.957644 92.4252467,294.407783 92.1488967,294.407783 Z M92.1488967,321.240172 C91.8725477,321.240172 91.6488967,320.790034 91.6488967,320.233828 L91.6488967,304.134912 C91.6488967,303.578707 91.8725477,303.128568 92.1488967,303.128568 C92.4252467,303.128568 92.6488967,303.578707 92.6488967,304.134912 L92.6488967,320.233828 C92.6488967,320.790034 92.4252467,321.240172 92.1488967,321.240172 L92.1488967,321.240172 Z" id="Fill-12" fill="#FFFFFF" fill-rule="nonzero" mask="url(#mask-18)"></path>
                    </g>
                    <g id="Fill-13-Clipped">
                        <mask id="mask-20" fill="white">
                            <use xlink:href="#path-19"></use>
                        </mask>
                        <g id="path-1"></g>
                        <path d="M105.415681,44.0368188 C104.861464,44.0368188 104.412238,43.5866804 104.412238,43.0304748 L104.412238,32.2978639 C104.412238,31.7425206 104.861464,31.2915199 105.415681,31.2915199 C105.970758,31.2915199 106.419984,31.7425206 106.419984,32.2978639 L106.419984,43.0304748 C106.419984,43.5866804 105.970758,44.0368188 105.415681,44.0368188 Z M105.415681,100.38432 C104.861464,100.38432 104.412238,99.9341819 104.412238,99.3788388 L104.412238,59.1302537 C104.412238,58.5749105 104.861464,58.1239097 105.415681,58.1239097 C105.970758,58.1239097 106.419984,58.5749105 106.419984,59.1302537 L106.419984,99.3788388 C106.419984,99.9341819 105.970758,100.38432 105.415681,100.38432 Z M105.415681,127.21671 C104.861464,127.21671 104.412238,126.766572 104.412238,126.210366 L104.412238,110.111449 C104.412238,109.555244 104.861464,109.105105 105.415681,109.105105 C105.970758,109.105105 106.419984,109.555244 106.419984,110.111449 L106.419984,126.210366 C106.419984,126.766572 105.970758,127.21671 105.415681,127.21671 Z M105.415681,178.197906 C104.861464,178.197906 104.412238,177.747768 104.412238,177.191562 L104.412238,166.458951 C104.412238,165.902746 104.861464,165.452607 105.415681,165.452607 C105.970758,165.452607 106.419984,165.902746 106.419984,166.458951 L106.419984,177.191562 C106.419984,177.747768 105.970758,178.197906 105.415681,178.197906 Z M105.415681,234.545407 C104.861464,234.545407 104.412238,234.095269 104.412238,233.539926 L104.412238,193.291341 C104.412238,192.735135 104.861464,192.284997 105.415681,192.284997 C105.970758,192.284997 106.419984,192.735135 106.419984,193.291341 L106.419984,233.539926 C106.419984,234.095269 105.970758,234.545407 105.415681,234.545407 Z M105.415681,261.377797 C104.861464,261.377797 104.412238,260.927659 104.412238,260.371453 L104.412238,244.272537 C104.412238,243.716331 104.861464,243.266193 105.415681,243.266193 C105.970758,243.266193 106.419984,243.716331 106.419984,244.272537 L106.419984,260.371453 C106.419984,260.927659 105.970758,261.377797 105.415681,261.377797 Z M105.415681,312.358993 C104.861464,312.358993 104.412238,311.908855 104.412238,311.352649 L104.412238,300.620038 C104.412238,300.063832 104.861464,299.613694 105.415681,299.613694 C105.970758,299.613694 106.419984,300.063832 106.419984,300.620038 L106.419984,311.352649 C106.419984,311.908855 105.970758,312.358993 105.415681,312.358993 Z M105.415681,358.586141 C104.861464,358.586141 104.412238,358.136002 104.412238,357.579797 L104.412238,327.452428 C104.412238,326.896222 104.861464,326.446084 105.415681,326.446084 C105.970758,326.446084 106.419984,326.896222 106.419984,327.452428 L106.419984,357.579797 C106.419984,358.136002 105.970758,358.586141 105.415681,358.586141 L105.415681,358.586141 Z" id="Fill-13" fill="#FFFFFF" fill-rule="nonzero" mask="url(#mask-20)"></path>
                    </g>
                    <g id="Fill-14-Clipped">
                        <mask id="mask-22" fill="white">
                            <use xlink:href="#path-21"></use>
                        </mask>
                        <g id="path-1"></g>
                        <path d="M117.776331,25.0111401 C117.443821,25.0111401 117.174719,24.5610017 117.174719,24.0056585 L117.174719,13.2721852 C117.174719,12.716842 117.443821,12.2667035 117.776331,12.2667035 C118.108327,12.2667035 118.377944,12.716842 118.377944,13.2721852 L118.377944,24.0056585 C118.377944,24.5610017 118.108327,25.0111401 117.776331,25.0111401 Z M117.776331,81.3595036 C117.443821,81.3595036 117.174719,80.9085027 117.174719,80.3531596 L117.174719,40.104575 C117.174719,39.5492318 117.443821,39.098231 117.776331,39.098231 C118.108327,39.098231 118.377944,39.5492318 118.377944,40.104575 L118.377944,80.3531596 C118.377944,80.9085027 118.108327,81.3595036 117.776331,81.3595036 Z M117.776331,108.191031 C117.443821,108.191031 117.174719,107.740893 117.174719,107.18555 L117.174719,91.0857708 C117.174719,90.5304278 117.443821,90.0794269 117.776331,90.0794269 C118.108327,90.0794269 118.377944,90.5304278 118.377944,91.0857708 L118.377944,107.18555 C118.377944,107.740893 118.108327,108.191031 117.776331,108.191031 Z M117.776331,159.172227 C117.443821,159.172227 117.174719,158.722088 117.174719,158.166745 L117.174719,147.433272 C117.174719,146.877929 117.443821,146.426928 117.776331,146.426928 C118.108327,146.426928 118.377944,146.877929 118.377944,147.433272 L118.377944,158.166745 C118.377944,158.722088 118.108327,159.172227 117.776331,159.172227 Z M117.776331,215.520591 C117.443821,215.520591 117.174719,215.06959 117.174719,214.514247 L117.174719,174.265662 C117.174719,173.709456 117.443821,173.259318 117.776331,173.259318 C118.108327,173.259318 118.377944,173.709456 118.377944,174.265662 L118.377944,214.514247 C118.377944,215.06959 118.108327,215.520591 117.776331,215.520591 Z M117.776331,242.352119 C117.443821,242.352119 117.174719,241.90198 117.174719,241.345775 L117.174719,225.246858 C117.174719,224.691515 117.443821,224.240514 117.776331,224.240514 C118.108327,224.240514 118.377944,224.691515 118.377944,225.246858 L118.377944,241.345775 C118.377944,241.90198 118.108327,242.352119 117.776331,242.352119 Z M117.776331,293.333315 C117.443821,293.333315 117.174719,292.883176 117.174719,292.327832 L117.174719,281.59436 C117.174719,281.039016 117.443821,280.588016 117.776331,280.588016 C118.108327,280.588016 118.377944,281.039016 118.377944,281.59436 L118.377944,292.327832 C118.377944,292.883176 118.108327,293.333315 117.776331,293.333315 Z M117.776331,349.680816 C117.443821,349.680816 117.174719,349.230677 117.174719,348.675334 L117.174719,308.426749 C117.174719,307.871406 117.443821,307.420405 117.776331,307.420405 C118.108327,307.420405 118.377944,307.871406 118.377944,308.426749 L118.377944,348.675334 C118.377944,349.230677 118.108327,349.680816 117.776331,349.680816 L117.776331,349.680816 Z" id="Fill-14" fill="#FF990F" fill-rule="nonzero" mask="url(#mask-22)"></path>
                    </g>
                    <g id="Fill-15-Clipped">
                        <mask id="mask-24" fill="white">
                            <use xlink:href="#path-23"></use>
                        </mask>
                        <g id="path-1"></g>
                        <path d="M258.888168,358.373144 C258.33309,358.373144 257.883865,357.922143 257.883865,357.3668 L257.883865,346.634189 C257.883865,346.077984 258.33309,345.627845 258.888168,345.627845 C259.442385,345.627845 259.892471,346.077984 259.892471,346.634189 L259.892471,357.3668 C259.892471,357.922143 259.442385,358.373144 258.888168,358.373144" id="Fill-15" fill="#BA8C41" fill-rule="nonzero" mask="url(#mask-24)"></path>
                    </g>
                    <g id="Fill-16-Clipped">
                        <mask id="mask-26" fill="white">
                            <use xlink:href="#path-25"></use>
                        </mask>
                        <g id="path-1"></g>
                        <path d="M248.216049,340.615959 C247.660972,340.615959 247.211746,340.165821 247.211746,339.609615 L247.211746,328.877004 C247.211746,328.320799 247.660972,327.87066 248.216049,327.87066 C248.770266,327.87066 249.220352,328.320799 249.220352,328.877004 L249.220352,339.609615 C249.220352,340.165821 248.770266,340.615959 248.216049,340.615959 Z M248.216049,358.586141 C247.660972,358.586141 247.211746,358.136002 247.211746,357.579797 L247.211746,355.709394 C247.211746,355.153189 247.660972,354.70305 248.216049,354.70305 C248.770266,354.70305 249.220352,355.153189 249.220352,355.709394 L249.220352,357.579797 C249.220352,358.136002 248.770266,358.586141 248.216049,358.586141 L248.216049,358.586141 Z" id="Fill-16" fill="#BA8C41" fill-rule="nonzero" mask="url(#mask-26)"></path>
                    </g>
                    <g id="Fill-17-Clipped">
                        <mask id="mask-28" fill="white">
                            <use xlink:href="#path-27"></use>
                        </mask>
                        <g id="path-1"></g>
                        <path d="M237.54307,322.858773 C236.988853,322.858773 236.538767,322.408636 236.538767,321.852429 L236.538767,311.119819 C236.538767,310.564475 236.988853,310.113475 237.54307,310.113475 C238.098148,310.113475 238.547373,310.564475 238.547373,311.119819 L238.547373,321.852429 C238.547373,322.408636 238.098148,322.858773 237.54307,322.858773 Z M237.54307,358.586141 C236.988853,358.586141 236.538767,358.136002 236.538767,357.579797 L236.538767,337.952209 C236.538767,337.396003 236.988853,336.945865 237.54307,336.945865 C238.098148,336.945865 238.547373,337.396003 238.547373,337.952209 L238.547373,357.579797 C238.547373,358.136002 238.098148,358.586141 237.54307,358.586141 L237.54307,358.586141 Z" id="Fill-17" fill="#BA8C41" fill-rule="nonzero" mask="url(#mask-28)"></path>
                    </g>
                    <g id="Fill-18-Clipped">
                        <mask id="mask-30" fill="white">
                            <use xlink:href="#path-29"></use>
                        </mask>
                        <g id="path-1"></g>
                        <path d="M226.668799,236.54861 C226.226138,236.54861 225.866648,236.098471 225.866648,235.542265 L225.866648,224.809655 C225.866648,224.253449 226.226138,223.803311 226.668799,223.803311 C227.112147,223.803311 227.470949,224.253449 227.470949,224.809655 L227.470949,235.542265 C227.470949,236.098471 227.112147,236.54861 226.668799,236.54861 Z M226.668799,292.896111 C226.226138,292.896111 225.866648,292.445973 225.866648,291.889767 L225.866648,251.641182 C225.866648,251.085839 226.226138,250.635701 226.668799,250.635701 C227.112147,250.635701 227.470949,251.085839 227.470949,251.641182 L227.470949,291.889767 C227.470949,292.445973 227.112147,292.896111 226.668799,292.896111 Z M226.668799,319.728501 C226.226138,319.728501 225.866648,319.278362 225.866648,318.722157 L225.866648,302.623241 C225.866648,302.067034 226.226138,301.616896 226.668799,301.616896 C227.112147,301.616896 227.470949,302.067034 227.470949,302.623241 L227.470949,318.722157 C227.470949,319.278362 227.112147,319.728501 226.668799,319.728501 L226.668799,319.728501 Z" id="Fill-18" fill="#FFFFFF" fill-rule="nonzero" mask="url(#mask-30)"></path>
                    </g>
                    <g id="Fill-19-Clipped">
                        <mask id="mask-32" fill="white">
                            <use xlink:href="#path-31"></use>
                        </mask>
                        <g id="path-1"></g>
                        <path d="M212.968902,285.740743 C212.303595,285.740743 211.76516,285.290604 211.76516,284.734399 L211.76516,274.001788 C211.76516,273.445582 212.303595,272.995444 212.968902,272.995444 C213.633177,272.995444 214.171612,273.445582 214.171612,274.001788 L214.171612,284.734399 C214.171612,285.290604 213.633177,285.740743 212.968902,285.740743 Z M212.968902,342.088245 C212.303595,342.088245 211.76516,341.638106 211.76516,341.081901 L211.76516,300.833316 C211.76516,300.277972 212.303595,299.827834 212.968902,299.827834 C213.633177,299.827834 214.171612,300.277972 214.171612,300.833316 L214.171612,341.081901 C214.171612,341.638106 213.633177,342.088245 212.968902,342.088245 Z M212.968902,356.981618 C212.303595,356.981618 211.76516,356.531479 211.76516,355.975274 L211.76516,351.815373 C211.76516,351.259168 212.303595,350.80903 212.968902,350.80903 C213.633177,350.80903 214.171612,351.259168 214.171612,351.815373 L214.171612,355.975274 C214.171612,356.531479 213.633177,356.981618 212.968902,356.981618 L212.968902,356.981618 Z" id="Fill-19" fill="#FFFFFF" fill-rule="nonzero" mask="url(#mask-32)"></path>
                    </g>
                    <g id="Fill-21-Clipped">
                        <mask id="mask-34" fill="white">
                            <use xlink:href="#path-33"></use>
                        </mask>
                        <g id="path-1"></g>
                        <path d="M192.260576,148.795761 C191.984536,148.795761 191.76079,148.345622 191.76079,147.789417 L191.76079,137.056805 C191.76079,136.5006 191.984536,136.050462 192.260576,136.050462 C192.537044,136.050462 192.76079,136.5006 192.76079,137.056805 L192.76079,147.789417 C192.76079,148.345622 192.537044,148.795761 192.260576,148.795761 Z M192.260576,205.143262 C191.984536,205.143262 191.76079,204.693123 191.76079,204.13778 L191.76079,163.889195 C191.76079,163.33299 191.984536,162.882851 192.260576,162.882851 C192.537044,162.882851 192.76079,163.33299 192.76079,163.889195 L192.76079,204.13778 C192.76079,204.693123 192.537044,205.143262 192.260576,205.143262 Z M192.260576,231.975651 C191.984536,231.975651 191.76079,231.525513 191.76079,230.969308 L191.76079,214.870391 C191.76079,214.314186 191.984536,213.864047 192.260576,213.864047 C192.537044,213.864047 192.76079,214.314186 192.76079,214.870391 L192.76079,230.969308 C192.76079,231.525513 192.537044,231.975651 192.260576,231.975651 Z M192.260576,282.956847 C191.984536,282.956847 191.76079,282.506709 191.76079,281.950503 L191.76079,271.217892 C191.76079,270.661687 191.984536,270.211548 192.260576,270.211548 C192.537044,270.211548 192.76079,270.661687 192.76079,271.217892 L192.76079,281.950503 C192.76079,282.506709 192.537044,282.956847 192.260576,282.956847 Z M192.260576,339.304348 C191.984536,339.304348 191.76079,338.85421 191.76079,338.298005 L191.76079,298.050282 C191.76079,297.494077 191.984536,297.043938 192.260576,297.043938 C192.537044,297.043938 192.76079,297.494077 192.76079,298.050282 L192.76079,338.298005 C192.76079,338.85421 192.537044,339.304348 192.260576,339.304348 Z M192.260576,358.586141 C191.984536,358.586141 191.76079,358.136002 191.76079,357.579797 L191.76079,349.031478 C191.76079,348.475273 191.984536,348.025134 192.260576,348.025134 C192.537044,348.025134 192.76079,348.475273 192.76079,349.031478 L192.76079,357.579797 C192.76079,358.136002 192.537044,358.586141 192.260576,358.586141 L192.260576,358.586141 Z" id="Fill-21" fill-opacity="0.2" fill="#FF990F" fill-rule="nonzero" mask="url(#mask-34)"></path>
                    </g>
                    <g id="Fill-22-Clipped">
                        <mask id="mask-36" fill="white">
                            <use xlink:href="#path-35"></use>
                        </mask>
                        <g id="path-1"></g>
                        <path d="M180.001752,171.757132 C179.446675,171.757132 178.997449,171.306994 178.997449,170.751651 L178.997449,160.018177 C178.997449,159.462834 179.446675,159.012696 180.001752,159.012696 C180.555969,159.012696 181.006055,159.462834 181.006055,160.018177 L181.006055,170.751651 C181.006055,171.306994 180.555969,171.757132 180.001752,171.757132 Z M180.001752,228.105496 C179.446675,228.105496 178.997449,227.655357 178.997449,227.099152 L178.997449,186.850567 C178.997449,186.295224 179.446675,185.844223 180.001752,185.844223 C180.555969,185.844223 181.006055,186.295224 181.006055,186.850567 L181.006055,227.099152 C181.006055,227.655357 180.555969,228.105496 180.001752,228.105496 Z M180.001752,254.937023 C179.446675,254.937023 178.997449,254.486885 178.997449,253.931542 L178.997449,237.831763 C178.997449,237.27642 179.446675,236.826281 180.001752,236.826281 C180.555969,236.826281 181.006055,237.27642 181.006055,237.831763 L181.006055,253.931542 C181.006055,254.486885 180.555969,254.937023 180.001752,254.937023 Z M180.001752,305.918219 C179.446675,305.918219 178.997449,305.468081 178.997449,304.912738 L178.997449,294.179264 C178.997449,293.623921 179.446675,293.173783 180.001752,293.173783 C180.555969,293.173783 181.006055,293.623921 181.006055,294.179264 L181.006055,304.912738 C181.006055,305.468081 180.555969,305.918219 180.001752,305.918219 Z M180.001752,358.586141 C179.446675,358.586141 178.997449,358.136002 178.997449,357.579797 L178.997449,321.011654 C178.997449,320.456311 179.446675,320.00531 180.001752,320.00531 C180.555969,320.00531 181.006055,320.456311 181.006055,321.011654 L181.006055,357.579797 C181.006055,358.136002 180.555969,358.586141 180.001752,358.586141 L180.001752,358.586141 Z" id="Fill-22" fill="#FF990F" fill-rule="nonzero" mask="url(#mask-36)"></path>
                    </g>
                    <g id="Fill-23-Clipped">
                        <mask id="mask-38" fill="white">
                            <use xlink:href="#path-37"></use>
                        </mask>
                        <g id="path-1"></g>
                        <path d="M166.83572,46.8350932 C166.503725,46.8350932 166.234107,46.3840924 166.234107,45.8287492 L166.234107,35.0952759 C166.234107,34.5399327 166.503725,34.0897942 166.83572,34.0897942 C167.168232,34.0897942 167.437333,34.5399327 167.437333,35.0952759 L167.437333,45.8287492 C167.437333,46.3840924 167.168232,46.8350932 166.83572,46.8350932 Z M166.83572,103.182595 C166.503725,103.182595 166.234107,102.732456 166.234107,102.176251 L166.234107,61.9276657 C166.234107,61.3723226 166.503725,60.9213217 166.83572,60.9213217 C167.168232,60.9213217 167.437333,61.3723226 167.437333,61.9276657 L167.437333,102.176251 C167.437333,102.732456 167.168232,103.182595 166.83572,103.182595 Z M166.83572,130.014984 C166.503725,130.014984 166.234107,129.563984 166.234107,129.008641 L166.234107,112.908862 C166.234107,112.353518 166.503725,111.90338 166.83572,111.90338 C167.168232,111.90338 167.437333,112.353518 167.437333,112.908862 L167.437333,129.008641 C167.437333,129.563984 167.168232,130.014984 166.83572,130.014984 Z M166.83572,180.995318 C166.503725,180.995318 166.234107,180.545179 166.234107,179.989836 L166.234107,169.256363 C166.234107,168.70102 166.503725,168.250881 166.83572,168.250881 C167.168232,168.250881 167.437333,168.70102 167.437333,169.256363 L167.437333,179.989836 C167.437333,180.545179 167.168232,180.995318 166.83572,180.995318 Z M166.83572,237.343681 C166.503725,237.343681 166.234107,236.892681 166.234107,236.337338 L166.234107,196.088753 C166.234107,195.53341 166.503725,195.082409 166.83572,195.082409 C167.168232,195.082409 167.437333,195.53341 167.437333,196.088753 L167.437333,236.337338 C167.437333,236.892681 167.168232,237.343681 166.83572,237.343681 Z M166.83572,264.175209 C166.503725,264.175209 166.234107,263.72507 166.234107,263.169727 L166.234107,247.069949 C166.234107,246.514606 166.503725,246.063605 166.83572,246.063605 C167.168232,246.063605 167.437333,246.514606 167.437333,247.069949 L167.437333,263.169727 C167.437333,263.72507 167.168232,264.175209 166.83572,264.175209 Z M166.83572,315.156405 C166.503725,315.156405 166.234107,314.706266 166.234107,314.150061 L166.234107,303.41745 C166.234107,302.862107 166.503725,302.411106 166.83572,302.411106 C167.168232,302.411106 167.437333,302.862107 167.437333,303.41745 L167.437333,314.150061 C167.437333,314.706266 167.168232,315.156405 166.83572,315.156405 Z M166.83572,358.586141 C166.503725,358.586141 166.234107,358.136002 166.234107,357.579797 L166.234107,330.24984 C166.234107,329.694497 166.503725,329.243496 166.83572,329.243496 C167.168232,329.243496 167.437333,329.694497 167.437333,330.24984 L167.437333,357.579797 C167.437333,358.136002 167.168232,358.586141 166.83572,358.586141 L166.83572,358.586141 Z" id="Fill-23" fill="#FFFFFF" fill-rule="nonzero" mask="url(#mask-38)"></path>
                    </g>
                    <g id="Fill-24-Clipped">
                        <mask id="mask-40" fill="white">
                            <use xlink:href="#path-39"></use>
                        </mask>
                        <g id="path-1"></g>
                        <path d="M153.971627,12.745299 C153.695277,12.745299 153.471627,12.2951605 153.471627,11.738955 L153.471627,1.00634397 C153.471627,0.450138435 153.695277,0 153.971627,0 C154.247548,0 154.471627,0.450138435 154.471627,1.00634397 L154.471627,11.738955 C154.471627,12.2951605 154.247548,12.745299 153.971627,12.745299 Z M153.971627,69.0928003 C153.695277,69.0928003 153.471627,68.6426618 153.471627,68.0873187 L153.471627,27.8387339 C153.471627,27.2825283 153.695277,26.8323899 153.971627,26.8323899 C154.247548,26.8323899 154.471627,27.2825283 154.471627,27.8387339 L154.471627,68.0873187 C154.471627,68.6426618 154.247548,69.0928003 153.971627,69.0928003 Z M153.971627,95.9251899 C153.695277,95.9251899 153.471627,95.4750515 153.471627,94.918846 L153.471627,78.8199297 C153.471627,78.2637242 153.695277,77.8135857 153.971627,77.8135857 C154.247548,77.8135857 154.471627,78.2637242 154.471627,78.8199297 L154.471627,94.918846 C154.471627,95.4750515 154.247548,95.9251899 153.971627,95.9251899 Z M153.971627,146.906386 C153.695277,146.906386 153.471627,146.456247 153.471627,145.900042 L153.471627,135.167431 C153.471627,134.611225 153.695277,134.161087 153.971627,134.161087 C154.247548,134.161087 154.471627,134.611225 154.471627,135.167431 L154.471627,145.900042 C154.471627,146.456247 154.247548,146.906386 153.971627,146.906386 Z M153.971627,203.253888 C153.695277,203.253888 153.471627,202.803749 153.471627,202.247544 L153.471627,161.999821 C153.471627,161.443615 153.695277,160.993477 153.971627,160.993477 C154.247548,160.993477 154.471627,161.443615 154.471627,161.999821 L154.471627,202.247544 C154.471627,202.803749 154.247548,203.253888 153.971627,203.253888 Z M153.971627,230.086278 C153.695277,230.086278 153.471627,229.636139 153.471627,229.079934 L153.471627,212.981017 C153.471627,212.424811 153.695277,211.974673 153.971627,211.974673 C154.247548,211.974673 154.471627,212.424811 154.471627,212.981017 L154.471627,229.079934 C154.471627,229.636139 154.247548,230.086278 153.971627,230.086278 Z M153.971627,281.067473 C153.695277,281.067473 153.471627,280.616473 153.471627,280.061129 L153.471627,269.328518 C153.471627,268.772312 153.695277,268.322175 153.971627,268.322175 C154.247548,268.322175 154.471627,268.772312 154.471627,269.328518 L154.471627,280.061129 C154.471627,280.616473 154.247548,281.067473 153.971627,281.067473 Z M153.971627,337.414975 C153.695277,337.414975 153.471627,336.964836 153.471627,336.408631 L153.471627,296.160046 C153.471627,295.604703 153.695277,295.154564 153.971627,295.154564 C154.247548,295.154564 154.471627,295.604703 154.471627,296.160046 L154.471627,336.408631 C154.471627,336.964836 154.247548,337.414975 153.971627,337.414975 Z M153.971627,358.586141 C153.695277,358.586141 153.471627,358.136002 153.471627,357.579797 L153.471627,347.142104 C153.471627,346.585898 153.695277,346.13576 153.971627,346.13576 C154.247548,346.13576 154.471627,346.585898 154.471627,347.142104 L154.471627,357.579797 C154.471627,358.136002 154.247548,358.586141 153.971627,358.586141 L153.971627,358.586141 Z" id="Fill-24" fill="#FF990F" fill-rule="nonzero" opacity="0.2" mask="url(#mask-40)"></path>
                    </g>
                </g>
                <path d="M385.031914,109.841146 C384.589063,109.841146 384.230108,109.400634 384.230108,108.857166 L384.230108,103.604773 C384.230108,103.061305 384.589063,102.620793 385.031914,102.620793 C385.475453,102.620793 385.834409,103.061305 385.834409,103.604773 L385.834409,108.857166 C385.834409,109.400634 385.475453,109.841146 385.031914,109.841146" id="Fill-26" fill-opacity="0.5" fill="#FF990F" fill-rule="nonzero"></path>
                <path d="M385.031914,157.811317 C384.589063,157.811317 384.230108,157.364634 384.230108,156.814606 L384.230108,122.870925 C384.230108,122.320897 384.589063,121.875068 385.031914,121.875068 C385.475453,121.875068 385.834409,122.320897 385.834409,122.870925 L385.834409,156.814606 C385.834409,157.364634 385.475453,157.811317 385.031914,157.811317 Z M385.031914,180.440153 C384.589063,180.440153 384.230108,179.994324 384.230108,179.443442 L384.230108,165.86614 C384.230108,165.316114 384.589063,164.86943 385.031914,164.86943 C385.475453,164.86943 385.834409,165.316114 385.834409,165.86614 L385.834409,179.443442 C385.834409,179.994324 385.475453,180.440153 385.031914,180.440153 L385.031914,180.440153 Z" id="Fill-27" fill-opacity="0.5" fill="#FF990F" fill-rule="nonzero"></path>
                <g id="Group-32" transform="translate(372.302199, 6.524060)">
                    <g id="Fill-28-Clipped">
                        <mask id="mask-42" fill="white">
                            <use xlink:href="#path-41"></use>
                        </mask>
                        <g id="path-3"></g>
                        <path d="M12.4214754,217.657289 C11.8824303,217.657289 11.4455024,217.207626 11.4455024,216.65287 L11.4455024,207.523517 C11.4455024,206.967899 11.8824303,206.518237 12.4214754,206.518237 C12.9613576,206.518237 13.3982856,206.967899 13.3982856,207.523517 L13.3982856,216.65287 C13.3982856,217.207626 12.9613576,217.657289 12.4214754,217.657289 Z M12.4214754,265.586824 C11.8824303,265.586824 11.4455024,265.137161 11.4455024,264.581544 L11.4455024,230.3469 C11.4455024,229.791283 11.8824303,229.34162 12.4214754,229.34162 C12.9613576,229.34162 13.3982856,229.791283 13.3982856,230.3469 L13.3982856,264.581544 C13.3982856,265.137161 12.9613576,265.586824 12.4214754,265.586824 Z M12.4214754,288.410207 C11.8824303,288.410207 11.4455024,287.960545 11.4455024,287.404927 L11.4455024,273.710897 C11.4455024,273.156141 11.8824303,272.706479 12.4214754,272.706479 C12.9613576,272.706479 13.3982856,273.156141 13.3982856,273.710897 L13.3982856,287.404927 C13.3982856,287.960545 12.9613576,288.410207 12.4214754,288.410207 Z M12.4214754,331.775065 C11.8824303,331.775065 11.4455024,331.324542 11.4455024,330.769786 L11.4455024,321.640433 C11.4455024,321.084815 11.8824303,320.635152 12.4214754,320.635152 C12.9613576,320.635152 13.3982856,321.084815 13.3982856,321.640433 L13.3982856,330.769786 C13.3982856,331.324542 12.9613576,331.775065 12.4214754,331.775065 Z M12.4214754,379.70374 C11.8824303,379.70374 11.4455024,379.254077 11.4455024,378.69846 L11.4455024,344.463816 C11.4455024,343.908199 11.8824303,343.458536 12.4214754,343.458536 C12.9613576,343.458536 13.3982856,343.908199 13.3982856,344.463816 L13.3982856,378.69846 C13.3982856,379.254077 12.9613576,379.70374 12.4214754,379.70374 Z M12.4214754,402.527123 C11.8824303,402.527123 11.4455024,402.07746 11.4455024,401.521842 L11.4455024,387.827813 C11.4455024,387.273057 11.8824303,386.823395 12.4214754,386.823395 C12.9613576,386.823395 13.3982856,387.273057 13.3982856,387.827813 L13.3982856,401.521842 C13.3982856,402.07746 12.9613576,402.527123 12.4214754,402.527123 L12.4214754,402.527123 Z" id="Fill-28" fill-opacity="0.5" fill="#FF990F" fill-rule="nonzero" mask="url(#mask-42)"></path>
                    </g>
                    <g id="Fill-30-Clipped">
                        <mask id="mask-44" fill="white">
                            <use xlink:href="#path-43"></use>
                        </mask>
                        <g id="path-3"></g>
                        <path d="M12.4214754,442.123259 C11.8824303,442.123259 11.4455024,441.673597 11.4455024,441.117979 L11.4455024,435.757348 C11.4455024,435.201731 11.8824303,434.752068 12.4214754,434.752068 C12.9613576,434.752068 13.3982856,435.201731 13.3982856,435.757348 L13.3982856,441.117979 C13.3982856,441.673597 12.9613576,442.123259 12.4214754,442.123259" id="Fill-30" fill="#BA8C41" fill-rule="nonzero" mask="url(#mask-44)"></path>
                    </g>
                </g>
                <g id="Group-38" transform="translate(109.272331, -0.000000)">
                    <g id="Fill-35-Clipped">
                        <mask id="mask-46" fill="white">
                            <use xlink:href="#path-45"></use>
                        </mask>
                        <g id="path-5"></g>
                        <path d="M251.161316,78.5223967 C250.828805,78.5223967 250.559703,78.0731514 250.559703,77.5180495 L250.559703,68.0133273 C250.559703,67.4590859 250.828805,67.0098407 251.161316,67.0098407 C251.493311,67.0098407 251.762929,67.4590859 251.762929,68.0133273 L251.762929,77.5180495 C251.762929,78.0731514 251.493311,78.5223967 251.161316,78.5223967" id="Fill-35" fill="#FF990F" fill-rule="nonzero" mask="url(#mask-46)"></path>
                    </g>
                    <g id="Fill-37-Clipped">
                        <mask id="mask-48" fill="white">
                            <use xlink:href="#path-47"></use>
                        </mask>
                        <g id="path-5"></g>
                        <path d="M263.326594,-2.38259343e-15 C263.326594,370.681584 248.155157,445.270073 -5.14301863e-15,446.370809 L526.654048,446.370809 C278.498031,445.270073 263.326594,367.965458 263.326594,-2.38259343e-15" id="Fill-37" fill="#FFFFFF" fill-rule="nonzero" mask="url(#mask-48)"></path>
                    </g>
                </g>
                <g id="Group-52" transform="translate(201.572811, 77.136759)">
                    <g id="Fill-46-Clipped">
                        <mask id="mask-50" fill="white">
                            <use xlink:href="#path-49"></use>
                        </mask>
                        <g id="path-7"></g>
                        <path d="M42.0555544,364.306145 C42.0555544,375.916476 32.6407991,385.3287 21.0273473,385.3287 C9.41475524,385.3287 1.04641505e-14,375.916476 1.04641505e-14,364.306145 C1.04641505e-14,352.696674 9.41475524,343.284449 21.0273473,343.284449 C32.6407991,343.284449 42.0555544,352.696674 42.0555544,364.306145" id="Fill-46" fill="#FFFFFF" fill-rule="nonzero" mask="url(#mask-50)"></path>
                    </g>
                    <g id="Fill-47-Clipped">
                        <mask id="mask-52" fill="white">
                            <use xlink:href="#path-51"></use>
                        </mask>
                        <g id="path-7"></g>
                        <path d="M23.7239107,353.456598 C23.7239107,361.69541 30.405128,368.374832 38.6470157,368.374832 C46.8889036,368.374832 53.5701209,361.69541 53.5701209,353.456598 C53.5701209,345.216925 46.8889036,338.537503 38.6470157,338.537503 C30.405128,338.537503 23.7239107,345.216925 23.7239107,353.456598" id="Fill-47" fill="#FFFFFF" fill-rule="nonzero" mask="url(#mask-52)"></path>
                    </g>
                    <g id="Fill-48-Clipped">
                        <mask id="mask-54" fill="white">
                            <use xlink:href="#path-53"></use>
                        </mask>
                        <g id="path-7"></g>
                        <path d="M44.7684554,357.863985 C44.7684554,349.062966 51.9054058,341.927933 60.7087909,341.927933 C69.5121761,341.927933 76.6491264,349.062966 76.6491264,357.863985 C76.6491264,366.665004 69.5121761,373.800035 60.7087909,373.800035 C51.9054058,373.800035 44.7684554,366.665004 44.7684554,357.863985" id="Fill-48" fill="#FFFFFF" fill-rule="nonzero" mask="url(#mask-54)"></path>
                    </g>
                    <g id="Fill-49-Clipped">
                        <mask id="mask-56" fill="white">
                            <use xlink:href="#path-55"></use>
                        </mask>
                        <g id="path-7"></g>
                        <path d="M269.967613,359.559199 C269.967613,371.918278 279.990298,381.937411 292.352701,381.937411 C304.715102,381.937411 314.736928,371.918278 314.736928,359.559199 C314.736928,347.20012 304.715102,337.180987 292.352701,337.180987 C279.990298,337.180987 269.967613,347.20012 269.967613,359.559199" id="Fill-49" fill="#FFFFFF" fill-rule="nonzero" mask="url(#mask-56)"></path>
                    </g>
                    <g id="Fill-50-Clipped">
                        <mask id="mask-58" fill="white">
                            <use xlink:href="#path-57"></use>
                        </mask>
                        <g id="path-7"></g>
                        <path d="M296.10089,364.127339 C296.10089,372.642957 303.006534,379.545886 311.52444,379.545886 C320.041488,379.545886 326.946272,372.642957 326.946272,364.127339 C326.946272,355.612581 320.041488,348.709652 311.52444,348.709652 C303.006534,348.709652 296.10089,355.612581 296.10089,364.127339" id="Fill-50" fill="#FFFFFF" fill-rule="nonzero" mask="url(#mask-58)"></path>
                    </g>
                    <g id="Fill-51-Clipped">
                        <mask id="mask-60" fill="white">
                            <use xlink:href="#path-59"></use>
                        </mask>
                        <g id="path-7"></g>
                        <path d="M314.058488,367.357875 C314.058488,358.556856 321.195438,351.421824 329.998823,351.421824 C338.802209,351.421824 345.939159,358.556856 345.939159,367.357875 C345.939159,376.158894 338.802209,383.293927 329.998823,383.293927 C321.195438,383.293927 314.058488,376.158894 314.058488,367.357875" id="Fill-51" fill="#FFFFFF" fill-rule="nonzero" mask="url(#mask-60)"></path>
                    </g>
                </g>
                <path d="M493.322581,416.304585 C493.322581,426.93913 484.702741,435.559294 474.070534,435.559294 C463.438327,435.559294 454.819355,426.93913 454.819355,416.304585 C454.819355,405.670908 463.438327,397.050744 474.070534,397.050744 C484.702741,397.050744 493.322581,405.670908 493.322581,416.304585" id="Fill-53" fill="#FFFFFF" fill-rule="nonzero"></path>
                <path d="M266.313978,419.514491 C266.313978,427.488999 272.778195,433.954771 280.752688,433.954771 C288.727181,433.954771 295.191398,427.488999 295.191398,419.514491 C295.191398,411.53913 288.727181,405.073359 280.752688,405.073359 C272.778195,405.073359 266.313978,411.53913 266.313978,419.514491" id="Fill-55" fill="#FFFFFF" fill-rule="nonzero"></path>
                <path d="M304.817204,409.085095 C304.817204,405.096718 308.05002,401.864313 312.036988,401.864313 C316.023956,401.864313 319.255914,405.096718 319.255914,409.085095 C319.255914,413.072615 316.023956,416.305019 312.036988,416.305019 C308.05002,416.305019 304.817204,413.072615 304.817204,409.085095" id="Fill-57" fill="#FFFFFF" fill-rule="nonzero"></path>
                <path d="M436.36064,406.686399 C436.586667,401.596262 432.644199,397.285992 427.554785,397.059932 C422.46453,396.834712 418.155711,400.77774 417.929683,405.867876 C417.703655,410.958012 421.646123,415.267443 426.735538,415.493504 C431.825792,415.719563 436.134611,411.776536 436.36064,406.686399" id="Fill-59" fill="#FFFFFF" fill-rule="nonzero"></path>
                <path d="M743.324201,450 L2.67579888,450 C1.19813174,450 2.58264139e-15,448.743115 2.58264139e-15,447.192085 C2.58264139e-15,445.641957 1.19813174,444.38417 2.67579888,444.38417 L743.324201,444.38417 C744.801869,444.38417 746,445.641957 746,447.192085 C746,448.743115 744.801869,450 743.324201,450" id="Fill-60" fill="#FFFFFF" fill-rule="nonzero"></path>
                <path d="M306.421505,140.97786 C305.978845,140.97786 305.619355,140.529004 305.619355,139.976301 L305.619355,129.294719 C305.619355,128.741157 305.978845,128.293159 306.421505,128.293159 C306.864853,128.293159 307.223656,128.741157 307.223656,129.294719 L307.223656,139.976301 C307.223656,140.529004 306.864853,140.97786 306.421505,140.97786 Z M306.421505,197.057457 C305.978845,197.057457 305.619355,196.609459 305.619355,196.055897 L305.619355,155.998675 C305.619355,155.445972 305.978845,154.997974 306.421505,154.997974 C306.864853,154.997974 307.223656,155.445972 307.223656,155.998675 L307.223656,196.055897 C307.223656,196.609459 306.864853,197.057457 306.421505,197.057457 Z M306.421505,223.762272 C305.978845,223.762272 305.619355,223.313415 305.619355,222.760712 L305.619355,206.73748 C305.619355,206.184777 305.978845,205.736779 306.421505,205.736779 C306.864853,205.736779 307.223656,206.184777 307.223656,206.73748 L307.223656,222.760712 C307.223656,223.313415 306.864853,223.762272 306.421505,223.762272 L306.421505,223.762272 Z" id="Fill-61" fill="#FF990F" fill-rule="nonzero"></path>
                <path d="M456.022065,265.642323 C455.35779,265.642323 454.819355,265.192445 454.819355,264.63656 L454.819355,231.186126 C454.819355,230.630242 455.35779,230.180363 456.022065,230.180363 C456.687372,230.180363 457.225806,230.630242 457.225806,231.186126 L457.225806,264.63656 C457.225806,265.192445 456.687372,265.642323 456.022065,265.642323 Z M456.022065,287.943187 C455.35779,287.943187 454.819355,287.493309 454.819355,286.937425 L454.819355,273.557424 C454.819355,273.001539 455.35779,272.551661 456.022065,272.551661 C456.687372,272.551661 457.225806,273.001539 457.225806,273.557424 L457.225806,286.937425 C457.225806,287.493309 456.687372,287.943187 456.022065,287.943187 L456.022065,287.943187 Z" id="Fill-63" fill="#FFFFFF" fill-rule="nonzero"></path>
                <path d="M456.022065,327.253998 C455.35779,327.253998 454.819355,326.813538 454.819355,326.26929 L454.819355,321.018354 C454.819355,320.474106 455.35779,320.033645 456.022065,320.033645 C456.687372,320.033645 457.225806,320.474106 457.225806,321.018354 L457.225806,326.26929 C457.225806,326.813538 456.687372,327.253998 456.022065,327.253998" id="Fill-64" fill="#FFFFFF" fill-rule="nonzero"></path>
            </g>
            <polygon id="Fill-1" fill="#CEC0F9" fill-rule="nonzero" points="308.999939 285 306 291 308.999939 289.573686 312 291"></polygon>
            <polygon id="Fill-1" fill="#CEC0F9" fill-rule="nonzero" points="409.999918 134 406 142 409.999918 140.098249 414 142"></polygon>
            <polygon id="Fill-1" fill="#4C2D49" fill-rule="nonzero" points="396.999959 104 395 108 396.999959 107.049124 399 108"></polygon>
            <polygon id="Fill-1" fill="#CEC0F9" fill-rule="nonzero" points="334.999959 192 333 196 334.999959 195.049124 337 196"></polygon>
            <polygon id="Fill-1" fill="#FF990F" fill-rule="nonzero" points="359.999939 78 357 84 359.999939 82.573686 363 84"></polygon>
            <polygon id="Fill-1" fill="#FF990F" fill-rule="nonzero" points="305.999878 136 300 148 305.999878 145.147373 312 148"></polygon>
            <polygon id="Fill-1" fill="#CEC0F9" fill-rule="nonzero" points="469.999918 324 466 332 469.999918 330.098249 474 332"></polygon>
            <polygon id="Fill-1" fill="#FF990F" fill-rule="nonzero" points="422.999918 258 419 266 422.999918 264.098249 427 266"></polygon>
            <polygon id="Fill-1" fill="#CEC0F9" fill-rule="nonzero" points="275.999918 352 272 360 275.999918 358.098249 280 360"></polygon>
            <g id="Group-28" transform="translate(357.000000, 0.000000)">
                <g id="Fill-1-Clipped" transform="translate(15.999935, 0.000000)">
                    <mask id="mask-62" fill="white">
                        <use xlink:href="#path-61"></use>
                    </mask>
                    <g id="path-9"></g>
                    <path d="M16.0003255,30.5368231 L5.42090057e-16,23.2782716 L5.42090057e-16,15.8719682 L5.42090057e-16,15.7732519 C5.42090057e-16,15.7732519 5.42090057e-16,-6.45204581e-05 5.42090057e-16,-6.45204581e-05" id="Fill-1" fill="#81A6F7" fill-rule="nonzero" mask="url(#mask-62)"></path>
                </g>
                <g id="Group-6" transform="translate(0.000000, -0.000000)">
                    <g id="Fill-4-Clipped">
                        <mask id="mask-64" fill="white">
                            <use xlink:href="#path-63"></use>
                        </mask>
                        <g id="path-11"></g>
                        <path d="M16.0001302,-6.45204581e-05 C16.0001302,-6.45204581e-05 16.0001302,15.7732519 16.0001302,15.7732519 L16.0001302,15.8719682 L16.0001302,23.2782716 L-0.000195308526,30.5368231 L16.0001302,-6.45204581e-05 Z" id="Fill-4" fill="#CEC0F9" fill-rule="nonzero" mask="url(#mask-64)"></path>
                    </g>
                    <g id="Fill-1-Clipped">
                        <mask id="mask-66" fill="white">
                            <use xlink:href="#path-65"></use>
                        </mask>
                        <g id="path-11"></g>
                        <path d="M32.0002604,30.5368231 L15.9999349,23.2782716 L15.9999349,15.8719682 L15.9999349,15.7732519 C15.9999349,15.7732519 15.9999349,-6.45204581e-05 15.9999349,-6.45204581e-05" id="Fill-1" fill="#81A6F7" fill-rule="nonzero" mask="url(#mask-66)"></path>
                    </g>
                    <g id="Fill-4-Clipped">
                        <mask id="mask-68" fill="white">
                            <use xlink:href="#path-67"></use>
                        </mask>
                        <g id="path-11"></g>
                        <path d="M16.0001302,-6.45204581e-05 C16.0001302,-6.45204581e-05 16.0001302,15.7732519 16.0001302,15.7732519 L16.0001302,15.8719682 L16.0001302,23.2782716 L-0.000195308526,30.5368231 L16.0001302,-6.45204581e-05 Z" id="Fill-4" fill="#CEC0F9" fill-rule="nonzero" mask="url(#mask-68)"></path>
                    </g>
                </g>
                <g id="Fill-7-Clipped" transform="translate(16.001628, 23.278852)">
                    <mask id="mask-70" fill="white">
                        <use xlink:href="#path-69"></use>
                    </mask>
                    <g id="path-13"></g>
                    <polygon id="Fill-7" fill="#E7EBF2" fill-rule="nonzero" mask="url(#mask-70)" points="14.4013997 7.25790634 -4.06567543e-16 13.7912479 -4.06567543e-16 14.5158127 15.9983724 7.25790634 -4.06567543e-16 2.68620368e-16 -4.06567543e-16 0.724564745"></polygon>
                </g>
                <polygon id="Fill-10" fill="#E7EBF2" fill-rule="nonzero" points="6.51028421e-05 30.5367586 16.0003906 37.7959553 16.0016927 37.7946649 16.0016927 37.0701002 16.0003906 37.0713906 1.59703782 30.5367586 16.0003906 24.0027718 16.0016927 24.003417 16.0016927 23.2788523 16.0003906 23.2782071"></polygon>
                <path d="M0.691717698,30.4753996 C0.691717698,30.4753996 16.1249975,37.8075045 16.2721299,37.6616883 C16.4186113,37.515872 31.3623177,30.3779737 31.3623177,30.3779737 L16,23.5910668 L0.691717698,30.4753996 Z" id="Fill-12" fill="#E7EBF2" fill-rule="nonzero"></path>
                <g id="Fill-1-Clipped" transform="translate(6.510284, 26.453323)">
                    <mask id="mask-72" fill="white">
                        <use xlink:href="#path-71"></use>
                    </mask>
                    <g id="path-16"></g>
                    <path d="M18.7769617,4.26286667 C18.7769617,4.25964065 18.7763107,4.25641462 18.7763107,4.2531886 L9.40150143,0 L0.0266921653,4.2531886 C0.0260411369,4.25641462 0.0260411369,4.25964065 0.0260411369,4.26286667 C0.0104164547,4.48030061 0,4.69902497 0,4.92033014 C0,6.51011423 0.402986593,8.00698886 1.11130552,9.31675416 L1.40036213,9.81227127 L9.40150143,23.5467412 L17.4026407,9.81227127 C17.5035501,9.65032493 17.6005534,9.48515255 17.6916974,9.31675416 C18.4000163,8.00698886 18.8030029,6.51011423 18.8030029,4.92033014 C18.8030029,4.69902497 18.7925864,4.48030061 18.7769617,4.26286667" id="Fill-1" fill="#FF990F" fill-rule="nonzero" mask="url(#mask-72)"></path>
                </g>
                <g id="Group-36" transform="translate(6.598629, 26.221050)" fill-rule="nonzero">
                    <path d="M1.40029703,9.80265773 L9.40143633,23.5371277 L9.40143633,14.228116 C6.01999471,14.228116 4.12029378,12.0460341 1.40029703,9.80265773" id="Fill-14" fill="#FFD154"></path>
                    <path d="M9.40150143,14.2280514 L9.40150143,23.5370631 L17.4026407,9.80259321 C14.9209204,11.9266067 12.7829431,14.2280514 9.40150143,14.2280514" id="Fill-16" fill="#FF5F8D"></path>
                    <path d="M9.40150143,14.2280514 L9.40150143,1.90254853e-13 L0.0260411369,4.2531886 C0.0104164547,4.47062254 9.8298997e-15,4.6893469 9.8298997e-15,4.91065207 C9.8298997e-15,6.50043616 0.402986593,7.99731079 1.11130552,9.30707609 L1.40036213,9.80259321 C3.05657844,12.4582553 6.02005981,14.2280514 9.40150143,14.2280514" id="Fill-24" fill="#FF990F"></path>
                    <path d="M18.8029378,4.91071659 C18.8029378,4.68941142 18.7925213,4.47068707 18.7768966,4.25325312 L9.40143633,6.45204581e-05 L9.40143633,14.228116 C12.782878,14.228116 15.7463593,12.4583198 17.4025756,9.80265773 L17.6916323,9.30714061 C18.3999512,7.99737531 18.8029378,6.50050068 18.8029378,4.91071659" id="Fill-26" fill="#EF476F"></path>
                </g>
                <path d="M7.9989258,36.0237074 L7.70986918,35.5281903 C7.80101316,35.6965887 7.8980164,35.861761 7.9989258,36.0237074" id="Fill-18" fill="#FFFFFF" fill-rule="nonzero"></path>
                <path d="M24.0013346,36.0237074 C24.102244,35.861761 24.1992472,35.6965887 24.2903912,35.5281903 L24.0013346,36.0237074 Z" id="Fill-20" fill="#FFFFFF" fill-rule="nonzero"></path>
                <path d="M25.3756556,30.4743673 C25.3756556,30.4711413 25.3750046,30.4679153 25.3750046,30.4646892 L16.0001953,26.2115006 L6.62538604,30.4646892 C6.62538604,30.4679153 6.62473501,30.4711413 6.62473501,30.4743673 L16.0001953,26.2211787 L25.3756556,30.4743673 Z" id="Fill-22" fill="#FFFFFF" fill-rule="nonzero"></path>
            </g>
            <g id="Group-28" opacity="0.8" transform="translate(448.000000, 223.000000)">
                <g id="Fill-1-Clipped" transform="translate(7.999967, 0.000000)">
                    <mask id="mask-74" fill="white">
                        <use xlink:href="#path-73"></use>
                    </mask>
                    <g id="path-18"></g>
                    <path d="M8.00016276,15.2684116 L2.71045029e-16,11.6391358 L2.71045029e-16,7.93598409 L2.71045029e-16,7.88662594 C2.71045029e-16,7.88662594 2.71045029e-16,-3.22602291e-05 2.71045029e-16,-3.22602291e-05" id="Fill-1" fill="#81A6F7" fill-rule="nonzero" mask="url(#mask-74)"></path>
                </g>
                <g id="Group-6" transform="translate(0.000000, -0.000000)">
                    <g id="Fill-4-Clipped">
                        <mask id="mask-76" fill="white">
                            <use xlink:href="#path-75"></use>
                        </mask>
                        <g id="path-20"></g>
                        <path d="M8.0000651,-3.22602291e-05 C8.0000651,-3.22602291e-05 8.0000651,7.88662594 8.0000651,7.88662594 L8.0000651,7.93598409 L8.0000651,11.6391358 L-9.76542632e-05,15.2684116 L8.0000651,-3.22602291e-05 Z" id="Fill-4" fill="#CEC0F9" fill-rule="nonzero" mask="url(#mask-76)"></path>
                    </g>
                    <g id="Fill-1-Clipped">
                        <mask id="mask-78" fill="white">
                            <use xlink:href="#path-77"></use>
                        </mask>
                        <g id="path-20"></g>
                        <path d="M16.0001302,15.2684116 L7.99996745,11.6391358 L7.99996745,7.93598409 L7.99996745,7.88662594 C7.99996745,7.88662594 7.99996745,-3.22602291e-05 7.99996745,-3.22602291e-05" id="Fill-1" fill="#81A6F7" fill-rule="nonzero" mask="url(#mask-78)"></path>
                    </g>
                    <g id="Fill-4-Clipped">
                        <mask id="mask-80" fill="white">
                            <use xlink:href="#path-79"></use>
                        </mask>
                        <g id="path-20"></g>
                        <path d="M8.0000651,-3.22602291e-05 C8.0000651,-3.22602291e-05 8.0000651,7.88662594 8.0000651,7.88662594 L8.0000651,7.93598409 L8.0000651,11.6391358 L-9.76542632e-05,15.2684116 L8.0000651,-3.22602291e-05 Z" id="Fill-4" fill="#CEC0F9" fill-rule="nonzero" mask="url(#mask-80)"></path>
                    </g>
                </g>
                <g id="Fill-7-Clipped" transform="translate(8.000814, 11.639426)">
                    <mask id="mask-82" fill="white">
                        <use xlink:href="#path-81"></use>
                    </mask>
                    <g id="path-22"></g>
                    <polygon id="Fill-7" fill="#E7EBF2" fill-rule="nonzero" mask="url(#mask-82)" points="7.20069986 3.62895317 -2.03283772e-16 6.89562396 -2.03283772e-16 7.25790634 7.99918621 3.62895317 -2.03283772e-16 1.34310184e-16 -2.03283772e-16 0.362282372"></polygon>
                </g>
                <polygon id="Fill-10" fill="#E7EBF2" fill-rule="nonzero" points="3.25514211e-05 15.2683793 8.00019531 18.8979777 8.00084634 18.8973325 8.00084634 18.5350501 8.00019531 18.5356953 0.79851891 15.2683793 8.00019531 12.0013859 8.00084634 12.0017085 8.00084634 11.6394261 8.00019531 11.6391035"></polygon>
                <path d="M0.345858849,15.2376998 C0.345858849,15.2376998 8.06249873,18.9037523 8.13606494,18.8308441 C8.20930564,18.757936 15.6811588,15.1889869 15.6811588,15.1889869 L8,11.7955334 L0.345858849,15.2376998 Z" id="Fill-12" fill="#E7EBF2" fill-rule="nonzero"></path>
                <g id="Fill-1-Clipped" transform="translate(3.255142, 13.226662)">
                    <mask id="mask-84" fill="white">
                        <use xlink:href="#path-83"></use>
                    </mask>
                    <g id="path-25"></g>
                    <path d="M9.38848087,2.13143333 C9.38848087,2.12982032 9.38815535,2.12820731 9.38815535,2.1265943 L4.70075072,0 L0.0133460826,2.1265943 C0.0130205684,2.12820731 0.0130205684,2.12982032 0.0130205684,2.13143333 C0.00520822737,2.24015031 0,2.34951248 0,2.46016507 C0,3.25505711 0.201493296,4.00349443 0.555652758,4.65837708 L0.700181067,4.90613564 L4.70075072,11.7733706 L8.70132037,4.90613564 C8.75177507,4.82516246 8.80027669,4.74257628 8.84584868,4.65837708 C9.20000814,4.00349443 9.40150143,3.25505711 9.40150143,2.46016507 C9.40150143,2.34951248 9.39629321,2.24015031 9.38848087,2.13143333" id="Fill-1" fill="#FF990F" fill-rule="nonzero" mask="url(#mask-84)"></path>
                </g>
                <g id="Group-36" transform="translate(3.299314, 13.110525)" fill-rule="nonzero">
                    <path d="M0.700148516,4.90132886 L4.70071817,11.7685638 L4.70071817,7.11405798 C3.00999736,7.11405798 2.06014689,6.02301703 0.700148516,4.90132886" id="Fill-14" fill="#FFD154"></path>
                    <path d="M4.70075072,7.11402572 L4.70075072,11.7685316 L8.70132037,4.9012966 C7.4604602,5.96330334 6.39147153,7.11402572 4.70075072,7.11402572" id="Fill-16" fill="#FF5F8D"></path>
                    <path d="M4.70075072,7.11402572 L4.70075072,9.51274263e-14 L0.0130205684,2.1265943 C0.00520822737,2.23531127 4.91494985e-15,2.34467345 4.91494985e-15,2.45532603 C4.91494985e-15,3.25021808 0.201493296,3.99865539 0.555652758,4.65353804 L0.700181067,4.9012966 C1.52828922,6.22912763 3.01002991,7.11402572 4.70075072,7.11402572" id="Fill-24" fill="#FF990F"></path>
                    <path d="M9.40146888,2.4553583 C9.40146888,2.34470571 9.39626066,2.23534353 9.38844831,2.12662656 L4.70071817,3.22602291e-05 L4.70071817,7.11405798 C6.39143898,7.11405798 7.87317966,6.22915989 8.70128782,4.90132886 L8.84581613,4.6535703 C9.19997559,3.99868765 9.40146888,3.25025034 9.40146888,2.4553583" id="Fill-26" fill="#EF476F"></path>
                </g>
                <path d="M3.9994629,18.0118537 L3.85493459,17.7640951 C3.90050658,17.8482943 3.9490082,17.9308805 3.9994629,18.0118537" id="Fill-18" fill="#FFFFFF" fill-rule="nonzero"></path>
                <path d="M12.0006673,18.0118537 C12.051122,17.9308805 12.0996236,17.8482943 12.1451956,17.7640951 L12.0006673,18.0118537 Z" id="Fill-20" fill="#FFFFFF" fill-rule="nonzero"></path>
                <path d="M12.6878278,15.2371837 C12.6878278,15.2355706 12.6875023,15.2339576 12.6875023,15.2323446 L8.00009765,13.1057503 L3.31269302,15.2323446 C3.31269302,15.2339576 3.31236751,15.2355706 3.31236751,15.2371837 L8.00009765,13.1105894 L12.6878278,15.2371837 Z" id="Fill-22" fill="#FFFFFF" fill-rule="nonzero"></path>
            </g>
        </g>
    </g>
</svg>