<?xml version="1.0" encoding="UTF-8"?>
<svg width="3419px" height="440px" viewBox="0 0 3419 440" version="1.1" xmlns="http://www.w3.org/2000/svg" xmlns:xlink="http://www.w3.org/1999/xlink">
    <title>Group 41</title>
    <defs>
        <polygon id="path-1" points="0.507590871 0.428688492 213.577263 0.428688492 213.577263 212.691775 0.507590871 212.691775"></polygon>
        <polygon id="path-3" points="0.171171484 0.0379769498 169.132366 0.0379769498 169.132366 169.061683 0.171171484 169.061683"></polygon>
        <polygon id="path-5" points="0.554730792 0.0723060495 140.789485 0.0723060495 140.789485 140.35766 0.554730792 140.35766"></polygon>
        <polygon id="path-7" points="0.507590871 0.428688492 213.577263 0.428688492 213.577263 212.691775 0.507590871 212.691775"></polygon>
        <polygon id="path-9" points="0.171171484 0.0379769498 169.132366 0.0379769498 169.132366 169.061683 0.171171484 169.061683"></polygon>
        <polygon id="path-11" points="0.554730792 0.0723060495 140.789485 0.0723060495 140.789485 140.35766 0.554730792 140.35766"></polygon>
    </defs>
    <g id="Page-1" stroke="none" stroke-width="1" fill="none" fill-rule="evenodd">
        <g id="Desktop-HD" transform="translate(1865.000000, -446.000000)">
            <g id="Group-41" transform="translate(-1865.000000, 446.334789)">
                <g id="Group-31" transform="translate(2576.336163, 230.763738) rotate(20.000000) translate(-2576.336163, -230.763738) translate(2308.836163, 122.263738)" fill="#FFFFFF">
                    <path d="M175.868942,129.876578 C175.868942,177.942859 136.520704,216.909074 87.9831856,216.909074 C39.4492607,216.909074 0.101023436,177.942859 0.101023436,129.876578 C0.101023436,81.8138562 39.4492607,42.8476407 87.9831856,42.8476407 C136.520704,42.8476407 175.868942,81.8138562 175.868942,129.876578" id="Fill-46"></path>
                    <path d="M117.031465,128.139822 C117.031465,162.537565 144.917813,190.424717 179.318154,190.424717 C213.718495,190.424717 241.604843,162.537565 241.604843,128.139822 C241.604843,93.7384897 213.718495,65.8513378 179.318154,65.8513378 C144.917813,65.8513378 117.031465,93.7384897 117.031465,128.139822" id="Fill-47"></path>
                    <path d="M206.794891,141.868958 C206.794891,105.11372 236.592555,75.3160565 273.347792,75.3160565 C310.10303,75.3160565 339.900693,105.11372 339.900693,141.868958 C339.900693,178.624195 310.10303,208.421859 273.347792,208.421859 C236.592555,208.421859 206.794891,178.624195 206.794891,141.868958" id="Fill-48"></path>
                    <path d="M298.624573,112.134867 C298.624573,145.117546 325.364363,171.860068 358.351536,171.860068 C391.338709,171.860068 418.078498,145.117546 418.078498,112.134867 C418.078498,79.1486658 391.338709,52.4061433 358.351536,52.4061433 C325.364363,52.4061433 298.624573,79.1486658 298.624573,112.134867" id="Fill-55"></path>
                    <path d="M384.301674,75.1204062 C384.301674,33.6523246 417.918917,0.0350819326 459.386998,0.0350819326 C500.85508,0.0350819326 534.472322,33.6523246 534.472322,75.1204062 C534.472322,116.588488 500.85508,150.20573 459.386998,150.20573 C417.918917,150.20573 384.301674,116.588488 384.301674,75.1204062" id="Fill-56"></path>
                </g>
                <g id="Group-31" transform="translate(3184.873023, 219.520079) rotate(20.000000) translate(-3184.873023, -219.520079) translate(2996.373023, 54.520079)" fill="#FFFFFF">
                    <path d="M0.976109215,245.209986 C0.976109215,279.607729 28.8624576,307.494881 63.2627986,307.494881 C97.6631396,307.494881 125.549488,279.607729 125.549488,245.209986 C125.549488,210.808654 97.6631396,182.921502 63.2627986,182.921502 C28.8624576,182.921502 0.976109215,210.808654 0.976109215,245.209986" id="Fill-47"></path>
                    <path d="M88.0068259,263.12628 C88.0068259,226.371042 117.804489,196.573379 154.559727,196.573379 C191.314965,196.573379 221.112628,226.371042 221.112628,263.12628 C221.112628,299.881518 191.314965,329.679181 154.559727,329.679181 C117.804489,329.679181 88.0068259,299.881518 88.0068259,263.12628" id="Fill-48"></path>
                    <path d="M145.631042,127.718227 C145.631042,160.700907 172.370832,187.443429 205.358005,187.443429 C238.345178,187.443429 265.084967,160.700907 265.084967,127.718227 C265.084967,94.7320267 238.345178,67.9895042 205.358005,67.9895042 C172.370832,67.9895042 145.631042,94.7320267 145.631042,127.718227" id="Fill-55"></path>
                    <path d="M101.399828,210.860273 C101.399828,243.842952 128.139617,270.585474 161.126791,270.585474 C194.113964,270.585474 220.853753,243.842952 220.853753,210.860273 C220.853753,177.874072 194.113964,151.131549 161.126791,151.131549 C128.139617,151.131549 101.399828,177.874072 101.399828,210.860273" id="Fill-55"></path>
                    <path d="M205.101134,150.768351 C205.101134,183.75103 231.840924,210.493552 264.828097,210.493552 C297.81527,210.493552 324.555059,183.75103 324.555059,150.768351 C324.555059,117.78215 297.81527,91.0396274 264.828097,91.0396274 C231.840924,91.0396274 205.101134,117.78215 205.101134,150.768351" id="Fill-55"></path>
                    <path d="M225.835821,75.6686851 C225.835821,34.2006035 259.453063,0.58336082 300.921145,0.58336082 C342.389226,0.58336082 376.006469,34.2006035 376.006469,75.6686851 C376.006469,117.136767 342.389226,150.754009 300.921145,150.754009 C259.453063,150.754009 225.835821,117.136767 225.835821,75.6686851" id="Fill-56"></path>
                </g>
                <g id="Group" transform="translate(0.000000, 95.665211)">
                    <g id="Group-28" transform="translate(0.000000, 13.000000)">
                        <path d="M212.394205,165.02108 C212.394205,223.694233 164.847851,271.257775 106.195902,271.257775 C47.546354,271.257775 0,223.694233 0,165.02108 C0,106.347927 47.546354,58.7843846 106.195902,58.7843846 C164.847851,58.7843846 212.394205,106.347927 212.394205,165.02108" id="Fill-1" fill="#FEFEFE"></path>
                        <path d="M340.050826,108.875262 C340.050826,167.548414 292.504471,215.111957 233.852522,215.111957 C175.202975,215.111957 127.656621,167.548414 127.656621,108.875262 C127.656621,50.202109 175.202975,2.63856627 233.852522,2.63856627 C292.504471,2.63856627 340.050826,50.202109 340.050826,108.875262" id="Fill-3" fill="#FEFEFE"></path>
                        <g id="Group-7" transform="translate(116.433565, 109.207326)">
                            <mask id="mask-2" fill="white">
                                <use xlink:href="#path-1"></use>
                            </mask>
                            <g id="Clip-6"></g>
                            <path d="M213.577263,106.560712 C213.577263,165.176056 165.8797,212.692735 107.041223,212.692735 C48.2051543,212.692735 0.507590871,165.176056 0.507590871,106.560712 C0.507590871,47.9453683 48.2051543,0.428688492 107.041223,0.428688492 C165.8797,0.428688492 213.577263,47.9453683 213.577263,106.560712" id="Fill-5" fill="#FEFEFE" mask="url(#mask-2)"></path>
                        </g>
                        <path d="M460.004029,188.139946 C460.004029,246.813099 412.457675,294.376642 353.805726,294.376642 C295.156178,294.376642 247.609824,246.813099 247.609824,188.139946 C247.609824,129.466794 295.156178,81.9032509 353.805726,81.9032509 C412.457675,81.9032509 460.004029,129.466794 460.004029,188.139946" id="Fill-8" fill="#FEFEFE"></path>
                        <path d="M447.89866,112.177957 C447.89866,161.731299 407.743753,201.901176 358.208879,201.901176 C308.674005,201.901176 268.519098,161.731299 268.519098,112.177957 C268.519098,62.624615 308.674005,22.4547374 358.208879,22.4547374 C407.743753,22.4547374 447.89866,62.624615 447.89866,112.177957" id="Fill-10" fill="#FEFEFE"></path>
                        <path d="M577.756257,119.333796 C577.756257,166.149216 539.819054,204.102973 493.018673,204.102973 C446.220701,204.102973 408.281088,166.149216 408.281088,119.333796 C408.281088,72.518377 446.220701,34.5646198 493.018673,34.5646198 C539.819054,34.5646198 577.756257,72.518377 577.756257,119.333796" id="Fill-12" fill="#FEFEFE"></path>
                        <g id="Group-16" transform="translate(506.006355, 0.218385)">
                            <mask id="mask-4" fill="white">
                                <use xlink:href="#path-3"></use>
                            </mask>
                            <g id="Clip-15"></g>
                            <path d="M169.132366,84.5495899 C169.132366,131.22303 131.310217,169.061683 84.6517686,169.061683 C37.9957228,169.061683 0.171171484,131.22303 0.171171484,84.5495899 C0.171171484,37.8761495 37.9957228,0.0374962758 84.6517686,0.0374962758 C131.310217,0.0374962758 169.132366,37.8761495 169.132366,84.5495899" id="Fill-14" fill="#FEFEFE" mask="url(#mask-4)"></path>
                        </g>
                        <path d="M926.610987,174.929166 C926.610987,233.602318 879.064633,281.165861 820.412684,281.165861 C761.763136,281.165861 714.216782,233.602318 714.216782,174.929166 C714.216782,116.256013 761.763136,68.6924701 820.412684,68.6924701 C879.064633,68.6924701 926.610987,116.256013 926.610987,174.929166" id="Fill-17" fill="#FEFEFE"></path>
                        <path d="M803.356319,141.902214 C803.356319,192.063592 762.708734,232.726331 712.56605,232.726331 C662.425771,232.726331 621.775781,192.063592 621.775781,141.902214 C621.775781,91.7408352 662.425771,51.0780958 712.56605,51.0780958 C762.708734,51.0780958 803.356319,91.7408352 803.356319,141.902214" id="Fill-19" fill="#FEFEFE"></path>
                        <path d="M1065.27249,119.333796 C1065.27249,181.958685 1014.52376,232.726331 951.922214,232.726331 C889.320665,232.726331 838.571939,181.958685 838.571939,119.333796 C838.571939,56.7089081 889.320665,5.94126146 951.922214,5.94126146 C1014.52376,5.94126146 1065.27249,56.7089081 1065.27249,119.333796" id="Fill-21" fill="#FEFEFE"></path>
                        <path d="M1241.35059,129.241882 C1241.35059,191.86677 1190.60186,242.634417 1128.00031,242.634417 C1065.39876,242.634417 1014.65004,191.86677 1014.65004,129.241882 C1014.65004,66.6169937 1065.39876,15.849347 1128.00031,15.849347 C1190.60186,15.849347 1241.35059,66.6169937 1241.35059,129.241882" id="Fill-23" fill="#FEFEFE"></path>
                        <g id="Group-27" transform="translate(1170.482998, 59.448513)">
                            <mask id="mask-6" fill="white">
                                <use xlink:href="#path-5"></use>
                            </mask>
                            <g id="Clip-26"></g>
                            <path d="M140.790206,70.2149833 C140.790206,108.954258 109.398507,140.35766 70.6736695,140.35766 C31.9488319,140.35766 0.554730792,108.954258 0.554730792,70.2149833 C0.554730792,31.4757081 31.9488319,0.0723060495 70.6736695,0.0723060495 C109.398507,0.0723060495 140.790206,31.4757081 140.790206,70.2149833" id="Fill-25" fill="#FEFEFE" mask="url(#mask-6)"></path>
                        </g>
                    </g>
                    <g id="Group-28-Copy" transform="translate(1133.000000, 0.000000)">
                        <path d="M212.394205,178.02108 C212.394205,236.694233 164.847851,284.257775 106.195902,284.257775 C47.546354,284.257775 0,236.694233 0,178.02108 C0,119.347927 47.546354,71.7843846 106.195902,71.7843846 C164.847851,71.7843846 212.394205,119.347927 212.394205,178.02108" id="Fill-1" fill="#FEFEFE"></path>
                        <path d="M340.050826,121.875262 C340.050826,180.548414 292.504471,228.111957 233.852522,228.111957 C175.202975,228.111957 127.656621,180.548414 127.656621,121.875262 C127.656621,63.202109 175.202975,15.6385663 233.852522,15.6385663 C292.504471,15.6385663 340.050826,63.202109 340.050826,121.875262" id="Fill-3" fill="#FEFEFE"></path>
                        <g id="Group-7" transform="translate(116.433565, 122.207326)">
                            <mask id="mask-8" fill="white">
                                <use xlink:href="#path-7"></use>
                            </mask>
                            <g id="Clip-6"></g>
                            <path d="M213.577263,106.560712 C213.577263,165.176056 165.8797,212.692735 107.041223,212.692735 C48.2051543,212.692735 0.507590871,165.176056 0.507590871,106.560712 C0.507590871,47.9453683 48.2051543,0.428688492 107.041223,0.428688492 C165.8797,0.428688492 213.577263,47.9453683 213.577263,106.560712" id="Fill-5" fill="#FEFEFE" mask="url(#mask-8)"></path>
                        </g>
                        <path d="M460.004029,201.139946 C460.004029,259.813099 412.457675,307.376642 353.805726,307.376642 C295.156178,307.376642 247.609824,259.813099 247.609824,201.139946 C247.609824,142.466794 295.156178,94.9032509 353.805726,94.9032509 C412.457675,94.9032509 460.004029,142.466794 460.004029,201.139946" id="Fill-8" fill="#FEFEFE"></path>
                        <path d="M447.89866,125.177957 C447.89866,174.731299 407.743753,214.901176 358.208879,214.901176 C308.674005,214.901176 268.519098,174.731299 268.519098,125.177957 C268.519098,75.624615 308.674005,35.4547374 358.208879,35.4547374 C407.743753,35.4547374 447.89866,75.624615 447.89866,125.177957" id="Fill-10" fill="#FEFEFE"></path>
                        <path d="M577.756257,132.333796 C577.756257,179.149216 539.819054,217.102973 493.018673,217.102973 C446.220701,217.102973 408.281088,179.149216 408.281088,132.333796 C408.281088,85.518377 446.220701,47.5646198 493.018673,47.5646198 C539.819054,47.5646198 577.756257,85.518377 577.756257,132.333796" id="Fill-12" fill="#FEFEFE"></path>
                        <g id="Group-16" transform="translate(506.006355, 13.218385)">
                            <mask id="mask-10" fill="white">
                                <use xlink:href="#path-9"></use>
                            </mask>
                            <g id="Clip-15"></g>
                            <path d="M169.132366,84.5495899 C169.132366,131.22303 131.310217,169.061683 84.6517686,169.061683 C37.9957228,169.061683 0.171171484,131.22303 0.171171484,84.5495899 C0.171171484,37.8761495 37.9957228,0.0374962758 84.6517686,0.0374962758 C131.310217,0.0374962758 169.132366,37.8761495 169.132366,84.5495899" id="Fill-14" fill="#FEFEFE" mask="url(#mask-10)"></path>
                        </g>
                        <path d="M926.610987,187.929166 C926.610987,246.602318 879.064633,294.165861 820.412684,294.165861 C761.763136,294.165861 714.216782,246.602318 714.216782,187.929166 C714.216782,129.256013 761.763136,81.6924701 820.412684,81.6924701 C879.064633,81.6924701 926.610987,129.256013 926.610987,187.929166" id="Fill-17" fill="#FEFEFE"></path>
                        <path d="M946.610987,78.1658609 C946.610987,121.244252 911.688984,156.165861 868.610105,156.165861 C825.532991,156.165861 790.610987,121.244252 790.610987,78.1658609 C790.610987,35.0874699 825.532991,0.165860887 868.610105,0.165860887 C911.688984,0.165860887 946.610987,35.0874699 946.610987,78.1658609" id="Fill-17" fill="#FEFEFE"></path>
                        <path d="M859.610987,96.1658609 C859.610987,139.244252 824.688984,174.165861 781.610105,174.165861 C738.532991,174.165861 703.610987,139.244252 703.610987,96.1658609 C703.610987,53.0874699 738.532991,18.1658609 781.610105,18.1658609 C824.688984,18.1658609 859.610987,53.0874699 859.610987,96.1658609" id="Fill-17" fill="#FEFEFE"></path>
                        <path d="M803.356319,154.902214 C803.356319,205.063592 762.708734,245.726331 712.56605,245.726331 C662.425771,245.726331 621.775781,205.063592 621.775781,154.902214 C621.775781,104.740835 662.425771,64.0780958 712.56605,64.0780958 C762.708734,64.0780958 803.356319,104.740835 803.356319,154.902214" id="Fill-19" fill="#FEFEFE"></path>
                        <path d="M1102.27249,149.333796 C1102.27249,211.958685 1051.52376,262.726331 988.922214,262.726331 C926.320665,262.726331 875.571939,211.958685 875.571939,149.333796 C875.571939,86.7089081 926.320665,35.9412615 988.922214,35.9412615 C1051.52376,35.9412615 1102.27249,86.7089081 1102.27249,149.333796" id="Fill-21" fill="#FEFEFE"></path>
                        <path d="M1241.35059,125.241882 C1241.35059,187.86677 1190.60186,238.634417 1128.00031,238.634417 C1065.39876,238.634417 1014.65004,187.86677 1014.65004,125.241882 C1014.65004,62.6169937 1065.39876,11.849347 1128.00031,11.849347 C1190.60186,11.849347 1241.35059,62.6169937 1241.35059,125.241882" id="Fill-23" fill="#FEFEFE"></path>
                        <g id="Group-27" transform="translate(1170.482998, 72.448513)">
                            <mask id="mask-12" fill="white">
                                <use xlink:href="#path-11"></use>
                            </mask>
                            <g id="Clip-26"></g>
                            <path d="M140.790206,53.2149833 C140.790206,91.9542584 109.398507,123.35766 70.6736695,123.35766 C31.9488319,123.35766 0.554730792,91.9542584 0.554730792,53.2149833 C0.554730792,14.4757081 31.9488319,-16.927694 70.6736695,-16.927694 C109.398507,-16.927694 140.790206,14.4757081 140.790206,53.2149833" id="Fill-25" fill="#FEFEFE" mask="url(#mask-12)"></path>
                        </g>
                    </g>
                </g>
            </g>
        </g>
    </g>
</svg>