<?xml version="1.0" encoding="UTF-8"?>
<svg width="23px" height="23px" viewBox="0 0 23 23" version="1.1" xmlns="http://www.w3.org/2000/svg" xmlns:xlink="http://www.w3.org/1999/xlink">
    <title>github-brands</title>
    <g id="Page-1" stroke="none" stroke-width="1" fill="none" fill-rule="evenodd">
        <g id="Desktop-HD" transform="translate(-1208.000000, -48.000000)" fill="#FFFFFF" fill-rule="nonzero">
            <g id="Group-40" transform="translate(1073.000000, 48.000000)">
                <g id="github-brands" transform="translate(135.000000, 0.000000)">
                    <path d="M7.69294355,18.0568548 C7.69294355,18.1495968 7.58629032,18.2237903 7.45181452,18.2237903 C7.29879032,18.2377016 7.1921371,18.1635081 7.1921371,18.0568548 C7.1921371,17.9641129 7.29879032,17.8899194 7.43326613,17.8899194 C7.57237903,17.8760081 7.69294355,17.9502016 7.69294355,18.0568548 Z M6.25080645,17.8481855 C6.21834677,17.9409274 6.31108871,18.0475806 6.45020161,18.0754032 C6.57076613,18.1217742 6.70987903,18.0754032 6.73770161,17.9826613 C6.76552419,17.8899194 6.67741935,17.7832661 6.53830645,17.7415323 C6.41774194,17.7090726 6.28326613,17.7554435 6.25080645,17.8481855 Z M8.30040323,17.7693548 C8.16592742,17.8018145 8.07318548,17.8899194 8.08709677,17.9965726 C8.10100806,18.0893145 8.22157258,18.1495968 8.36068548,18.1171371 C8.49516129,18.0846774 8.58790323,17.9965726 8.57399194,17.9038306 C8.56008065,17.8157258 8.43487903,17.7554435 8.30040323,17.7693548 Z M11.3516129,-3.26849658e-15 C4.91995968,-3.26849658e-15 0,4.8828629 0,11.3145161 C0,16.4570565 3.23669355,20.8576613 7.85987903,22.4064516 C8.45342742,22.5131048 8.66209677,22.1467742 8.66209677,21.8453629 C8.66209677,21.5578629 8.64818548,19.9719758 8.64818548,18.9981855 C8.64818548,18.9981855 5.40221774,19.69375 4.72056452,17.6163306 C4.72056452,17.6163306 4.19193548,16.2669355 3.43145161,15.9191532 C3.43145161,15.9191532 2.36955645,15.191129 3.50564516,15.2050403 C3.50564516,15.2050403 4.66028226,15.2977823 5.29556452,16.4014113 C6.31108871,18.1913306 8.01290323,17.6766129 8.67600806,17.3705645 C8.78266129,16.628629 9.08407258,16.1139113 9.41794355,15.8078629 C6.82580645,15.5203629 4.21048387,15.1447581 4.21048387,10.683871 C4.21048387,9.40866935 4.56290323,8.76875 5.30483871,7.95262097 C5.18427419,7.65120968 4.79012097,6.40846774 5.42540323,4.80403226 C6.39455645,4.50262097 8.625,6.05604839 8.625,6.05604839 C9.55241935,5.79637097 10.5493952,5.66189516 11.5370968,5.66189516 C12.5247984,5.66189516 13.5217742,5.79637097 14.4491935,6.05604839 C14.4491935,6.05604839 16.6796371,4.49798387 17.6487903,4.80403226 C18.2840726,6.41310484 17.8899194,7.65120968 17.7693548,7.95262097 C18.5112903,8.7733871 18.9657258,9.41330645 18.9657258,10.683871 C18.9657258,15.1586694 16.2344758,15.5157258 13.6423387,15.8078629 C14.0689516,16.1741935 14.4306452,16.8697581 14.4306452,17.9594758 C14.4306452,19.5221774 14.4167339,21.4558468 14.4167339,21.8360887 C14.4167339,22.1375 14.6300403,22.5038306 15.2189516,22.3971774 C19.8560484,20.8576613 23,16.4570565 23,11.3145161 C23,4.8828629 17.7832661,-3.26849658e-15 11.3516129,-3.26849658e-15 Z M4.50725806,15.9933468 C4.44697581,16.0397177 4.4608871,16.146371 4.53971774,16.2344758 C4.61391129,16.3086694 4.72056452,16.341129 4.78084677,16.2808468 C4.84112903,16.2344758 4.82721774,16.1278226 4.7483871,16.0397177 C4.67419355,15.9655242 4.56754032,15.9330645 4.50725806,15.9933468 Z M4.00645161,15.6177419 C3.97399194,15.6780242 4.0203629,15.7522177 4.11310484,15.7985887 C4.18729839,15.8449597 4.28004032,15.8310484 4.3125,15.766129 C4.34495968,15.7058468 4.29858871,15.6316532 4.20584677,15.5852823 C4.11310484,15.5574597 4.03891129,15.571371 4.00645161,15.6177419 Z M5.50887097,17.2685484 C5.43467742,17.3288306 5.4625,17.4679435 5.56915323,17.5560484 C5.67580645,17.6627016 5.81028226,17.6766129 5.87056452,17.6024194 C5.93084677,17.5421371 5.90302419,17.4030242 5.81028226,17.3149194 C5.70826613,17.2082661 5.56915323,17.1943548 5.50887097,17.2685484 Z M4.98024194,16.5868952 C4.90604839,16.6332661 4.90604839,16.7538306 4.98024194,16.8604839 C5.05443548,16.9671371 5.1796371,17.0135081 5.23991935,16.9671371 C5.3141129,16.9068548 5.3141129,16.7862903 5.23991935,16.6796371 C5.175,16.5729839 5.05443548,16.5266129 4.98024194,16.5868952 Z" id="Shape"></path>
                </g>
            </g>
        </g>
    </g>
</svg>