<?xml version="1.0" encoding="UTF-8"?>
<svg width="26px" height="15px" viewBox="0 0 26 15" version="1.1" xmlns="http://www.w3.org/2000/svg" xmlns:xlink="http://www.w3.org/1999/xlink">
    <title>medium-brands</title>
    <g id="Page-1" stroke="none" stroke-width="1" fill="none" fill-rule="evenodd">
        <g id="Desktop-HD" transform="translate(-1073.000000, -55.000000)" fill="#FFFFFF" fill-rule="nonzero">
            <g id="Group-40" transform="translate(1073.000000, 48.000000)">
                <g id="medium-brands" transform="translate(0.000000, 7.000000)">
                    <path d="M7.3328125,0.01064375 C3.28302812,0.01064375 0,3.31634063 0,7.39375 C0,11.4711594 3.28327188,14.7768562 7.3328125,14.7768562 C11.3823531,14.7768562 14.665625,11.4714031 14.665625,7.39375 C14.665625,3.31609688 11.3827594,0.01064375 7.3328125,0.01064375 Z M19.0429688,0.4431375 C17.0180156,0.4431375 15.3767656,3.55578437 15.3767656,7.39387188 C15.3767656,11.2319594 17.0182594,14.3448094 19.0432125,14.3448094 C21.0681656,14.3448094 22.7096594,11.2321625 22.7096594,7.39387187 L22.709375,7.39387187 C22.709375,3.5546875 21.068125,0.4431375 19.04305,0.4431375 L19.0429688,0.4431375 Z M24.7104,1.16711563 C23.9984063,1.16711563 23.4211656,3.95512812 23.4211656,7.39387188 C23.4211656,10.8326156 23.9980406,13.6206281 24.7104,13.6206281 C25.4227594,13.6206281 26,10.8318844 26,7.39375 C26,3.95488438 25.4225156,1.16711563 24.7104813,1.16711563 L24.7104,1.16711563 Z" id="Shape"></path>
                </g>
            </g>
        </g>
    </g>
</svg>