<?xml version="1.0" encoding="UTF-8"?>
<svg width="24px" height="20px" viewBox="0 0 24 20" version="1.1" xmlns="http://www.w3.org/2000/svg" xmlns:xlink="http://www.w3.org/1999/xlink">
    <title>twitter-brands</title>
    <g id="Page-1" stroke="none" stroke-width="1" fill="none" fill-rule="evenodd">
        <g id="Desktop-HD" transform="translate(-1164.000000, -51.000000)" fill="#FFFFFF" fill-rule="nonzero">
            <g id="Group-40" transform="translate(1073.000000, 48.000000)">
                <g id="twitter-brands" transform="translate(91.000000, 3.000000)">
                    <path d="M21.0416696,4.82510176 C21.0565564,5.03342515 21.0565564,5.24179434 21.0565564,5.45011772 C21.0565564,11.8042558 16.220275,19.1257143 7.38095982,19.1257143 C4.65773162,19.1257143 2.12798582,18.3369895 1.52259158e-14,16.9680007 C0.386919005,17.0126153 0.758905418,17.027502 1.16071121,17.027502 C3.4076997,17.027502 5.47618418,16.2685966 7.12797608,14.9739502 C5.01487705,14.9292898 3.24403667,13.5453684 2.63390749,11.6405928 C2.93155159,11.6852073 3.22914988,11.7149809 3.54168077,11.7149809 C3.97321432,11.7149809 4.40479368,11.6554337 4.80655367,11.5513179 C2.60417973,11.1048517 0.952342018,9.1703483 0.952342018,6.8340391 L0.952342018,6.77453777 C1.59219896,7.1316832 2.3363092,7.35489337 3.12494239,7.38462114 C1.83029591,6.52150822 0.982115589,5.04831193 0.982115589,3.38163324 C0.982115589,2.48879256 1.22016674,1.67034 1.63685931,0.956049134 C4.00294209,3.87271394 7.55950964,5.77744378 11.5475649,5.98581297 C11.4731768,5.62866754 11.4285165,5.25668112 11.4285165,4.8846489 C11.4285165,2.23580882 13.5713891,0.0780952381 16.2350701,0.0780952381 C17.6189915,0.0780952381 18.8689776,0.658450842 19.7469773,1.59595188 C20.8332546,1.3876285 21.8749173,0.985822705 22.7975774,0.435240672 C22.4403862,1.55133733 21.6814807,2.48883837 20.6844784,3.08403495 C21.651753,2.97991906 22.589254,2.71200273 23.4523211,2.34001632 C22.797669,3.29235834 21.9791706,4.14053866 21.0416696,4.82510176 Z" id="Path"></path>
                </g>
            </g>
        </g>
    </g>
</svg>