<?xml version="1.0" encoding="UTF-8"?>
<svg width="200px" height="40px" viewBox="0 0 200 40" version="1.1" xmlns="http://www.w3.org/2000/svg" xmlns:xlink="http://www.w3.org/1999/xlink">
    <title>RocketPoolLogo V2 - Negative</title>
    <defs>
        <polygon id="path-1" points="0 39.1786477 199.96726 39.1786477 199.96726 0 0 0"></polygon>
    </defs>
    <g id="Page-1" stroke="none" stroke-width="1" fill="none" fill-rule="evenodd">
        <g id="Desktop-HD" transform="translate(-208.000000, -36.000000)">
            <g id="RocketPoolLogo-V2---Negative" transform="translate(208.000000, 35.999786)">
                <path d="M44.5133096,20.0014947 L48.5994306,20.0014947 C50.6891103,20.0014947 52.1332384,18.5573665 52.1332384,16.4990036 C52.1332384,14.5324555 50.7503203,13.1196441 48.9069039,13.1196441 L44.5133096,13.1196441 L44.5133096,20.0014947 Z M40.6727402,31.0619929 L40.6727402,9.64775801 L48.9987189,9.64775801 C50.9346619,9.64775801 52.5631317,10.2925979 53.9147331,11.6135943 C55.2663345,12.9039858 55.9424911,14.5018505 55.9424911,16.4377936 C55.9424911,19.2335231 54.3752313,21.5374377 52.0407117,22.5210676 L57.2328826,31.0619929 L52.90121,31.0619929 L48.323274,23.4420641 L48.2620641,23.4420641 L44.5133096,23.4420641 L44.5133096,31.0619929 L40.6727402,31.0619929 Z" id="Fill-1" fill="#FFFFFF"></path>
                <path d="M69.769395,26.7912456 C70.6911032,25.8389324 71.1523132,24.7015658 71.1523132,23.3193594 C71.1523132,21.937153 70.6911032,20.8004982 69.769395,19.87879 C68.8476868,18.9264769 67.711032,18.4652669 66.3587189,18.4652669 C64.9765125,18.4652669 63.8398577,18.9264769 62.9181495,19.87879 C62.0270463,20.8004982 61.566548,21.937153 61.566548,23.3193594 C61.566548,24.7015658 62.0270463,25.8389324 62.9181495,26.7912456 C63.8398577,27.7129537 64.9765125,28.173452 66.3587189,28.173452 C67.711032,28.173452 68.8476868,27.7129537 69.769395,26.7912456 M57.9103203,23.3193594 C57.9103203,21.0154448 58.7395018,19.0488968 60.3679715,17.481637 C61.9964413,15.915089 63.9935943,15.1165125 66.3587189,15.1165125 C68.7252669,15.1165125 70.7217082,15.915089 72.3501779,17.481637 C73.9786477,19.0488968 74.8085409,21.0154448 74.8085409,23.3193594 C74.8085409,25.623274 73.9786477,27.5898221 72.3501779,29.1570819 C70.7217082,30.7236299 68.7252669,31.5222064 66.3587189,31.5222064 C63.9935943,31.5222064 61.9964413,30.7236299 60.3679715,29.1570819 C58.7395018,27.5898221 57.9103203,25.623274 57.9103203,23.3193594" id="Fill-3" fill="#FFFFFF"></path>
                <path d="M90.724484,17.7585765 L88.4511744,20.1244128 C87.3757295,18.987758 86.0540214,18.4347331 84.5180783,18.4347331 C83.1664769,18.4347331 82.0298221,18.8952313 81.1081139,19.8169395 C80.2170107,20.7386477 79.7558007,21.9066192 79.7558007,23.2888256 C79.7558007,24.671032 80.2170107,25.8390036 81.1081139,26.7607117 C82.0298221,27.6824199 83.1664769,28.1429181 84.5180783,28.1429181 C86.0540214,28.1429181 87.3757295,27.5898932 88.4511744,26.4532384 L90.724484,28.8190747 C89.0654093,30.6005694 87.0070463,31.4916726 84.5180783,31.4916726 C82.1529537,31.4916726 80.155089,30.7237011 78.527331,29.157153 C76.8988612,27.5898932 76.1002847,25.6233452 76.1002847,23.2888256 C76.1002847,20.9535943 76.8988612,19.018363 78.527331,17.4511032 C80.155089,15.8845552 82.1529537,15.0859786 84.5180783,15.0859786 C87.0070463,15.0859786 89.0654093,15.9770819 90.724484,17.7585765" id="Fill-5" fill="#FFFFFF"></path>
                <polygon id="Fill-7" fill="#FFFFFF" points="92.9681851 31.0617082 92.9681851 9.64747331 96.6244128 9.64747331 96.6244128 22.1520996 102.339004 15.5770107 106.578861 15.5770107 100.526192 22.4901779 107.223701 31.0617082 103.045765 31.0617082 98.1603559 24.8246975 96.6244128 26.5449822 96.6244128 31.0617082"></polygon>
                <path d="M119.206762,21.6606406 C119.206762,20.7389324 118.807473,19.9403559 118.039502,19.2948043 C117.27153,18.6186477 116.380427,18.2805694 115.305694,18.2805694 C114.168327,18.2805694 113.154093,18.6186477 112.324911,19.2641993 C111.49573,19.9097509 111.03452,20.7083274 110.942705,21.6606406 L119.206762,21.6606406 Z M107.194662,23.3197153 C107.194662,20.8613523 107.962633,18.895516 109.467972,17.3901779 C111.003915,15.8841281 112.939146,15.1474733 115.305694,15.1474733 C117.548399,15.1474733 119.391815,15.8841281 120.804626,17.3901779 C122.248754,18.895516 122.955516,20.7389324 122.955516,22.951032 C122.955516,23.4115302 122.924911,23.8421352 122.894306,24.2407117 L110.850178,24.2407117 C110.97331,26.6990747 112.786121,28.2969395 115.519929,28.2969395 C117.117794,28.2969395 118.500712,27.7125979 119.698577,26.5147331 L121.910676,28.664911 C120.159786,30.5090391 118.008897,31.4307473 115.396797,31.4307473 C112.969751,31.4307473 110.97331,30.6933808 109.467972,29.2492527 C107.962633,27.8051246 107.194662,25.8698932 107.194662,23.4421352 L107.194662,23.3197153 Z" id="Fill-9" fill="#FFFFFF"></path>
                <polygon id="Fill-11" fill="#FFFFFF" points="126.459004 31.0617082 126.459004 18.9264769 124.461851 18.9264769 124.461851 15.5770107 126.459004 15.5770107 126.459004 9.64747331 130.145836 9.64747331 130.145836 15.5770107 133.494591 15.5770107 133.494591 18.9264769 130.145836 18.9264769 130.145836 31.0617082"></polygon>
                <path d="M140.315801,20.0935943 L144.463843,20.0935943 C146.184128,20.0935943 147.812598,18.8338078 147.812598,16.6217082 C147.812598,14.3790036 146.184128,13.1192171 144.463843,13.1192171 L140.315801,13.1192171 L140.315801,20.0935943 Z M136.475231,31.0615658 L136.475231,9.64733096 L144.648185,9.64733096 C146.460996,9.64733096 148.089466,10.2921708 149.502278,11.5825623 C150.915801,12.8736655 151.622562,14.5633452 151.622562,16.6217082 C151.622562,18.6188612 150.915801,20.2779359 149.502278,21.5989324 C148.120071,22.9199288 146.491601,23.5654804 144.648185,23.5654804 L140.315801,23.5654804 L140.315801,31.0615658 L136.475231,31.0615658 Z" id="Fill-13" fill="#FFFFFF"></path>
                <path d="M163.636512,26.7912456 C164.558221,25.8389324 165.018719,24.7015658 165.018719,23.3193594 C165.018719,21.937153 164.558221,20.8004982 163.636512,19.87879 C162.714804,18.9264769 161.577438,18.4652669 160.225836,18.4652669 C158.84363,18.4652669 157.706975,18.9264769 156.785267,19.87879 C155.894164,20.8004982 155.433665,21.937153 155.433665,23.3193594 C155.433665,24.7015658 155.894164,25.8389324 156.785267,26.7912456 C157.706975,27.7129537 158.84363,28.173452 160.225836,28.173452 C161.577438,28.173452 162.714804,27.7129537 163.636512,26.7912456 M151.777438,23.3193594 C151.777438,21.0154448 152.606619,19.0488968 154.235089,17.481637 C155.863559,15.915089 157.860712,15.1165125 160.225836,15.1165125 C162.591673,15.1165125 164.588826,15.915089 166.217295,17.481637 C167.845765,19.0488968 168.674947,21.0154448 168.674947,23.3193594 C168.674947,25.623274 167.845765,27.5898221 166.217295,29.1570819 C164.588826,30.7236299 162.591673,31.5222064 160.225836,31.5222064 C157.860712,31.5222064 155.863559,30.7236299 154.235089,29.1570819 C152.606619,27.5898221 151.777438,25.623274 151.777438,23.3193594" id="Fill-15" fill="#FFFFFF"></path>
                <path d="M182.440783,26.7912456 C183.362491,25.8389324 183.822989,24.7015658 183.822989,23.3193594 C183.822989,21.937153 183.362491,20.8004982 182.440783,19.87879 C181.519075,18.9264769 180.38242,18.4652669 179.030107,18.4652669 C177.6479,18.4652669 176.511246,18.9264769 175.589537,19.87879 C174.698434,20.8004982 174.237936,21.937153 174.237936,23.3193594 C174.237936,24.7015658 174.698434,25.8389324 175.589537,26.7912456 C176.511246,27.7129537 177.6479,28.173452 179.030107,28.173452 C180.38242,28.173452 181.519075,27.7129537 182.440783,26.7912456 M170.581708,23.3193594 C170.581708,21.0154448 171.41089,19.0488968 173.039359,17.481637 C174.667829,15.915089 176.664982,15.1165125 179.030107,15.1165125 C181.395943,15.1165125 183.393096,15.915089 185.021566,17.481637 C186.650036,19.0488968 187.479929,21.0154448 187.479929,23.3193594 C187.479929,25.623274 186.650036,27.5898221 185.021566,29.1570819 C183.393096,30.7236299 181.395943,31.5222064 179.030107,31.5222064 C176.664982,31.5222064 174.667829,30.7236299 173.039359,29.1570819 C171.41089,27.5898221 170.581708,25.623274 170.581708,23.3193594" id="Fill-17" fill="#FFFFFF"></path>
                <mask id="mask-2" fill="white">
                    <use xlink:href="#path-1"></use>
                </mask>
                <g id="Clip-20"></g>
                <polygon id="Fill-19" fill="#FFFFFF" mask="url(#mask-2)" points="190.060498 31.0619217 193.747331 31.0619217 193.747331 9.64768683 190.060498 9.64768683"></polygon>
                <path d="M24.8345196,23.653452 L14.0466192,18.7153737 L14.0466192,13.6769395 L14.0466192,13.6100356 C14.0466192,13.6100356 14.0466192,2.87907473 14.0466192,2.87907473" id="Fill-21" fill="#81A6F7" mask="url(#mask-2)"></path>
                <path d="M14.0469039,2.87893238 C14.0469039,2.87893238 14.0469039,13.6098932 14.0469039,13.6098932 L14.0469039,13.6767972 L14.0469039,18.7152313 L3.25900356,23.6533096 L14.0469039,2.87893238 Z" id="Fill-22" fill="#CEC0F9" mask="url(#mask-2)"></path>
                <polygon id="Fill-23" fill="#E7EBF2" mask="url(#mask-2)" points="23.7576512 23.653452 14.0480427 28.0982918 14.0480427 28.5915302 24.8345196 23.653452 14.0480427 18.7160854 14.0480427 19.2086121"></polygon>
                <polygon id="Fill-24" fill="#E7EBF2" mask="url(#mask-2)" points="3.25921708 23.653452 14.0471174 28.5915302 14.0478292 28.5915302 14.0478292 28.0982918 14.0471174 28.0990036 4.33608541 23.653452 14.0471174 19.2079004 14.0478292 19.2086121 14.0478292 18.7160854 14.0471174 18.7153737"></polygon>
                <path d="M3.7255516,23.6116726 C3.7255516,23.6116726 14.1312456,28.599573 14.2301779,28.5006406 C14.3291103,28.4017082 24.4045552,23.5454804 24.4045552,23.5454804 L14.046548,18.9283986 L3.7255516,23.6116726 Z" id="Fill-25" fill="#E7EBF2" mask="url(#mask-2)"></path>
                <path d="M8.65224199,27.3862633 L14.046548,36.7300356 L14.046548,30.3969395 C11.7668327,30.3969395 10.485694,28.912242 8.65224199,27.3862633" id="Fill-26" fill="#FFD154" mask="url(#mask-2)"></path>
                <path d="M14.0469039,30.3969395 L14.0469039,36.7300356 L19.44121,27.3862633 C17.7679004,28.8311032 16.3266192,30.3969395 14.0469039,30.3969395" id="Fill-27" fill="#FF5F8D" mask="url(#mask-2)"></path>
                <path d="M8.65224199,27.3862633 L8.4572242,27.0488968 C8.51914591,27.1634875 8.58391459,27.2759431 8.65224199,27.3862633" id="Fill-28" fill="#FFFFFF" mask="url(#mask-2)"></path>
                <path d="M19.4414947,27.3862633 C19.5098221,27.2759431 19.5745907,27.1634875 19.6365125,27.0488968 L19.4414947,27.3862633 Z" id="Fill-29" fill="#FFFFFF" mask="url(#mask-2)"></path>
                <path d="M20.3681139,23.6109609 C20.3681139,23.6088256 20.3681139,23.6066904 20.3674021,23.6045552 L14.0471174,20.710605 L7.726121,23.6045552 C7.726121,23.6066904 7.726121,23.6088256 7.72540925,23.6109609 L14.0471174,20.7170107 L20.3681139,23.6109609 Z" id="Fill-30" fill="#FFFFFF" mask="url(#mask-2)"></path>
                <path d="M14.0469039,30.3969395 L14.0469039,20.7172242 L7.72590747,23.6111744 C7.71523132,23.7592171 7.70811388,23.9079715 7.70811388,24.0581495 C7.70811388,25.14 7.98,26.1577936 8.45758007,27.0488968 L8.65259786,27.3862633 C9.76932384,29.192669 11.7671886,30.3969395 14.0469039,30.3969395" id="Fill-31" fill="#FF990F" mask="url(#mask-2)"></path>
                <path d="M20.3855516,24.0582206 C20.3855516,23.9080427 20.3784342,23.7585765 20.367758,23.6112456 L14.0467616,20.7172954 L14.0467616,30.3970107 C16.3264769,30.3970107 18.3243416,29.1927402 19.4417794,27.3863345 L19.6360854,27.048968 C20.1136655,26.1578648 20.3855516,25.1400712 20.3855516,24.0582206" id="Fill-32" fill="#EF476F" mask="url(#mask-2)"></path>
            </g>
        </g>
    </g>
</svg>